*
%LPD*%
%LNBOTTOM*%
%FSLAX25Y25*%
%MOIN*%
%AD*%
%AD*%
%ADD15C,0.04*%
%ADD20R,0.16X0.06*%
%ADD30C,0.02*%
%ADD31C,0.06*%
%ADD32C,0.03*%
%ADD33C,0.12*%
%ADD34C,0.05*%
%AMD35_Rectangle*
20,1,0.025,-0.025,0,0.025,0,0*
20,1,0.025,0,-0.025,0,0.025,0*
1,1,0.025,-0.0125,-0.0125*
1,1,0.025,0.0125,-0.0125*
1,1,0.025,0.0125,0.0125*
1,1,0.025,-0.0125,0.0125*
%
%ADD35D35_Rectangle*%
%AMD42_Rectangle*
20,1,0.045,-0.035,0,0.035,0,0*
20,1,0.035,0,-0.04,0,0.04,0*
1,1,0.035,-0.0175,-0.0225*
1,1,0.035,0.0175,-0.0225*
1,1,0.035,0.0175,0.0225*
1,1,0.035,-0.0175,0.0225*
%
%ADD42D42_Rectangle*%
%AMD43_Rectangle*
20,1,0.04,-0.04,0,0.04,0,0*
20,1,0.04,0,-0.04,0,0.04,0*
1,1,0.04,-0.02,-0.02*
1,1,0.04,0.02,-0.02*
1,1,0.04,0.02,0.02*
1,1,0.04,-0.02,0.02*
%
%ADD43D43_Rectangle*%
%ADD47C,0.08*%
%ADD53R,0.36X0.15*%
%ADD54R,2.22X0.1*%
%ADD55R,0.16X0.295*%
%ADD56R,0.065X1.035*%
%ADD57R,0.065X1.005*%
%ADD58R,0.06X0.47*%
%ADD59R,0.06X0.425*%
%ADD60C,0.001*%
G54D30*
%SRX1Y1I0.0J0.0*%
G1X20000Y25000D2*
G1X40000Y25000D1*
G1X20000Y45000D2*
G1X40000Y45000D1*
G1X20000Y65000D2*
G1X40000Y65000D1*
G1X20000Y85000D2*
G1X40000Y85000D1*
G1X20000Y105000D2*
G1X40000Y105000D1*
G1X20000Y125000D2*
G1X40000Y125000D1*
G1X20000Y145000D2*
G1X40000Y145000D1*
G1X20000Y165000D2*
G1X40000Y165000D1*
G1X20000Y185000D2*
G1X40000Y185000D1*
G1X20000Y205000D2*
G1X40000Y205000D1*
G1X20000Y225000D2*
G1X40000Y225000D1*
G1X20000Y245000D2*
G1X40000Y245000D1*
G1X20000Y265000D2*
G1X40000Y265000D1*
G1X20000Y285000D2*
G1X40000Y285000D1*
G1X20000Y305000D2*
G1X40000Y305000D1*
G1X20000Y325000D2*
G1X40000Y325000D1*
G1X70000Y25000D2*
G1X77500Y17500D1*
G1X70000Y55000D2*
G1X70000Y65000D1*
G1X70000Y55000D2*
G1X100000Y25000D1*
G1X70000Y145000D2*
G1X77000Y138000D1*
G1X70000Y185000D2*
G1X77000Y178000D1*
G1X70000Y225000D2*
G1X77000Y218000D1*
G1X70000Y265000D2*
G1X77000Y258000D1*
G1X70000Y305000D2*
G1X77000Y298000D1*
G1X77000Y68000D2*
G1X77000Y138000D1*
G1X77000Y68000D2*
G1X100000Y45000D1*
G1X77000Y144000D2*
G1X77000Y178000D1*
G1X77000Y144000D2*
G1X81000Y140000D1*
G1X77000Y184000D2*
G1X77000Y218000D1*
G1X77000Y184000D2*
G1X81000Y180000D1*
G1X77000Y224000D2*
G1X77000Y258000D1*
G1X77000Y224000D2*
G1X81000Y220000D1*
G1X77000Y264000D2*
G1X77000Y298000D1*
G1X77000Y264000D2*
G1X81000Y260000D1*
G1X77500Y17500D2*
G1X101500Y17500D1*
G1X81000Y74000D2*
G1X81000Y140000D1*
G1X81000Y74000D2*
G1X100000Y55000D1*
G1X81000Y146000D2*
G1X81000Y180000D1*
G1X81000Y146000D2*
G1X85000Y142000D1*
G1X81000Y186000D2*
G1X81000Y220000D1*
G1X81000Y186000D2*
G1X85000Y182000D1*
G1X81000Y226000D2*
G1X81000Y260000D1*
G1X81000Y226000D2*
G1X85000Y222000D1*
G1X85000Y80000D2*
G1X85000Y142000D1*
G1X85000Y80000D2*
G1X100000Y65000D1*
G1X85000Y147657D2*
G1X85000Y182000D1*
G1X85000Y147657D2*
G1X89000Y143657D1*
G1X85000Y188000D2*
G1X85000Y222000D1*
G1X85000Y188000D2*
G1X89000Y184000D1*
G1X89000Y86000D2*
G1X89000Y143657D1*
G1X89000Y86000D2*
G1X100000Y75000D1*
G1X89000Y149500D2*
G1X89000Y184000D1*
G1X89000Y149500D2*
G1X93000Y145500D1*
G1X93000Y92000D2*
G1X93000Y145500D1*
G1X93000Y92000D2*
G1X100000Y85000D1*
G1X100000Y185000D2*
G1X125000Y210000D1*
G1X100000Y195000D2*
G1X115000Y210000D1*
G1X101500Y17500D2*
G1X109000Y25000D1*
G1X109000Y25000D2*
G1X160000Y25000D1*
G1X115000Y210000D2*
G1X115000Y233000D1*
G1X125000Y210000D2*
G1X125000Y233000D1*
G1X135000Y220000D2*
G1X135000Y233000D1*
G1X135000Y220000D2*
G1X160000Y195000D1*
G1X135000Y233000D2*
G1X145000Y233000D1*
G1X160000Y55000D2*
G1X190000Y25000D1*
G1X160000Y65000D2*
G1X170000Y55000D1*
G1X160000Y105000D2*
G1X180000Y85000D1*
G1X162500Y233000D2*
G54D15*
G1X177500Y248000D1*
G1X170000Y55000D2*
G54D30*
G1X180000Y55000D1*
G1X177500Y248000D2*
G54D15*
G1X192000Y248000D1*
G1X178000Y224000D2*
G54D32*
G1X178000Y228000D1*
G1X178000Y224000D2*
G1X181000Y221000D1*
G1X180000Y49500D2*
G54D31*
G1X180000Y55000D1*
G1X180000Y49500D2*
G1X184500Y45000D1*
G1X180000Y55000D2*
G54D30*
G1X190000Y55000D1*
G1X180000Y75000D2*
G1X180000Y85000D1*
G1X180000Y99500D2*
G54D31*
G1X180000Y105000D1*
G1X180000Y99500D2*
G1X184500Y95000D1*
G1X181000Y221000D2*
G54D32*
G1X218000Y221000D1*
G1X184500Y45000D2*
G54D31*
G1X220000Y45000D1*
G1X184500Y95000D2*
G1X254000Y95000D1*
G1X186000Y238000D2*
G54D32*
G1X188000Y236000D1*
G1X188000Y236000D2*
G1X207000Y236000D1*
G1X190000Y14500D2*
G54D15*
G1X190000Y25000D1*
G1X190000Y25000D2*
G54D30*
G1X200000Y25000D1*
G1X192000Y248000D2*
G54D15*
G1X197500Y242500D1*
G1X193500Y256500D2*
G54D32*
G1X193500Y278500D1*
G1X193500Y256500D2*
G1X201000Y249000D1*
G1X197500Y242500D2*
G54D15*
G1X210000Y242500D1*
G1X200000Y55000D2*
G54D30*
G1X210000Y65000D1*
G1X200000Y75000D2*
G1X210000Y75000D1*
G1X201000Y249000D2*
G54D32*
G1X213500Y249000D1*
G1X207000Y236000D2*
G1X215000Y228000D1*
G1X210000Y25000D2*
G54D30*
G1X220000Y35000D1*
G1X210000Y65000D2*
G1X230000Y65000D1*
G1X210000Y105000D2*
G1X210000Y155000D1*
G1X210000Y155000D2*
G1X240000Y185000D1*
G1X210000Y242500D2*
G54D15*
G1X215000Y237500D1*
G1X213500Y249000D2*
G54D32*
G1X221500Y241000D1*
G1X215000Y228000D2*
G54D15*
G1X215000Y237500D1*
G1X215000Y228000D2*
G54D32*
G1X221500Y234500D1*
G1X218000Y221000D2*
G1X225000Y228000D1*
G1X220000Y35000D2*
G54D30*
G1X220000Y45000D1*
G1X220000Y45000D2*
G1X220000Y55000D1*
G1X220000Y45000D2*
G54D31*
G1X254000Y45000D1*
G1X221500Y234500D2*
G54D32*
G1X221500Y241000D1*
G1X230000Y65000D2*
G54D30*
G1X240000Y55000D1*
G1X230000Y105000D2*
G1X230000Y165000D1*
G1X230000Y165000D2*
G1X245000Y180000D1*
G1X240000Y25000D2*
G54D31*
G1X254000Y25000D1*
G1X240000Y75000D2*
G1X254000Y75000D1*
G1X240000Y105000D2*
G54D30*
G1X240000Y165000D1*
G1X240000Y165000D2*
G1X252500Y177500D1*
G1X252500Y177500D2*
G1X252500Y185000D1*
G1X254000Y14500D2*
G54D31*
G1X254000Y25000D1*
G1X254000Y75000D2*
G1X264500Y64500D1*
G1X254000Y95000D2*
G1X254000Y105000D1*
G1X254000Y105000D2*
G1X268000Y119000D1*
G1X257500Y135000D2*
G54D30*
G1X257500Y180000D1*
G1X257500Y135000D2*
G1X262500Y130000D1*
G1X257500Y180000D2*
G1X345000Y267500D1*
G1X262500Y175000D2*
G1X265000Y172500D1*
G1X264500Y14500D2*
G54D31*
G1X264500Y64500D1*
G1X265000Y142500D2*
G54D30*
G1X265000Y172500D1*
G1X265000Y142500D2*
G1X267500Y140000D1*
G1X268000Y119000D2*
G54D31*
G1X285000Y119000D1*
G1X270000Y170000D2*
G54D30*
G1X272500Y167500D1*
G1X272500Y142500D2*
G1X272500Y167500D1*
G1X272500Y142500D2*
G1X275000Y140000D1*
G1X285000Y119000D2*
G54D31*
G1X285000Y180000D1*
G1X295000Y105000D2*
G1X305000Y105000D1*
G1X305000Y55000D2*
G54D30*
G1X333000Y83000D1*
G1X305000Y65000D2*
G1X327500Y87500D1*
G1X305000Y75000D2*
G1X322000Y92000D1*
G1X305000Y85000D2*
G1X317500Y97500D1*
G1X305000Y95000D2*
G1X313000Y103000D1*
G1X305000Y105000D2*
G54D31*
G1X305000Y119000D1*
G1X305000Y119000D2*
G1X305000Y180000D1*
G1X310000Y27500D2*
G54D30*
G1X313000Y30500D1*
G1X313000Y30500D2*
G1X313000Y54000D1*
G1X313000Y54000D2*
G1X337500Y78500D1*
G1X313000Y103000D2*
G1X313000Y227000D1*
G1X313000Y227000D2*
G1X356500Y270500D1*
G1X317500Y97500D2*
G1X317500Y223000D1*
G1X317500Y223000D2*
G1X355000Y260500D1*
G1X320000Y32500D2*
G1X323000Y35500D1*
G1X322000Y92000D2*
G1X322000Y219000D1*
G1X322000Y219000D2*
G1X343500Y240500D1*
G1X323000Y35500D2*
G1X323000Y55000D1*
G1X323000Y55000D2*
G1X342000Y74000D1*
G1X327500Y87500D2*
G1X327500Y115000D1*
G1X327500Y115000D2*
G1X338000Y125500D1*
G1X327500Y127500D2*
G1X327500Y165000D1*
G1X327500Y172500D2*
G1X333000Y167000D1*
G1X331000Y51500D2*
G54D31*
G1X350000Y70500D1*
G1X333000Y83000D2*
G54D30*
G1X333000Y114000D1*
G1X333000Y114000D2*
G1X339500Y120500D1*
G1X333000Y139500D2*
G1X333000Y167000D1*
G1X333000Y139500D2*
G1X342000Y130500D1*
G1X337500Y78500D2*
G1X337500Y101500D1*
G1X337500Y101500D2*
G1X342500Y106500D1*
G1X338000Y125500D2*
G1X344000Y125500D1*
G1X338500Y142500D2*
G1X338500Y172500D1*
G1X339500Y120500D2*
G1X365500Y120500D1*
G1X340000Y185000D2*
G54D31*
G1X340000Y186000D1*
G1X340000Y185000D2*
G1X354500Y170500D1*
G1X340000Y195000D2*
G1X340000Y225000D1*
G1X341000Y47000D2*
G1X354500Y60500D1*
G1X342000Y74000D2*
G54D30*
G1X342000Y99500D1*
G1X342000Y99500D2*
G1X353000Y110500D1*
G1X342000Y130500D2*
G1X365500Y130500D1*
G1X342500Y106500D2*
G1X342500Y115000D1*
G1X343500Y240500D2*
G1X365500Y240500D1*
G1X344000Y160000D2*
G1X347500Y156500D1*
G1X346500Y136000D2*
G1X346500Y140500D1*
G1X346500Y140500D2*
G1X356500Y150500D1*
G1X347500Y150000D2*
G1X347500Y156500D1*
G1X350000Y37500D2*
G1X353000Y40500D1*
G1X350000Y70500D2*
G54D31*
G1X350000Y90500D1*
G1X350000Y90500D2*
G1X350000Y96000D1*
G1X350000Y90500D2*
G1X365500Y90500D1*
G1X350000Y96000D2*
G1X354500Y100500D1*
G1X350000Y190000D2*
G54D30*
G1X350000Y224000D1*
G1X350000Y224000D2*
G1X356500Y230500D1*
G1X353000Y40500D2*
G1X365500Y40500D1*
G1X353000Y110500D2*
G1X365500Y110500D1*
G1X354500Y60500D2*
G54D31*
G1X365500Y60500D1*
G1X354500Y100500D2*
G1X365500Y100500D1*
G1X354500Y170500D2*
G1X365500Y170500D1*
G1X355000Y260500D2*
G54D30*
G1X365500Y260500D1*
G1X356500Y150500D2*
G1X365500Y150500D1*
G1X356500Y230500D2*
G1X365500Y230500D1*
G1X356500Y270500D2*
G1X365500Y270500D1*
G54D33*
G1X15000Y12500D3*
G1X15000Y337500D3*
G54D34*
G1X20000Y25000D3*
G54D35*
G1X20000Y35000D3*
G54D34*
G1X20000Y45000D3*
G1X20000Y65000D3*
G54D35*
G1X20000Y75000D3*
G54D34*
G1X20000Y85000D3*
G1X20000Y105000D3*
G54D35*
G1X20000Y115000D3*
G54D34*
G1X20000Y125000D3*
G1X20000Y145000D3*
G54D35*
G1X20000Y155000D3*
G54D34*
G1X20000Y165000D3*
G1X20000Y185000D3*
G54D35*
G1X20000Y195000D3*
G54D34*
G1X20000Y205000D3*
G1X20000Y225000D3*
G54D35*
G1X20000Y235000D3*
G54D34*
G1X20000Y245000D3*
G1X20000Y265000D3*
G54D35*
G1X20000Y275000D3*
G54D34*
G1X20000Y285000D3*
G1X20000Y305000D3*
G54D35*
G1X20000Y315000D3*
G54D34*
G1X20000Y325000D3*
G54D31*
G1X40000Y25000D3*
G1X40000Y45000D3*
G1X40000Y65000D3*
G1X40000Y85000D3*
G1X40000Y105000D3*
G1X40000Y125000D3*
G1X40000Y145000D3*
G1X40000Y165000D3*
G1X40000Y185000D3*
G1X40000Y205000D3*
G1X40000Y225000D3*
G1X40000Y245000D3*
G1X40000Y265000D3*
G1X40000Y285000D3*
G1X40000Y305000D3*
G1X40000Y325000D3*
G1X70000Y25000D3*
G1X70000Y45000D3*
G1X70000Y65000D3*
G1X70000Y85000D3*
G1X70000Y105000D3*
G1X70000Y125000D3*
G1X70000Y145000D3*
G1X70000Y165000D3*
G1X70000Y185000D3*
G1X70000Y205000D3*
G1X70000Y225000D3*
G1X70000Y245000D3*
G1X70000Y265000D3*
G1X70000Y285000D3*
G1X70000Y305000D3*
G1X70000Y325000D3*
G1X95000Y233000D3*
G1X95000Y263000D3*
G54D34*
G1X95000Y280000D3*
G54D42*
G1X95000Y305000D3*
G54D34*
G1X100000Y25000D3*
G1X100000Y35000D3*
G1X100000Y45000D3*
G1X100000Y55000D3*
G1X100000Y65000D3*
G1X100000Y75000D3*
G1X100000Y85000D3*
G1X100000Y95000D3*
G1X100000Y105000D3*
G1X100000Y115000D3*
G1X100000Y125000D3*
G1X100000Y135000D3*
G1X100000Y145000D3*
G1X100000Y155000D3*
G1X100000Y165000D3*
G1X100000Y175000D3*
G1X100000Y185000D3*
G1X100000Y195000D3*
G1X100000Y205000D3*
G54D35*
G1X100000Y215000D3*
G54D31*
G1X105000Y233000D3*
G1X105000Y263000D3*
G54D35*
G1X105000Y280000D3*
G54D42*
G1X105000Y305000D3*
G54D31*
G1X115000Y233000D3*
G1X115000Y263000D3*
G54D43*
G1X115000Y325000D3*
G54D31*
G1X125000Y233000D3*
G1X125000Y263000D3*
G54D35*
G1X125000Y280000D3*
G54D42*
G1X125000Y305000D3*
G54D53*
G1X130000Y12000D3*
G54D31*
G1X135000Y233000D3*
G1X135000Y263000D3*
G54D34*
G1X135000Y280000D3*
G54D42*
G1X135000Y305000D3*
G54D31*
G1X145000Y233000D3*
G1X145000Y263000D3*
G1X147500Y305000D3*
G1X147500Y335000D3*
G1X157500Y305000D3*
G1X157500Y335000D3*
G54D34*
G1X160000Y25000D3*
G1X160000Y35000D3*
G1X160000Y45000D3*
G1X160000Y55000D3*
G1X160000Y65000D3*
G1X160000Y75000D3*
G1X160000Y85000D3*
G1X160000Y95000D3*
G1X160000Y105000D3*
G1X160000Y115000D3*
G1X160000Y125000D3*
G1X160000Y135000D3*
G1X160000Y145000D3*
G1X160000Y155000D3*
G1X160000Y165000D3*
G1X160000Y175000D3*
G1X160000Y185000D3*
G1X160000Y195000D3*
G1X160000Y205000D3*
G1X160000Y215000D3*
G54D31*
G1X162500Y233000D3*
G1X162500Y253000D3*
G54D43*
G1X170000Y318000D3*
G1X170000Y338000D3*
G54D35*
G1X178000Y228000D3*
G1X180000Y25000D3*
G54D34*
G1X180000Y55000D3*
G54D35*
G1X180000Y75000D3*
G54D34*
G1X180000Y105000D3*
G1X186000Y228000D3*
G54D31*
G1X186000Y238000D3*
G1X186000Y258000D3*
G54D34*
G1X190000Y25000D3*
G1X190000Y55000D3*
G1X190000Y75000D3*
G1X190000Y105000D3*
G54D35*
G1X193500Y278500D3*
G54D34*
G1X193500Y286500D3*
G1X200000Y25000D3*
G1X200000Y55000D3*
G1X200000Y75000D3*
G1X200000Y105000D3*
G54D47*
G1X205000Y210000D3*
G54D34*
G1X205000Y228000D3*
G1X205000Y258000D3*
G54D31*
G1X209000Y289000D3*
G54D34*
G1X210000Y25000D3*
G1X210000Y55000D3*
G1X210000Y75000D3*
G1X210000Y105000D3*
G54D43*
G1X210000Y328000D3*
G54D34*
G1X215000Y228000D3*
G1X215000Y258000D3*
G1X218000Y271000D3*
G1X220000Y25000D3*
G1X220000Y55000D3*
G1X220000Y75000D3*
G1X220000Y105000D3*
G54D54*
G1X223000Y9500D3*
G54D34*
G1X225000Y228000D3*
G1X225000Y258000D3*
G1X228000Y271000D3*
G54D31*
G1X229000Y289000D3*
G54D34*
G1X230000Y25000D3*
G1X230000Y55000D3*
G1X230000Y75000D3*
G1X230000Y105000D3*
G54D31*
G1X230000Y308000D3*
G1X230000Y328000D3*
G54D34*
G1X235000Y228000D3*
G54D35*
G1X235000Y258000D3*
G54D34*
G1X240000Y25000D3*
G1X240000Y55000D3*
G1X240000Y75000D3*
G1X240000Y105000D3*
G54D47*
G1X250000Y210000D3*
G54D31*
G1X254000Y25000D3*
G1X254000Y45000D3*
G1X254000Y75000D3*
G1X254000Y95000D3*
G1X254000Y228000D3*
G1X254000Y248000D3*
G54D35*
G1X270000Y236000D3*
G54D34*
G1X270000Y244000D3*
G1X275000Y45000D3*
G1X275000Y55000D3*
G1X275000Y65000D3*
G1X275000Y75000D3*
G1X275000Y85000D3*
G1X275000Y95000D3*
G1X275000Y105000D3*
G54D55*
G1X280000Y33250D3*
G54D56*
G1X284750Y70250D3*
G54D31*
G1X285000Y119000D3*
G54D43*
G1X290000Y282500D3*
G54D47*
G1X290000Y322500D3*
G54D57*
G1X295250Y54750D3*
G54D35*
G1X305000Y45000D3*
G54D34*
G1X305000Y55000D3*
G1X305000Y65000D3*
G1X305000Y75000D3*
G1X305000Y85000D3*
G1X305000Y95000D3*
G1X305000Y105000D3*
G54D31*
G1X305000Y119000D3*
G54D58*
G1X331000Y28000D3*
G54D34*
G1X332000Y21000D3*
G54D35*
G1X340000Y21000D3*
G54D34*
G1X340000Y186500D3*
G54D35*
G1X340000Y194500D3*
G54D59*
G1X341000Y25750D3*
G54D33*
G1X365000Y12500D3*
G1X365000Y337500D3*
G54D20*
G1X365500Y40500D3*
G1X365500Y50500D3*
G1X365500Y60500D3*
G1X365500Y70500D3*
G1X365500Y90500D3*
G1X365500Y100500D3*
G1X365500Y110500D3*
G1X365500Y120500D3*
G1X365500Y130500D3*
G1X365500Y140500D3*
G1X365500Y150500D3*
G1X365500Y160500D3*
G1X365500Y170500D3*
G1X365500Y180500D3*
G1X365500Y190500D3*
G1X365500Y200500D3*
G1X365500Y210500D3*
G1X365500Y220500D3*
G1X365500Y230500D3*
G1X365500Y240500D3*
G1X365500Y250500D3*
G1X365500Y260500D3*
G1X365500Y270500D3*
G1X365500Y280500D3*
G1X365500Y290500D3*
G1X365500Y300500D3*
G1X365500Y310500D3*
G54D60*
G36*
G1X75024Y305000D2*
G1X89482Y305000D1*
G1X89482Y307250D1*
G1X89554Y307985D1*
G1X89769Y308692D1*
G1X90117Y309343D1*
G1X90586Y309914D1*
G1X91157Y310383D1*
G1X91808Y310731D1*
G1X92515Y310946D1*
G1X93250Y311018D1*
G1X96750Y311018D1*
G1X97485Y310946D1*
G1X98192Y310731D1*
G1X98843Y310383D1*
G1X99414Y309914D1*
G1X99853Y309380D1*
G1X100000Y309360D1*
G1X100147Y309380D1*
G1X100586Y309914D1*
G1X101157Y310383D1*
G1X101808Y310731D1*
G1X102515Y310946D1*
G1X103250Y311018D1*
G1X106750Y311018D1*
G1X107485Y310946D1*
G1X108192Y310731D1*
G1X108843Y310383D1*
G1X109414Y309914D1*
G1X109883Y309343D1*
G1X110231Y308692D1*
G1X110446Y307985D1*
G1X110518Y307250D1*
G1X110518Y305000D1*
G1X119482Y305000D1*
G1X119482Y307250D1*
G1X119554Y307985D1*
G1X119769Y308692D1*
G1X120117Y309343D1*
G1X120586Y309914D1*
G1X121157Y310383D1*
G1X121808Y310731D1*
G1X122515Y310946D1*
G1X123250Y311018D1*
G1X126750Y311018D1*
G1X127485Y310946D1*
G1X128192Y310731D1*
G1X128843Y310383D1*
G1X129414Y309914D1*
G1X129853Y309380D1*
G1X130000Y309360D1*
G1X130147Y309380D1*
G1X130586Y309914D1*
G1X131157Y310383D1*
G1X131808Y310731D1*
G1X132515Y310946D1*
G1X133250Y311018D1*
G1X136750Y311018D1*
G1X137485Y310946D1*
G1X138192Y310731D1*
G1X138843Y310383D1*
G1X139414Y309914D1*
G1X139883Y309343D1*
G1X140231Y308692D1*
G1X140446Y307985D1*
G1X140518Y307250D1*
G1X140518Y305000D1*
G1X142476Y305000D1*
G1X142572Y305980D1*
G1X142858Y306923D1*
G1X143323Y307791D1*
G1X143947Y308553D1*
G1X144709Y309177D1*
G1X145577Y309642D1*
G1X146520Y309928D1*
G1X147500Y310024D1*
G1X148480Y309928D1*
G1X149423Y309642D1*
G1X150291Y309177D1*
G1X151053Y308553D1*
G1X151677Y307791D1*
G1X152142Y306923D1*
G1X152369Y306172D1*
G1X152631Y306172D1*
G1X152858Y306923D1*
G1X153323Y307791D1*
G1X153947Y308553D1*
G1X154709Y309177D1*
G1X155577Y309642D1*
G1X156520Y309928D1*
G1X157500Y310024D1*
G1X158480Y309928D1*
G1X159423Y309642D1*
G1X160291Y309177D1*
G1X161053Y308553D1*
G1X161677Y307791D1*
G1X162142Y306923D1*
G1X162428Y305980D1*
G1X162524Y305000D1*
G1X225994Y305000D1*
G1X225823Y305209D1*
G1X225358Y306077D1*
G1X225072Y307020D1*
G1X224976Y308000D1*
G1X225072Y308980D1*
G1X225358Y309923D1*
G1X225823Y310791D1*
G1X226447Y311553D1*
G1X227209Y312177D1*
G1X228077Y312642D1*
G1X229020Y312928D1*
G1X230000Y313024D1*
G1X230980Y312928D1*
G1X231923Y312642D1*
G1X232791Y312177D1*
G1X233553Y311553D1*
G1X234177Y310791D1*
G1X234642Y309923D1*
G1X234928Y308980D1*
G1X235024Y308000D1*
G1X234928Y307020D1*
G1X234642Y306077D1*
G1X234177Y305209D1*
G1X234006Y305000D1*
G1X305000Y305000D1*
G1X305000Y321992D1*
G1X295000Y321992D1*
G1X295000Y319500D1*
G1X293000Y317500D1*
G1X290246Y317500D1*
G1X290000Y317476D1*
G1X289754Y317500D1*
G1X287000Y317500D1*
G1X285000Y319500D1*
G1X285000Y321992D1*
G1X212117Y321992D1*
G1X212000Y321981D1*
G1X208000Y321981D1*
G1X207883Y321992D1*
G1X174246Y321992D1*
G1X174506Y321675D1*
G1X174715Y321285D1*
G1X175000Y321000D1*
G1X175000Y320147D1*
G1X175015Y320000D1*
G1X175015Y316000D1*
G1X175000Y315853D1*
G1X175000Y315000D1*
G1X174715Y314715D1*
G1X174506Y314325D1*
G1X174132Y313868D1*
G1X173675Y313494D1*
G1X173285Y313285D1*
G1X173000Y313000D1*
G1X172148Y313000D1*
G1X172000Y312985D1*
G1X168000Y312985D1*
G1X167852Y313000D1*
G1X167000Y313000D1*
G1X166715Y313285D1*
G1X166325Y313494D1*
G1X165868Y313868D1*
G1X165494Y314325D1*
G1X165285Y314715D1*
G1X165000Y315000D1*
G1X165000Y315853D1*
G1X164985Y316000D1*
G1X164985Y320000D1*
G1X165000Y320147D1*
G1X165000Y320500D1*
G1X165040Y320549D1*
G1X165043Y320588D1*
G1X165215Y321154D1*
G1X165494Y321675D1*
G1X165754Y321992D1*
G1X119830Y321992D1*
G1X119785Y321846D1*
G1X119506Y321325D1*
G1X119132Y320868D1*
G1X118675Y320494D1*
G1X118154Y320215D1*
G1X117588Y320043D1*
G1X117000Y319985D1*
G1X116000Y319985D1*
G1X116000Y321992D1*
G1X114000Y321992D1*
G1X114000Y319985D1*
G1X113000Y319985D1*
G1X112412Y320043D1*
G1X111846Y320215D1*
G1X111325Y320494D1*
G1X110868Y320868D1*
G1X110494Y321325D1*
G1X110215Y321846D1*
G1X110170Y321992D1*
G1X75000Y321992D1*
G1X75000Y305246D1*
G1X75024Y305000D1*
G37*
G36*
G1X82264Y263000D2*
G1X89976Y263000D1*
G1X90072Y263980D1*
G1X90358Y264923D1*
G1X90823Y265791D1*
G1X91447Y266553D1*
G1X92209Y267177D1*
G1X93077Y267642D1*
G1X94020Y267928D1*
G1X95000Y268024D1*
G1X95980Y267928D1*
G1X96923Y267642D1*
G1X97791Y267177D1*
G1X98553Y266553D1*
G1X99177Y265791D1*
G1X99642Y264923D1*
G1X99869Y264172D1*
G1X100131Y264172D1*
G1X100358Y264923D1*
G1X100823Y265791D1*
G1X101447Y266553D1*
G1X102209Y267177D1*
G1X103077Y267642D1*
G1X104020Y267928D1*
G1X105000Y268024D1*
G1X105980Y267928D1*
G1X106923Y267642D1*
G1X107791Y267177D1*
G1X108553Y266553D1*
G1X109177Y265791D1*
G1X109642Y264923D1*
G1X109869Y264172D1*
G1X110131Y264172D1*
G1X110358Y264923D1*
G1X110823Y265791D1*
G1X111447Y266553D1*
G1X112209Y267177D1*
G1X113077Y267642D1*
G1X114020Y267928D1*
G1X115000Y268024D1*
G1X115980Y267928D1*
G1X116923Y267642D1*
G1X117791Y267177D1*
G1X118553Y266553D1*
G1X119177Y265791D1*
G1X119642Y264923D1*
G1X119869Y264172D1*
G1X120131Y264172D1*
G1X120358Y264923D1*
G1X120823Y265791D1*
G1X121447Y266553D1*
G1X122209Y267177D1*
G1X123077Y267642D1*
G1X124020Y267928D1*
G1X125000Y268024D1*
G1X125980Y267928D1*
G1X126923Y267642D1*
G1X127791Y267177D1*
G1X128553Y266553D1*
G1X129177Y265791D1*
G1X129642Y264923D1*
G1X129869Y264172D1*
G1X130131Y264172D1*
G1X130358Y264923D1*
G1X130823Y265791D1*
G1X131447Y266553D1*
G1X132209Y267177D1*
G1X133077Y267642D1*
G1X134020Y267928D1*
G1X135000Y268024D1*
G1X135980Y267928D1*
G1X136923Y267642D1*
G1X137791Y267177D1*
G1X138553Y266553D1*
G1X139177Y265791D1*
G1X139642Y264923D1*
G1X139869Y264172D1*
G1X140131Y264172D1*
G1X140358Y264923D1*
G1X140823Y265791D1*
G1X141447Y266553D1*
G1X142209Y267177D1*
G1X143077Y267642D1*
G1X144020Y267928D1*
G1X145000Y268024D1*
G1X145980Y267928D1*
G1X146923Y267642D1*
G1X147791Y267177D1*
G1X148553Y266553D1*
G1X149177Y265791D1*
G1X149642Y264923D1*
G1X149928Y263980D1*
G1X150024Y263000D1*
G1X189983Y263000D1*
G1X189983Y274906D1*
G1X189941Y274941D1*
G1X189535Y275436D1*
G1X189233Y276000D1*
G1X189047Y276613D1*
G1X188984Y277250D1*
G1X188984Y279750D1*
G1X189009Y280000D1*
G1X139522Y280000D1*
G1X139435Y279118D1*
G1X139178Y278270D1*
G1X138760Y277488D1*
G1X138197Y276803D1*
G1X137512Y276240D1*
G1X136730Y275822D1*
G1X135882Y275565D1*
G1X135000Y275478D1*
G1X134118Y275565D1*
G1X133270Y275822D1*
G1X132488Y276240D1*
G1X131803Y276803D1*
G1X131240Y277488D1*
G1X130822Y278270D1*
G1X130565Y279118D1*
G1X130478Y280000D1*
G1X129516Y280000D1*
G1X129516Y278750D1*
G1X129453Y278113D1*
G1X129267Y277500D1*
G1X128965Y276936D1*
G1X128559Y276441D1*
G1X128064Y276035D1*
G1X127500Y275733D1*
G1X126887Y275547D1*
G1X126250Y275484D1*
G1X123750Y275484D1*
G1X123113Y275547D1*
G1X122500Y275733D1*
G1X121936Y276035D1*
G1X121441Y276441D1*
G1X121035Y276936D1*
G1X120733Y277500D1*
G1X120547Y278113D1*
G1X120484Y278750D1*
G1X120484Y280000D1*
G1X109516Y280000D1*
G1X109516Y278750D1*
G1X109453Y278113D1*
G1X109267Y277500D1*
G1X108965Y276936D1*
G1X108559Y276441D1*
G1X108064Y276035D1*
G1X107500Y275733D1*
G1X106887Y275547D1*
G1X106250Y275484D1*
G1X103750Y275484D1*
G1X103113Y275547D1*
G1X102500Y275733D1*
G1X101936Y276035D1*
G1X101441Y276441D1*
G1X101035Y276936D1*
G1X100733Y277500D1*
G1X100547Y278113D1*
G1X100484Y278750D1*
G1X100484Y280000D1*
G1X99522Y280000D1*
G1X99435Y279118D1*
G1X99178Y278270D1*
G1X98760Y277488D1*
G1X98197Y276803D1*
G1X97512Y276240D1*
G1X96730Y275822D1*
G1X95882Y275565D1*
G1X95000Y275478D1*
G1X94118Y275565D1*
G1X93270Y275822D1*
G1X92488Y276240D1*
G1X91803Y276803D1*
G1X91240Y277488D1*
G1X90822Y278270D1*
G1X90565Y279118D1*
G1X90478Y280000D1*
G1X80015Y280000D1*
G1X80015Y265249D1*
G1X82264Y263000D1*
G37*
G36*
G1X168184Y233000D2*
G1X185755Y233000D1*
G1X185020Y233072D1*
G1X184077Y233358D1*
G1X183209Y233823D1*
G1X182447Y234447D1*
G1X181823Y235209D1*
G1X181358Y236077D1*
G1X181072Y237020D1*
G1X180976Y238000D1*
G1X181000Y238246D1*
G1X181000Y243981D1*
G1X179165Y243981D1*
G1X168184Y233000D1*
G37*
G36*
G1X75000Y321992D2*
G1X110170Y321992D1*
G1X110043Y322412D1*
G1X109985Y323000D1*
G1X109985Y324000D1*
G1X114000Y324000D1*
G1X114000Y321992D1*
G1X116000Y321992D1*
G1X116000Y324000D1*
G1X120015Y324000D1*
G1X120015Y323000D1*
G1X119957Y322412D1*
G1X119830Y321992D1*
G1X165754Y321992D1*
G1X165868Y322132D1*
G1X166325Y322506D1*
G1X166814Y322768D1*
G1X167000Y323000D1*
G1X167853Y323000D1*
G1X168000Y323015D1*
G1X172000Y323015D1*
G1X172147Y323000D1*
G1X173000Y323000D1*
G1X173285Y322715D1*
G1X173675Y322506D1*
G1X174132Y322132D1*
G1X174246Y321992D1*
G1X207883Y321992D1*
G1X207216Y322058D1*
G1X206462Y322287D1*
G1X205767Y322658D1*
G1X205158Y323158D1*
G1X204658Y323767D1*
G1X204287Y324462D1*
G1X204058Y325216D1*
G1X203981Y326000D1*
G1X203981Y328007D1*
G1X119830Y328007D1*
G1X119957Y327588D1*
G1X120015Y327000D1*
G1X120015Y326000D1*
G1X116000Y326000D1*
G1X116000Y328007D1*
G1X114000Y328007D1*
G1X114000Y326000D1*
G1X109985Y326000D1*
G1X109985Y327000D1*
G1X110043Y327588D1*
G1X110170Y328007D1*
G1X75000Y328007D1*
G1X75000Y325246D1*
G1X75024Y325000D1*
G1X75000Y324754D1*
G1X75000Y321992D1*
G37*
G36*
G1X212117Y321992D2*
G1X285000Y321992D1*
G1X285000Y322254D1*
G1X284976Y322500D1*
G1X285000Y322746D1*
G1X285000Y325000D1*
G1X287000Y327500D1*
G1X289754Y327500D1*
G1X290000Y327524D1*
G1X290246Y327500D1*
G1X293000Y327500D1*
G1X295000Y325500D1*
G1X295000Y322746D1*
G1X295024Y322500D1*
G1X295000Y322254D1*
G1X295000Y321992D1*
G1X305000Y321992D1*
G1X305000Y328007D1*
G1X235023Y328007D1*
G1X235024Y328000D1*
G1X234928Y327020D1*
G1X234642Y326077D1*
G1X234177Y325209D1*
G1X233553Y324447D1*
G1X232791Y323823D1*
G1X231923Y323358D1*
G1X230980Y323072D1*
G1X230000Y322976D1*
G1X229020Y323072D1*
G1X228077Y323358D1*
G1X227209Y323823D1*
G1X226447Y324447D1*
G1X225823Y325209D1*
G1X225358Y326077D1*
G1X225072Y327020D1*
G1X224976Y328000D1*
G1X224977Y328007D1*
G1X216019Y328007D1*
G1X216019Y326000D1*
G1X215942Y325216D1*
G1X215713Y324462D1*
G1X215342Y323767D1*
G1X214842Y323158D1*
G1X214233Y322658D1*
G1X213538Y322287D1*
G1X212784Y322058D1*
G1X212117Y321992D1*
G37*
G36*
G1X80015Y298000D2*
G1X80015Y289000D1*
G1X191000Y289000D1*
G1X192000Y290000D1*
G1X193328Y290000D1*
G1X193500Y290017D1*
G1X193672Y290000D1*
G1X195000Y290000D1*
G1X196000Y289000D1*
G1X204981Y289000D1*
G1X205000Y289197D1*
G1X205000Y291000D1*
G1X207000Y293000D1*
G1X208803Y293000D1*
G1X209000Y293019D1*
G1X209197Y293000D1*
G1X211000Y293000D1*
G1X213000Y291000D1*
G1X213000Y289196D1*
G1X213019Y289000D1*
G1X223976Y289000D1*
G1X224072Y289980D1*
G1X224358Y290923D1*
G1X224823Y291791D1*
G1X225447Y292553D1*
G1X226209Y293177D1*
G1X227077Y293642D1*
G1X228020Y293928D1*
G1X229000Y294024D1*
G1X229980Y293928D1*
G1X230923Y293642D1*
G1X231791Y293177D1*
G1X232553Y292553D1*
G1X233177Y291791D1*
G1X233642Y290923D1*
G1X233928Y289980D1*
G1X234024Y289000D1*
G1X305000Y289000D1*
G1X305000Y305000D1*
G1X234006Y305000D1*
G1X233553Y304447D1*
G1X232791Y303823D1*
G1X231923Y303358D1*
G1X230980Y303072D1*
G1X230000Y302976D1*
G1X229020Y303072D1*
G1X228077Y303358D1*
G1X227209Y303823D1*
G1X226447Y304447D1*
G1X225994Y305000D1*
G1X162524Y305000D1*
G1X162428Y304020D1*
G1X162142Y303077D1*
G1X161677Y302209D1*
G1X161053Y301447D1*
G1X160291Y300823D1*
G1X159423Y300358D1*
G1X158480Y300072D1*
G1X157500Y299976D1*
G1X156520Y300072D1*
G1X155577Y300358D1*
G1X154709Y300823D1*
G1X153947Y301447D1*
G1X153323Y302209D1*
G1X152858Y303077D1*
G1X152631Y303828D1*
G1X152369Y303828D1*
G1X152142Y303077D1*
G1X151677Y302209D1*
G1X151053Y301447D1*
G1X150291Y300823D1*
G1X149423Y300358D1*
G1X148480Y300072D1*
G1X147500Y299976D1*
G1X146520Y300072D1*
G1X145577Y300358D1*
G1X144709Y300823D1*
G1X143947Y301447D1*
G1X143323Y302209D1*
G1X142858Y303077D1*
G1X142572Y304020D1*
G1X142476Y305000D1*
G1X140518Y305000D1*
G1X140518Y302750D1*
G1X140446Y302015D1*
G1X140231Y301308D1*
G1X139883Y300657D1*
G1X139414Y300086D1*
G1X138843Y299617D1*
G1X138192Y299269D1*
G1X137485Y299054D1*
G1X136750Y298982D1*
G1X133250Y298982D1*
G1X132515Y299054D1*
G1X131808Y299269D1*
G1X131157Y299617D1*
G1X130586Y300086D1*
G1X130147Y300620D1*
G1X130000Y300640D1*
G1X129853Y300620D1*
G1X129414Y300086D1*
G1X128843Y299617D1*
G1X128192Y299269D1*
G1X127485Y299054D1*
G1X126750Y298982D1*
G1X123250Y298982D1*
G1X122515Y299054D1*
G1X121808Y299269D1*
G1X121157Y299617D1*
G1X120586Y300086D1*
G1X120117Y300657D1*
G1X119769Y301308D1*
G1X119554Y302015D1*
G1X119482Y302750D1*
G1X119482Y305000D1*
G1X110518Y305000D1*
G1X110518Y302750D1*
G1X110446Y302015D1*
G1X110231Y301308D1*
G1X109883Y300657D1*
G1X109414Y300086D1*
G1X108843Y299617D1*
G1X108192Y299269D1*
G1X107485Y299054D1*
G1X106750Y298982D1*
G1X103250Y298982D1*
G1X102515Y299054D1*
G1X101808Y299269D1*
G1X101157Y299617D1*
G1X100586Y300086D1*
G1X100147Y300620D1*
G1X100000Y300640D1*
G1X99853Y300620D1*
G1X99414Y300086D1*
G1X98843Y299617D1*
G1X98192Y299269D1*
G1X97485Y299054D1*
G1X96750Y298982D1*
G1X93250Y298982D1*
G1X92515Y299054D1*
G1X91808Y299269D1*
G1X91157Y299617D1*
G1X90586Y300086D1*
G1X90117Y300657D1*
G1X89769Y301308D1*
G1X89554Y302015D1*
G1X89482Y302750D1*
G1X89482Y305000D1*
G1X75024Y305000D1*
G1X75000Y304754D1*
G1X75000Y304263D1*
G1X79132Y300132D1*
G1X79506Y299675D1*
G1X79785Y299154D1*
G1X79957Y298588D1*
G1X80015Y298000D1*
G37*
G36*
G1X109516Y280000D2*
G1X120484Y280000D1*
G1X120484Y281250D1*
G1X120547Y281887D1*
G1X120733Y282500D1*
G1X121035Y283064D1*
G1X121441Y283559D1*
G1X121936Y283965D1*
G1X122500Y284267D1*
G1X123113Y284453D1*
G1X123750Y284516D1*
G1X126250Y284516D1*
G1X126887Y284453D1*
G1X127500Y284267D1*
G1X128064Y283965D1*
G1X128559Y283559D1*
G1X128965Y283064D1*
G1X129267Y282500D1*
G1X129453Y281887D1*
G1X129516Y281250D1*
G1X129516Y280000D1*
G1X130478Y280000D1*
G1X130565Y280882D1*
G1X130822Y281730D1*
G1X131240Y282512D1*
G1X131803Y283197D1*
G1X132488Y283760D1*
G1X133270Y284178D1*
G1X134118Y284435D1*
G1X135000Y284522D1*
G1X135882Y284435D1*
G1X136730Y284178D1*
G1X137512Y283760D1*
G1X138197Y283197D1*
G1X138760Y282512D1*
G1X139178Y281730D1*
G1X139435Y280882D1*
G1X139522Y280000D1*
G1X189009Y280000D1*
G1X189047Y280387D1*
G1X189233Y281000D1*
G1X189535Y281564D1*
G1X189941Y282059D1*
G1X190436Y282465D1*
G1X191000Y282767D1*
G1X191613Y282953D1*
G1X191686Y282960D1*
G1X191779Y283221D1*
G1X190000Y285000D1*
G1X190000Y286328D1*
G1X189983Y286500D1*
G1X190000Y286672D1*
G1X190000Y288000D1*
G1X191000Y289000D1*
G1X80015Y289000D1*
G1X80015Y280000D1*
G1X90478Y280000D1*
G1X90565Y280882D1*
G1X90822Y281730D1*
G1X91240Y282512D1*
G1X91803Y283197D1*
G1X92488Y283760D1*
G1X93270Y284178D1*
G1X94118Y284435D1*
G1X95000Y284522D1*
G1X95882Y284435D1*
G1X96730Y284178D1*
G1X97512Y283760D1*
G1X98197Y283197D1*
G1X98760Y282512D1*
G1X99178Y281730D1*
G1X99435Y280882D1*
G1X99522Y280000D1*
G1X100484Y280000D1*
G1X100484Y281250D1*
G1X100547Y281887D1*
G1X100733Y282500D1*
G1X101035Y283064D1*
G1X101441Y283559D1*
G1X101936Y283965D1*
G1X102500Y284267D1*
G1X103113Y284453D1*
G1X103750Y284516D1*
G1X106250Y284516D1*
G1X106887Y284453D1*
G1X107500Y284267D1*
G1X108064Y283965D1*
G1X108559Y283559D1*
G1X108965Y283064D1*
G1X109267Y282500D1*
G1X109453Y281887D1*
G1X109516Y281250D1*
G1X109516Y280000D1*
G37*
G36*
G1X195387Y282953D2*
G1X196000Y282767D1*
G1X196564Y282465D1*
G1X197059Y282059D1*
G1X197465Y281564D1*
G1X197767Y281000D1*
G1X197953Y280387D1*
G1X197991Y280000D1*
G1X284030Y280000D1*
G1X283981Y280500D1*
G1X283981Y284500D1*
G1X284058Y285284D1*
G1X284287Y286038D1*
G1X284658Y286733D1*
G1X285158Y287342D1*
G1X285767Y287842D1*
G1X286462Y288213D1*
G1X287216Y288442D1*
G1X288000Y288519D1*
G1X292000Y288519D1*
G1X292784Y288442D1*
G1X293538Y288213D1*
G1X294233Y287842D1*
G1X294842Y287342D1*
G1X295342Y286733D1*
G1X295713Y286038D1*
G1X295942Y285284D1*
G1X296019Y284500D1*
G1X296019Y280500D1*
G1X295970Y280000D1*
G1X305000Y280000D1*
G1X305000Y289000D1*
G1X234024Y289000D1*
G1X233928Y288020D1*
G1X233642Y287077D1*
G1X233177Y286209D1*
G1X232553Y285447D1*
G1X231791Y284823D1*
G1X230923Y284358D1*
G1X229980Y284072D1*
G1X229000Y283976D1*
G1X228020Y284072D1*
G1X227077Y284358D1*
G1X226209Y284823D1*
G1X225447Y285447D1*
G1X224823Y286209D1*
G1X224358Y287077D1*
G1X224072Y288020D1*
G1X223976Y289000D1*
G1X213019Y289000D1*
G1X213000Y288804D1*
G1X213000Y287000D1*
G1X211000Y285000D1*
G1X209196Y285000D1*
G1X209000Y284981D1*
G1X208804Y285000D1*
G1X207000Y285000D1*
G1X205000Y287000D1*
G1X205000Y288803D1*
G1X204981Y289000D1*
G1X196000Y289000D1*
G1X197000Y288000D1*
G1X197000Y286672D1*
G1X197017Y286500D1*
G1X197000Y286328D1*
G1X197000Y285000D1*
G1X195221Y283221D1*
G1X195314Y282960D1*
G1X195387Y282953D1*
G37*
G36*
G1X197017Y263000D2*
G1X305000Y263000D1*
G1X305000Y271000D1*
G1X232522Y271000D1*
G1X232435Y270118D1*
G1X232178Y269270D1*
G1X231760Y268488D1*
G1X231197Y267803D1*
G1X230512Y267240D1*
G1X229730Y266822D1*
G1X228882Y266565D1*
G1X228000Y266478D1*
G1X227118Y266565D1*
G1X226270Y266822D1*
G1X225488Y267240D1*
G1X224803Y267803D1*
G1X224240Y268488D1*
G1X223822Y269270D1*
G1X223565Y270118D1*
G1X223478Y271000D1*
G1X221517Y271000D1*
G1X221500Y270828D1*
G1X221500Y269500D1*
G1X219500Y267500D1*
G1X218172Y267500D1*
G1X218000Y267483D1*
G1X217828Y267500D1*
G1X216500Y267500D1*
G1X214500Y269500D1*
G1X214500Y270828D1*
G1X214483Y271000D1*
G1X197017Y271000D1*
G1X197017Y263000D1*
G37*
G36*
G1X232522Y271000D2*
G1X305000Y271000D1*
G1X305000Y280000D1*
G1X295970Y280000D1*
G1X295942Y279716D1*
G1X295713Y278962D1*
G1X295342Y278267D1*
G1X294842Y277658D1*
G1X294233Y277158D1*
G1X293538Y276787D1*
G1X292784Y276558D1*
G1X292000Y276481D1*
G1X288000Y276481D1*
G1X287216Y276558D1*
G1X286462Y276787D1*
G1X285767Y277158D1*
G1X285158Y277658D1*
G1X284658Y278267D1*
G1X284287Y278962D1*
G1X284058Y279716D1*
G1X284030Y280000D1*
G1X197991Y280000D1*
G1X198016Y279750D1*
G1X198016Y277250D1*
G1X197953Y276613D1*
G1X197767Y276000D1*
G1X197465Y275436D1*
G1X197059Y274941D1*
G1X197017Y274906D1*
G1X197017Y271000D1*
G1X214483Y271000D1*
G1X214500Y271172D1*
G1X214500Y272500D1*
G1X216500Y274500D1*
G1X217828Y274500D1*
G1X218000Y274517D1*
G1X218172Y274500D1*
G1X219500Y274500D1*
G1X221500Y272500D1*
G1X221500Y271172D1*
G1X221517Y271000D1*
G1X223478Y271000D1*
G1X223565Y271882D1*
G1X223822Y272730D1*
G1X224240Y273512D1*
G1X224803Y274197D1*
G1X225488Y274760D1*
G1X226270Y275178D1*
G1X227118Y275435D1*
G1X228000Y275522D1*
G1X228882Y275435D1*
G1X229730Y275178D1*
G1X230512Y274760D1*
G1X231197Y274197D1*
G1X231760Y273512D1*
G1X232178Y272730D1*
G1X232435Y271882D1*
G1X232522Y271000D1*
G37*
G36*
G1X150024Y233000D2*
G1X157476Y233000D1*
G1X157572Y233980D1*
G1X157858Y234923D1*
G1X158323Y235791D1*
G1X158947Y236553D1*
G1X159709Y237177D1*
G1X160577Y237642D1*
G1X161520Y237928D1*
G1X161768Y237952D1*
G1X174377Y250561D1*
G1X165673Y250561D1*
G1X165342Y250158D1*
G1X164733Y249658D1*
G1X164038Y249287D1*
G1X163500Y249123D1*
G1X163500Y250561D1*
G1X161500Y250561D1*
G1X161500Y249123D1*
G1X160962Y249287D1*
G1X160267Y249658D1*
G1X159658Y250158D1*
G1X159327Y250561D1*
G1X84015Y250561D1*
G1X84015Y233000D1*
G1X90981Y233000D1*
G1X91000Y233197D1*
G1X91000Y235000D1*
G1X93000Y237000D1*
G1X94803Y237000D1*
G1X95000Y237019D1*
G1X95197Y237000D1*
G1X97000Y237000D1*
G1X99000Y235000D1*
G1X99000Y233196D1*
G1X99019Y233000D1*
G1X100981Y233000D1*
G1X101000Y233197D1*
G1X101000Y235000D1*
G1X103000Y237000D1*
G1X104803Y237000D1*
G1X105000Y237019D1*
G1X105197Y237000D1*
G1X107000Y237000D1*
G1X109000Y235000D1*
G1X109000Y233196D1*
G1X109019Y233000D1*
G1X109976Y233000D1*
G1X110072Y233980D1*
G1X110358Y234923D1*
G1X110823Y235791D1*
G1X111447Y236553D1*
G1X112209Y237177D1*
G1X113077Y237642D1*
G1X114020Y237928D1*
G1X115000Y238024D1*
G1X115980Y237928D1*
G1X116923Y237642D1*
G1X117791Y237177D1*
G1X118553Y236553D1*
G1X119177Y235791D1*
G1X119642Y234923D1*
G1X119869Y234172D1*
G1X120131Y234172D1*
G1X120358Y234923D1*
G1X120823Y235791D1*
G1X121447Y236553D1*
G1X122209Y237177D1*
G1X123077Y237642D1*
G1X124020Y237928D1*
G1X125000Y238024D1*
G1X125980Y237928D1*
G1X126923Y237642D1*
G1X127791Y237177D1*
G1X128553Y236553D1*
G1X129177Y235791D1*
G1X129642Y234923D1*
G1X129869Y234172D1*
G1X130131Y234172D1*
G1X130358Y234923D1*
G1X130823Y235791D1*
G1X131447Y236553D1*
G1X132209Y237177D1*
G1X133077Y237642D1*
G1X134020Y237928D1*
G1X135000Y238024D1*
G1X135980Y237928D1*
G1X136923Y237642D1*
G1X137791Y237177D1*
G1X138553Y236553D1*
G1X138994Y236015D1*
G1X141006Y236015D1*
G1X141447Y236553D1*
G1X142209Y237177D1*
G1X143077Y237642D1*
G1X144020Y237928D1*
G1X145000Y238024D1*
G1X145980Y237928D1*
G1X146923Y237642D1*
G1X147791Y237177D1*
G1X148553Y236553D1*
G1X149177Y235791D1*
G1X149642Y234923D1*
G1X149928Y233980D1*
G1X150024Y233000D1*
G37*
G36*
G1X103766Y147500D2*
G1X156234Y147500D1*
G1X156240Y147512D1*
G1X156803Y148197D1*
G1X157488Y148760D1*
G1X158270Y149178D1*
G1X159118Y149435D1*
G1X160000Y149522D1*
G1X160882Y149435D1*
G1X161730Y149178D1*
G1X162512Y148760D1*
G1X163197Y148197D1*
G1X163760Y147512D1*
G1X163766Y147500D1*
G1X195000Y147500D1*
G1X202500Y155000D1*
G1X164522Y155000D1*
G1X164435Y154118D1*
G1X164178Y153270D1*
G1X163760Y152488D1*
G1X163197Y151803D1*
G1X162512Y151240D1*
G1X161730Y150822D1*
G1X160882Y150565D1*
G1X160000Y150478D1*
G1X159118Y150565D1*
G1X158270Y150822D1*
G1X157488Y151240D1*
G1X156803Y151803D1*
G1X156240Y152488D1*
G1X155822Y153270D1*
G1X155565Y154118D1*
G1X155478Y155000D1*
G1X104522Y155000D1*
G1X104435Y154118D1*
G1X104178Y153270D1*
G1X103760Y152488D1*
G1X103197Y151803D1*
G1X102512Y151240D1*
G1X101730Y150822D1*
G1X100882Y150565D1*
G1X100000Y150478D1*
G1X99118Y150565D1*
G1X98270Y150822D1*
G1X97488Y151240D1*
G1X96803Y151803D1*
G1X96240Y152488D1*
G1X95822Y153270D1*
G1X95565Y154118D1*
G1X95478Y155000D1*
G1X92015Y155000D1*
G1X92015Y150749D1*
G1X95132Y147632D1*
G1X95240Y147500D1*
G1X96234Y147500D1*
G1X96240Y147512D1*
G1X96803Y148197D1*
G1X97488Y148760D1*
G1X98270Y149178D1*
G1X99118Y149435D1*
G1X100000Y149522D1*
G1X100882Y149435D1*
G1X101730Y149178D1*
G1X102512Y148760D1*
G1X103197Y148197D1*
G1X103760Y147512D1*
G1X103766Y147500D1*
G37*
G36*
G1X119830Y328007D2*
G1X203981Y328007D1*
G1X203981Y330000D1*
G1X204058Y330784D1*
G1X204287Y331538D1*
G1X204658Y332233D1*
G1X205158Y332842D1*
G1X205767Y333342D1*
G1X206462Y333713D1*
G1X207216Y333942D1*
G1X208000Y334019D1*
G1X212000Y334019D1*
G1X212784Y333942D1*
G1X213538Y333713D1*
G1X214233Y333342D1*
G1X214842Y332842D1*
G1X215342Y332233D1*
G1X215713Y331538D1*
G1X215942Y330784D1*
G1X216019Y330000D1*
G1X216019Y328007D1*
G1X224977Y328007D1*
G1X225072Y328980D1*
G1X225358Y329923D1*
G1X225823Y330791D1*
G1X226447Y331553D1*
G1X227209Y332177D1*
G1X228077Y332642D1*
G1X229020Y332928D1*
G1X230000Y333024D1*
G1X230980Y332928D1*
G1X231923Y332642D1*
G1X232791Y332177D1*
G1X233553Y331553D1*
G1X234177Y330791D1*
G1X234642Y329923D1*
G1X234928Y328980D1*
G1X235023Y328007D1*
G1X305000Y328007D1*
G1X305000Y335000D1*
G1X175876Y335000D1*
G1X175713Y334462D1*
G1X175342Y333767D1*
G1X174842Y333158D1*
G1X174233Y332658D1*
G1X173538Y332287D1*
G1X172784Y332058D1*
G1X172000Y331981D1*
G1X168000Y331981D1*
G1X167216Y332058D1*
G1X166462Y332287D1*
G1X165767Y332658D1*
G1X165158Y333158D1*
G1X164658Y333767D1*
G1X164287Y334462D1*
G1X164124Y335000D1*
G1X162524Y335000D1*
G1X162428Y334020D1*
G1X162142Y333077D1*
G1X161677Y332209D1*
G1X161053Y331447D1*
G1X160291Y330823D1*
G1X159423Y330358D1*
G1X158480Y330072D1*
G1X157500Y329976D1*
G1X156520Y330072D1*
G1X155577Y330358D1*
G1X154709Y330823D1*
G1X153947Y331447D1*
G1X153323Y332209D1*
G1X152858Y333077D1*
G1X152631Y333828D1*
G1X152369Y333828D1*
G1X152142Y333077D1*
G1X151677Y332209D1*
G1X151053Y331447D1*
G1X150291Y330823D1*
G1X149423Y330358D1*
G1X148480Y330072D1*
G1X147500Y329976D1*
G1X146520Y330072D1*
G1X145577Y330358D1*
G1X144709Y330823D1*
G1X143947Y331447D1*
G1X143323Y332209D1*
G1X142858Y333077D1*
G1X142572Y334020D1*
G1X142476Y335000D1*
G1X75000Y335000D1*
G1X75000Y328007D1*
G1X110170Y328007D1*
G1X110215Y328154D1*
G1X110494Y328675D1*
G1X110868Y329132D1*
G1X111325Y329506D1*
G1X111846Y329785D1*
G1X112412Y329957D1*
G1X113000Y330015D1*
G1X114000Y330015D1*
G1X114000Y328007D1*
G1X116000Y328007D1*
G1X116000Y330015D1*
G1X117000Y330015D1*
G1X117588Y329957D1*
G1X118154Y329785D1*
G1X118675Y329506D1*
G1X119132Y329132D1*
G1X119506Y328675D1*
G1X119785Y328154D1*
G1X119830Y328007D1*
G37*
G36*
G1X175876Y335000D2*
G1X305000Y335000D1*
G1X305000Y345500D1*
G1X75000Y345500D1*
G1X75000Y335000D1*
G1X142476Y335000D1*
G1X142572Y335980D1*
G1X142858Y336923D1*
G1X143323Y337791D1*
G1X143947Y338553D1*
G1X144709Y339177D1*
G1X145577Y339642D1*
G1X146520Y339928D1*
G1X147500Y340024D1*
G1X148480Y339928D1*
G1X149423Y339642D1*
G1X150291Y339177D1*
G1X151053Y338553D1*
G1X151677Y337791D1*
G1X152142Y336923D1*
G1X152369Y336172D1*
G1X152631Y336172D1*
G1X152858Y336923D1*
G1X153323Y337791D1*
G1X153947Y338553D1*
G1X154709Y339177D1*
G1X155577Y339642D1*
G1X156520Y339928D1*
G1X157500Y340024D1*
G1X158480Y339928D1*
G1X159423Y339642D1*
G1X160291Y339177D1*
G1X161053Y338553D1*
G1X161677Y337791D1*
G1X162142Y336923D1*
G1X162428Y335980D1*
G1X162524Y335000D1*
G1X164124Y335000D1*
G1X164058Y335216D1*
G1X163981Y336000D1*
G1X163981Y340000D1*
G1X164058Y340784D1*
G1X164287Y341538D1*
G1X164658Y342233D1*
G1X165158Y342842D1*
G1X165767Y343342D1*
G1X166462Y343713D1*
G1X167216Y343942D1*
G1X168000Y344019D1*
G1X172000Y344019D1*
G1X172784Y343942D1*
G1X173538Y343713D1*
G1X174233Y343342D1*
G1X174842Y342842D1*
G1X175342Y342233D1*
G1X175713Y341538D1*
G1X175942Y340784D1*
G1X176019Y340000D1*
G1X176019Y336000D1*
G1X175942Y335216D1*
G1X175876Y335000D1*
G37*
G36*
G1X84015Y260000D2*
G1X84015Y255439D1*
G1X159327Y255439D1*
G1X159658Y255842D1*
G1X160267Y256342D1*
G1X160962Y256713D1*
G1X161500Y256877D1*
G1X161500Y255439D1*
G1X163500Y255439D1*
G1X163500Y256877D1*
G1X164038Y256713D1*
G1X164733Y256342D1*
G1X165342Y255842D1*
G1X165673Y255439D1*
G1X182000Y255439D1*
G1X182000Y257804D1*
G1X181981Y258000D1*
G1X182000Y258197D1*
G1X182000Y260000D1*
G1X184000Y262000D1*
G1X185803Y262000D1*
G1X186000Y262019D1*
G1X186197Y262000D1*
G1X188000Y262000D1*
G1X189752Y260248D1*
G1X189983Y260344D1*
G1X189983Y263000D1*
G1X150024Y263000D1*
G1X149928Y262020D1*
G1X149642Y261077D1*
G1X149177Y260209D1*
G1X148553Y259447D1*
G1X147791Y258823D1*
G1X146923Y258358D1*
G1X145980Y258072D1*
G1X145000Y257976D1*
G1X144020Y258072D1*
G1X143077Y258358D1*
G1X142209Y258823D1*
G1X141447Y259447D1*
G1X140823Y260209D1*
G1X140358Y261077D1*
G1X140131Y261828D1*
G1X139869Y261828D1*
G1X139642Y261077D1*
G1X139177Y260209D1*
G1X138553Y259447D1*
G1X137791Y258823D1*
G1X136923Y258358D1*
G1X135980Y258072D1*
G1X135000Y257976D1*
G1X134020Y258072D1*
G1X133077Y258358D1*
G1X132209Y258823D1*
G1X131447Y259447D1*
G1X130823Y260209D1*
G1X130358Y261077D1*
G1X130131Y261828D1*
G1X129869Y261828D1*
G1X129642Y261077D1*
G1X129177Y260209D1*
G1X128553Y259447D1*
G1X127791Y258823D1*
G1X126923Y258358D1*
G1X125980Y258072D1*
G1X125000Y257976D1*
G1X124020Y258072D1*
G1X123077Y258358D1*
G1X122209Y258823D1*
G1X121447Y259447D1*
G1X120823Y260209D1*
G1X120358Y261077D1*
G1X120131Y261828D1*
G1X119869Y261828D1*
G1X119642Y261077D1*
G1X119177Y260209D1*
G1X118553Y259447D1*
G1X117791Y258823D1*
G1X116923Y258358D1*
G1X115980Y258072D1*
G1X115000Y257976D1*
G1X114020Y258072D1*
G1X113077Y258358D1*
G1X112209Y258823D1*
G1X111447Y259447D1*
G1X110823Y260209D1*
G1X110358Y261077D1*
G1X110131Y261828D1*
G1X109869Y261828D1*
G1X109642Y261077D1*
G1X109177Y260209D1*
G1X108553Y259447D1*
G1X107791Y258823D1*
G1X106923Y258358D1*
G1X105980Y258072D1*
G1X105000Y257976D1*
G1X104020Y258072D1*
G1X103077Y258358D1*
G1X102209Y258823D1*
G1X101447Y259447D1*
G1X100823Y260209D1*
G1X100358Y261077D1*
G1X100131Y261828D1*
G1X99869Y261828D1*
G1X99642Y261077D1*
G1X99177Y260209D1*
G1X98553Y259447D1*
G1X97791Y258823D1*
G1X96923Y258358D1*
G1X95980Y258072D1*
G1X95000Y257976D1*
G1X94020Y258072D1*
G1X93077Y258358D1*
G1X92209Y258823D1*
G1X91447Y259447D1*
G1X90823Y260209D1*
G1X90358Y261077D1*
G1X90072Y262020D1*
G1X89976Y263000D1*
G1X82264Y263000D1*
G1X83132Y262132D1*
G1X83506Y261675D1*
G1X83785Y261154D1*
G1X83957Y260588D1*
G1X84015Y260000D1*
G37*
G36*
G1X84015Y250561D2*
G1X159327Y250561D1*
G1X159158Y250767D1*
G1X158787Y251462D1*
G1X158623Y252000D1*
G1X161500Y252000D1*
G1X161500Y250561D1*
G1X163500Y250561D1*
G1X163500Y252000D1*
G1X166377Y252000D1*
G1X166213Y251462D1*
G1X165842Y250767D1*
G1X165673Y250561D1*
G1X174377Y250561D1*
G1X174658Y250842D1*
G1X175267Y251342D1*
G1X175962Y251713D1*
G1X176716Y251942D1*
G1X177500Y252019D1*
G1X182000Y252019D1*
G1X182000Y255439D1*
G1X165673Y255439D1*
G1X165842Y255233D1*
G1X166213Y254538D1*
G1X166377Y254000D1*
G1X163500Y254000D1*
G1X163500Y255439D1*
G1X161500Y255439D1*
G1X161500Y254000D1*
G1X158623Y254000D1*
G1X158787Y254538D1*
G1X159158Y255233D1*
G1X159327Y255439D1*
G1X84015Y255439D1*
G1X84015Y250561D1*
G37*
G36*
G1X104522Y155000D2*
G1X155478Y155000D1*
G1X155565Y155882D1*
G1X155822Y156730D1*
G1X156240Y157512D1*
G1X156803Y158197D1*
G1X157488Y158760D1*
G1X158270Y159178D1*
G1X159118Y159435D1*
G1X160000Y159522D1*
G1X160882Y159435D1*
G1X161730Y159178D1*
G1X162512Y158760D1*
G1X163197Y158197D1*
G1X163760Y157512D1*
G1X164178Y156730D1*
G1X164435Y155882D1*
G1X164522Y155000D1*
G1X202500Y155000D1*
G1X212500Y165000D1*
G1X164522Y165000D1*
G1X164435Y164118D1*
G1X164178Y163270D1*
G1X163760Y162488D1*
G1X163197Y161803D1*
G1X162512Y161240D1*
G1X161730Y160822D1*
G1X160882Y160565D1*
G1X160000Y160478D1*
G1X159118Y160565D1*
G1X158270Y160822D1*
G1X157488Y161240D1*
G1X156803Y161803D1*
G1X156240Y162488D1*
G1X155822Y163270D1*
G1X155565Y164118D1*
G1X155478Y165000D1*
G1X104522Y165000D1*
G1X104435Y164118D1*
G1X104178Y163270D1*
G1X103760Y162488D1*
G1X103197Y161803D1*
G1X102512Y161240D1*
G1X101730Y160822D1*
G1X100882Y160565D1*
G1X100000Y160478D1*
G1X99118Y160565D1*
G1X98270Y160822D1*
G1X97488Y161240D1*
G1X96803Y161803D1*
G1X96240Y162488D1*
G1X95822Y163270D1*
G1X95565Y164118D1*
G1X95478Y165000D1*
G1X92015Y165000D1*
G1X92015Y155000D1*
G1X95478Y155000D1*
G1X95565Y155882D1*
G1X95822Y156730D1*
G1X96240Y157512D1*
G1X96803Y158197D1*
G1X97488Y158760D1*
G1X98270Y159178D1*
G1X99118Y159435D1*
G1X100000Y159522D1*
G1X100882Y159435D1*
G1X101730Y159178D1*
G1X102512Y158760D1*
G1X103197Y158197D1*
G1X103760Y157512D1*
G1X104178Y156730D1*
G1X104435Y155882D1*
G1X104522Y155000D1*
G37*
G36*
G1X199151Y255823D2*
G1X202259Y255823D1*
G1X202076Y256046D1*
G1X201751Y256654D1*
G1X201646Y257000D1*
G1X204000Y257000D1*
G1X204000Y255823D1*
G1X206000Y255823D1*
G1X206000Y257000D1*
G1X208354Y257000D1*
G1X208249Y256654D1*
G1X207924Y256046D1*
G1X207741Y255823D1*
G1X211061Y255823D1*
G1X210822Y256270D1*
G1X210565Y257118D1*
G1X210478Y258000D1*
G1X210565Y258882D1*
G1X210822Y259730D1*
G1X211061Y260177D1*
G1X207741Y260177D1*
G1X207924Y259954D1*
G1X208249Y259346D1*
G1X208354Y259000D1*
G1X206000Y259000D1*
G1X206000Y260177D1*
G1X204000Y260177D1*
G1X204000Y259000D1*
G1X201646Y259000D1*
G1X201751Y259346D1*
G1X202076Y259954D1*
G1X202259Y260177D1*
G1X197017Y260177D1*
G1X197017Y257957D1*
G1X199151Y255823D1*
G37*
G36*
G1X239365Y260177D2*
G1X305000Y260177D1*
G1X305000Y263000D1*
G1X197017Y263000D1*
G1X197017Y260177D1*
G1X202259Y260177D1*
G1X202513Y260487D1*
G1X203046Y260924D1*
G1X203654Y261249D1*
G1X204000Y261354D1*
G1X204000Y260177D1*
G1X206000Y260177D1*
G1X206000Y261354D1*
G1X206346Y261249D1*
G1X206954Y260924D1*
G1X207487Y260487D1*
G1X207741Y260177D1*
G1X211061Y260177D1*
G1X211240Y260512D1*
G1X211803Y261197D1*
G1X212488Y261760D1*
G1X213270Y262178D1*
G1X214118Y262435D1*
G1X215000Y262522D1*
G1X215882Y262435D1*
G1X216730Y262178D1*
G1X217512Y261760D1*
G1X218197Y261197D1*
G1X218760Y260512D1*
G1X218939Y260177D1*
G1X221061Y260177D1*
G1X221240Y260512D1*
G1X221803Y261197D1*
G1X222488Y261760D1*
G1X223270Y262178D1*
G1X224118Y262435D1*
G1X225000Y262522D1*
G1X225882Y262435D1*
G1X226730Y262178D1*
G1X227512Y261760D1*
G1X228197Y261197D1*
G1X228760Y260512D1*
G1X228939Y260177D1*
G1X230635Y260177D1*
G1X230733Y260500D1*
G1X231035Y261064D1*
G1X231441Y261559D1*
G1X231936Y261965D1*
G1X232500Y262267D1*
G1X233113Y262453D1*
G1X233750Y262516D1*
G1X236250Y262516D1*
G1X236887Y262453D1*
G1X237500Y262267D1*
G1X238064Y261965D1*
G1X238559Y261559D1*
G1X238965Y261064D1*
G1X239267Y260500D1*
G1X239365Y260177D1*
G37*
G36*
G1X218939Y255823D2*
G1X221061Y255823D1*
G1X220822Y256270D1*
G1X220565Y257118D1*
G1X220478Y258000D1*
G1X220565Y258882D1*
G1X220822Y259730D1*
G1X221061Y260177D1*
G1X218939Y260177D1*
G1X219178Y259730D1*
G1X219435Y258882D1*
G1X219522Y258000D1*
G1X219435Y257118D1*
G1X219178Y256270D1*
G1X218939Y255823D1*
G37*
G36*
G1X230484Y256750D2*
G1X230484Y259250D1*
G1X230547Y259887D1*
G1X230635Y260177D1*
G1X228939Y260177D1*
G1X229178Y259730D1*
G1X229435Y258882D1*
G1X229522Y258000D1*
G1X229435Y257118D1*
G1X229178Y256270D1*
G1X228939Y255823D1*
G1X230635Y255823D1*
G1X230547Y256113D1*
G1X230484Y256750D1*
G37*
G36*
G1X239365Y255823D2*
G1X305000Y255823D1*
G1X305000Y260177D1*
G1X239365Y260177D1*
G1X239453Y259887D1*
G1X239516Y259250D1*
G1X239516Y256750D1*
G1X239453Y256113D1*
G1X239365Y255823D1*
G37*
G36*
G1X202457Y252517D2*
G1X213500Y252517D1*
G1X214186Y252449D1*
G1X214846Y252249D1*
G1X215454Y251924D1*
G1X215987Y251487D1*
G1X219474Y248000D1*
G1X249981Y248000D1*
G1X250000Y248197D1*
G1X250000Y250000D1*
G1X252000Y252000D1*
G1X253803Y252000D1*
G1X254000Y252019D1*
G1X254197Y252000D1*
G1X256000Y252000D1*
G1X258000Y250000D1*
G1X258000Y248196D1*
G1X258019Y248000D1*
G1X267937Y248000D1*
G1X268270Y248178D1*
G1X269118Y248435D1*
G1X270000Y248522D1*
G1X270882Y248435D1*
G1X271730Y248178D1*
G1X272063Y248000D1*
G1X305000Y248000D1*
G1X305000Y255823D1*
G1X239365Y255823D1*
G1X239267Y255500D1*
G1X238965Y254936D1*
G1X238559Y254441D1*
G1X238064Y254035D1*
G1X237500Y253733D1*
G1X236887Y253547D1*
G1X236250Y253484D1*
G1X233750Y253484D1*
G1X233113Y253547D1*
G1X232500Y253733D1*
G1X231936Y254035D1*
G1X231441Y254441D1*
G1X231035Y254936D1*
G1X230733Y255500D1*
G1X230635Y255823D1*
G1X228939Y255823D1*
G1X228760Y255488D1*
G1X228197Y254803D1*
G1X227512Y254240D1*
G1X226730Y253822D1*
G1X225882Y253565D1*
G1X225000Y253478D1*
G1X224118Y253565D1*
G1X223270Y253822D1*
G1X222488Y254240D1*
G1X221803Y254803D1*
G1X221240Y255488D1*
G1X221061Y255823D1*
G1X218939Y255823D1*
G1X218760Y255488D1*
G1X218197Y254803D1*
G1X217512Y254240D1*
G1X216730Y253822D1*
G1X215882Y253565D1*
G1X215000Y253478D1*
G1X214118Y253565D1*
G1X213270Y253822D1*
G1X212488Y254240D1*
G1X211803Y254803D1*
G1X211240Y255488D1*
G1X211061Y255823D1*
G1X207741Y255823D1*
G1X207487Y255513D1*
G1X206954Y255076D1*
G1X206346Y254751D1*
G1X206000Y254646D1*
G1X206000Y255823D1*
G1X204000Y255823D1*
G1X204000Y254646D1*
G1X203654Y254751D1*
G1X203046Y255076D1*
G1X202513Y255513D1*
G1X202259Y255823D1*
G1X199151Y255823D1*
G1X202457Y252517D1*
G37*
G36*
G1X225017Y241000D2*
G1X225017Y234500D1*
G1X224949Y233814D1*
G1X224749Y233154D1*
G1X224667Y233000D1*
G1X253755Y233000D1*
G1X254000Y233024D1*
G1X254245Y233000D1*
G1X266001Y233000D1*
G1X265733Y233500D1*
G1X265547Y234113D1*
G1X265484Y234750D1*
G1X265484Y237250D1*
G1X265547Y237887D1*
G1X265733Y238500D1*
G1X266035Y239064D1*
G1X266441Y239559D1*
G1X266936Y239965D1*
G1X267274Y240146D1*
G1X267299Y240395D1*
G1X266803Y240803D1*
G1X266240Y241488D1*
G1X265822Y242270D1*
G1X265565Y243118D1*
G1X265478Y244000D1*
G1X265565Y244882D1*
G1X265822Y245730D1*
G1X266240Y246512D1*
G1X266803Y247197D1*
G1X267488Y247760D1*
G1X267937Y248000D1*
G1X258019Y248000D1*
G1X258000Y247804D1*
G1X258000Y246000D1*
G1X256000Y244000D1*
G1X254196Y244000D1*
G1X254000Y243981D1*
G1X253804Y244000D1*
G1X252000Y244000D1*
G1X250000Y246000D1*
G1X250000Y247803D1*
G1X249981Y248000D1*
G1X219474Y248000D1*
G1X223987Y243487D1*
G1X224424Y242954D1*
G1X224749Y242346D1*
G1X224949Y241686D1*
G1X225017Y241000D1*
G37*
G36*
G1X272512Y247760D2*
G1X273197Y247197D1*
G1X273760Y246512D1*
G1X274178Y245730D1*
G1X274435Y244882D1*
G1X274522Y244000D1*
G1X274435Y243118D1*
G1X274178Y242270D1*
G1X273760Y241488D1*
G1X273197Y240803D1*
G1X272701Y240395D1*
G1X272726Y240146D1*
G1X273064Y239965D1*
G1X273559Y239559D1*
G1X273965Y239064D1*
G1X274267Y238500D1*
G1X274453Y237887D1*
G1X274516Y237250D1*
G1X274516Y234750D1*
G1X274453Y234113D1*
G1X274267Y233500D1*
G1X273999Y233000D1*
G1X303000Y233000D1*
G1X305000Y235000D1*
G1X305000Y248000D1*
G1X272063Y248000D1*
G1X272512Y247760D1*
G37*
G36*
G1X104522Y165000D2*
G1X155478Y165000D1*
G1X155565Y165882D1*
G1X155822Y166730D1*
G1X156240Y167512D1*
G1X156803Y168197D1*
G1X157488Y168760D1*
G1X158270Y169178D1*
G1X159118Y169435D1*
G1X160000Y169522D1*
G1X160882Y169435D1*
G1X161730Y169178D1*
G1X162512Y168760D1*
G1X163197Y168197D1*
G1X163760Y167512D1*
G1X164178Y166730D1*
G1X164435Y165882D1*
G1X164522Y165000D1*
G1X212500Y165000D1*
G1X222500Y175000D1*
G1X164522Y175000D1*
G1X164435Y174118D1*
G1X164178Y173270D1*
G1X163760Y172488D1*
G1X163197Y171803D1*
G1X162512Y171240D1*
G1X161730Y170822D1*
G1X160882Y170565D1*
G1X160000Y170478D1*
G1X159118Y170565D1*
G1X158270Y170822D1*
G1X157488Y171240D1*
G1X156803Y171803D1*
G1X156240Y172488D1*
G1X155822Y173270D1*
G1X155565Y174118D1*
G1X155478Y175000D1*
G1X104522Y175000D1*
G1X104435Y174118D1*
G1X104178Y173270D1*
G1X103760Y172488D1*
G1X103197Y171803D1*
G1X102512Y171240D1*
G1X101730Y170822D1*
G1X100882Y170565D1*
G1X100000Y170478D1*
G1X99118Y170565D1*
G1X98270Y170822D1*
G1X97488Y171240D1*
G1X96803Y171803D1*
G1X96240Y172488D1*
G1X95822Y173270D1*
G1X95565Y174118D1*
G1X95478Y175000D1*
G1X92015Y175000D1*
G1X92015Y165000D1*
G1X95478Y165000D1*
G1X95565Y165882D1*
G1X95822Y166730D1*
G1X96240Y167512D1*
G1X96803Y168197D1*
G1X97488Y168760D1*
G1X98270Y169178D1*
G1X99118Y169435D1*
G1X100000Y169522D1*
G1X100882Y169435D1*
G1X101730Y169178D1*
G1X102512Y168760D1*
G1X103197Y168197D1*
G1X103760Y167512D1*
G1X104178Y166730D1*
G1X104435Y165882D1*
G1X104522Y165000D1*
G37*
G36*
G1X128015Y229006D2*
G1X128015Y212740D1*
G1X137996Y212740D1*
G1X132868Y217868D1*
G1X132494Y218325D1*
G1X132215Y218846D1*
G1X132043Y219412D1*
G1X131985Y220000D1*
G1X131985Y229006D1*
G1X131447Y229447D1*
G1X130823Y230209D1*
G1X130358Y231077D1*
G1X130131Y231828D1*
G1X129869Y231828D1*
G1X129642Y231077D1*
G1X129177Y230209D1*
G1X128553Y229447D1*
G1X128015Y229006D1*
G37*
G36*
G1X88015Y222000D2*
G1X88015Y217259D1*
G1X96733Y217259D1*
G1X96785Y217385D1*
G1X97145Y217855D1*
G1X97615Y218215D1*
G1X98163Y218442D1*
G1X98750Y218519D1*
G1X99000Y218519D1*
G1X99000Y217259D1*
G1X101000Y217259D1*
G1X101000Y218519D1*
G1X101250Y218519D1*
G1X101837Y218442D1*
G1X102385Y218215D1*
G1X102855Y217855D1*
G1X103215Y217385D1*
G1X103267Y217259D1*
G1X111985Y217259D1*
G1X111985Y229006D1*
G1X111447Y229447D1*
G1X110823Y230209D1*
G1X110358Y231077D1*
G1X110072Y232020D1*
G1X109976Y233000D1*
G1X109019Y233000D1*
G1X109000Y232804D1*
G1X109000Y231000D1*
G1X107000Y229000D1*
G1X105196Y229000D1*
G1X105000Y228981D1*
G1X104804Y229000D1*
G1X103000Y229000D1*
G1X101000Y231000D1*
G1X101000Y232803D1*
G1X100981Y233000D1*
G1X99019Y233000D1*
G1X99000Y232804D1*
G1X99000Y231000D1*
G1X97000Y229000D1*
G1X95196Y229000D1*
G1X95000Y228981D1*
G1X94804Y229000D1*
G1X93000Y229000D1*
G1X91000Y231000D1*
G1X91000Y232803D1*
G1X90981Y233000D1*
G1X84015Y233000D1*
G1X84015Y227249D1*
G1X87132Y224132D1*
G1X87506Y223675D1*
G1X87785Y223154D1*
G1X87957Y222588D1*
G1X88015Y222000D1*
G37*
G36*
G1X88015Y212740D2*
G1X96733Y212740D1*
G1X96558Y213163D1*
G1X96481Y213750D1*
G1X96481Y214000D1*
G1X99000Y214000D1*
G1X99000Y212740D1*
G1X101000Y212740D1*
G1X101000Y214000D1*
G1X103519Y214000D1*
G1X103519Y213750D1*
G1X103442Y213163D1*
G1X103267Y212740D1*
G1X111985Y212740D1*
G1X111985Y217259D1*
G1X103267Y217259D1*
G1X103442Y216837D1*
G1X103519Y216250D1*
G1X103519Y216000D1*
G1X101000Y216000D1*
G1X101000Y217259D1*
G1X99000Y217259D1*
G1X99000Y216000D1*
G1X96481Y216000D1*
G1X96481Y216250D1*
G1X96558Y216837D1*
G1X96733Y217259D1*
G1X88015Y217259D1*
G1X88015Y212740D1*
G37*
G36*
G1X104616Y203879D2*
G1X111985Y211249D1*
G1X111985Y212740D1*
G1X103267Y212740D1*
G1X103215Y212615D1*
G1X102855Y212145D1*
G1X102385Y211785D1*
G1X101837Y211558D1*
G1X101250Y211481D1*
G1X101000Y211481D1*
G1X101000Y212740D1*
G1X99000Y212740D1*
G1X99000Y211481D1*
G1X98750Y211481D1*
G1X98163Y211558D1*
G1X97615Y211785D1*
G1X97145Y212145D1*
G1X96785Y212615D1*
G1X96733Y212740D1*
G1X88015Y212740D1*
G1X88015Y189249D1*
G1X91132Y186132D1*
G1X91506Y185675D1*
G1X91785Y185154D1*
G1X91832Y185000D1*
G1X95478Y185000D1*
G1X95565Y185882D1*
G1X95822Y186730D1*
G1X96240Y187512D1*
G1X96803Y188197D1*
G1X97488Y188760D1*
G1X98270Y189178D1*
G1X99118Y189435D1*
G1X100000Y189522D1*
G1X100235Y189499D1*
G1X101121Y190384D1*
G1X100992Y190599D1*
G1X100882Y190565D1*
G1X100000Y190478D1*
G1X99118Y190565D1*
G1X98270Y190822D1*
G1X97488Y191240D1*
G1X96803Y191803D1*
G1X96240Y192488D1*
G1X95822Y193270D1*
G1X95565Y194118D1*
G1X95478Y195000D1*
G1X95565Y195882D1*
G1X95822Y196730D1*
G1X96240Y197512D1*
G1X96803Y198197D1*
G1X97488Y198760D1*
G1X98270Y199178D1*
G1X99118Y199435D1*
G1X100000Y199522D1*
G1X100235Y199499D1*
G1X101121Y200384D1*
G1X100992Y200599D1*
G1X100882Y200565D1*
G1X100000Y200478D1*
G1X99118Y200565D1*
G1X98270Y200822D1*
G1X97488Y201240D1*
G1X96803Y201803D1*
G1X96240Y202488D1*
G1X95822Y203270D1*
G1X95565Y204118D1*
G1X95478Y205000D1*
G1X95565Y205882D1*
G1X95822Y206730D1*
G1X96240Y207512D1*
G1X96803Y208197D1*
G1X97488Y208760D1*
G1X98270Y209178D1*
G1X99118Y209435D1*
G1X100000Y209522D1*
G1X100882Y209435D1*
G1X101730Y209178D1*
G1X102512Y208760D1*
G1X103197Y208197D1*
G1X103760Y207512D1*
G1X104178Y206730D1*
G1X104435Y205882D1*
G1X104522Y205000D1*
G1X104435Y204118D1*
G1X104401Y204008D1*
G1X104616Y203879D1*
G37*
G36*
G1X91957Y184588D2*
G1X92015Y184000D1*
G1X92015Y175000D1*
G1X95478Y175000D1*
G1X95565Y175882D1*
G1X95822Y176730D1*
G1X96240Y177512D1*
G1X96803Y178197D1*
G1X97488Y178760D1*
G1X98270Y179178D1*
G1X99118Y179435D1*
G1X100000Y179522D1*
G1X100882Y179435D1*
G1X101730Y179178D1*
G1X102512Y178760D1*
G1X103197Y178197D1*
G1X103760Y177512D1*
G1X104178Y176730D1*
G1X104435Y175882D1*
G1X104522Y175000D1*
G1X155478Y175000D1*
G1X155565Y175882D1*
G1X155822Y176730D1*
G1X156240Y177512D1*
G1X156803Y178197D1*
G1X157488Y178760D1*
G1X158270Y179178D1*
G1X159118Y179435D1*
G1X160000Y179522D1*
G1X160882Y179435D1*
G1X161730Y179178D1*
G1X162512Y178760D1*
G1X163197Y178197D1*
G1X163760Y177512D1*
G1X164178Y176730D1*
G1X164435Y175882D1*
G1X164522Y175000D1*
G1X222500Y175000D1*
G1X232500Y185000D1*
G1X164522Y185000D1*
G1X164435Y184118D1*
G1X164178Y183270D1*
G1X163760Y182488D1*
G1X163197Y181803D1*
G1X162512Y181240D1*
G1X161730Y180822D1*
G1X160882Y180565D1*
G1X160000Y180478D1*
G1X159118Y180565D1*
G1X158270Y180822D1*
G1X157488Y181240D1*
G1X156803Y181803D1*
G1X156240Y182488D1*
G1X155822Y183270D1*
G1X155565Y184118D1*
G1X155478Y185000D1*
G1X104522Y185000D1*
G1X104435Y184118D1*
G1X104178Y183270D1*
G1X103760Y182488D1*
G1X103197Y181803D1*
G1X102512Y181240D1*
G1X101730Y180822D1*
G1X100882Y180565D1*
G1X100000Y180478D1*
G1X99118Y180565D1*
G1X98270Y180822D1*
G1X97488Y181240D1*
G1X96803Y181803D1*
G1X96240Y182488D1*
G1X95822Y183270D1*
G1X95565Y184118D1*
G1X95478Y185000D1*
G1X91832Y185000D1*
G1X91957Y184588D1*
G37*
G36*
G1X104522Y185000D2*
G1X155478Y185000D1*
G1X155565Y185882D1*
G1X155822Y186730D1*
G1X156240Y187512D1*
G1X156803Y188197D1*
G1X157488Y188760D1*
G1X158270Y189178D1*
G1X159118Y189435D1*
G1X160000Y189522D1*
G1X160882Y189435D1*
G1X161730Y189178D1*
G1X162512Y188760D1*
G1X163197Y188197D1*
G1X163760Y187512D1*
G1X164178Y186730D1*
G1X164435Y185882D1*
G1X164522Y185000D1*
G1X232500Y185000D1*
G1X237500Y190000D1*
G1X260000Y190000D1*
G1X282740Y212740D1*
G1X255358Y212740D1*
G1X255363Y212732D1*
G1X255724Y211860D1*
G1X255944Y210941D1*
G1X256019Y210000D1*
G1X255944Y209059D1*
G1X255724Y208140D1*
G1X255363Y207268D1*
G1X254869Y206462D1*
G1X254256Y205744D1*
G1X253538Y205131D1*
G1X252732Y204637D1*
G1X251860Y204276D1*
G1X250941Y204056D1*
G1X250000Y203981D1*
G1X249059Y204056D1*
G1X248140Y204276D1*
G1X247268Y204637D1*
G1X246462Y205131D1*
G1X245744Y205744D1*
G1X245131Y206462D1*
G1X244637Y207268D1*
G1X244276Y208140D1*
G1X244056Y209059D1*
G1X243981Y210000D1*
G1X244056Y210941D1*
G1X244276Y211860D1*
G1X244637Y212732D1*
G1X244642Y212740D1*
G1X210358Y212740D1*
G1X210363Y212732D1*
G1X210724Y211860D1*
G1X210944Y210941D1*
G1X211019Y210000D1*
G1X210944Y209059D1*
G1X210724Y208140D1*
G1X210363Y207268D1*
G1X209869Y206462D1*
G1X209256Y205744D1*
G1X208538Y205131D1*
G1X207732Y204637D1*
G1X206860Y204276D1*
G1X205941Y204056D1*
G1X205000Y203981D1*
G1X204059Y204056D1*
G1X203140Y204276D1*
G1X202268Y204637D1*
G1X201462Y205131D1*
G1X200744Y205744D1*
G1X200131Y206462D1*
G1X199637Y207268D1*
G1X199276Y208140D1*
G1X199056Y209059D1*
G1X198981Y210000D1*
G1X199056Y210941D1*
G1X199276Y211860D1*
G1X199637Y212732D1*
G1X199642Y212740D1*
G1X163895Y212740D1*
G1X163760Y212488D1*
G1X163197Y211803D1*
G1X162512Y211240D1*
G1X161730Y210822D1*
G1X160882Y210565D1*
G1X160000Y210478D1*
G1X159118Y210565D1*
G1X158270Y210822D1*
G1X157488Y211240D1*
G1X156803Y211803D1*
G1X156240Y212488D1*
G1X156105Y212740D1*
G1X146523Y212740D1*
G1X155384Y203879D1*
G1X155599Y204008D1*
G1X155565Y204118D1*
G1X155478Y205000D1*
G1X155565Y205882D1*
G1X155822Y206730D1*
G1X156240Y207512D1*
G1X156803Y208197D1*
G1X157488Y208760D1*
G1X158270Y209178D1*
G1X159118Y209435D1*
G1X160000Y209522D1*
G1X160882Y209435D1*
G1X161730Y209178D1*
G1X162512Y208760D1*
G1X163197Y208197D1*
G1X163760Y207512D1*
G1X164178Y206730D1*
G1X164435Y205882D1*
G1X164522Y205000D1*
G1X164435Y204118D1*
G1X164178Y203270D1*
G1X163760Y202488D1*
G1X163197Y201803D1*
G1X162512Y201240D1*
G1X161730Y200822D1*
G1X160882Y200565D1*
G1X160000Y200478D1*
G1X159118Y200565D1*
G1X159008Y200599D1*
G1X158879Y200384D1*
G1X159765Y199499D1*
G1X160000Y199522D1*
G1X160882Y199435D1*
G1X161730Y199178D1*
G1X162512Y198760D1*
G1X163197Y198197D1*
G1X163760Y197512D1*
G1X164178Y196730D1*
G1X164435Y195882D1*
G1X164522Y195000D1*
G1X164435Y194118D1*
G1X164178Y193270D1*
G1X163760Y192488D1*
G1X163197Y191803D1*
G1X162512Y191240D1*
G1X161730Y190822D1*
G1X160882Y190565D1*
G1X160000Y190478D1*
G1X159118Y190565D1*
G1X158270Y190822D1*
G1X157488Y191240D1*
G1X156803Y191803D1*
G1X156240Y192488D1*
G1X155822Y193270D1*
G1X155565Y194118D1*
G1X155478Y195000D1*
G1X155501Y195235D1*
G1X137996Y212740D1*
G1X128015Y212740D1*
G1X128015Y210000D1*
G1X127957Y209412D1*
G1X127785Y208846D1*
G1X127506Y208325D1*
G1X127132Y207868D1*
G1X104499Y185235D1*
G1X104522Y185000D1*
G37*
G36*
G1X163895Y212740D2*
G1X199642Y212740D1*
G1X200131Y213538D1*
G1X200744Y214256D1*
G1X201462Y214869D1*
G1X202268Y215363D1*
G1X203140Y215724D1*
G1X204059Y215944D1*
G1X205000Y216019D1*
G1X205941Y215944D1*
G1X206860Y215724D1*
G1X207732Y215363D1*
G1X208538Y214869D1*
G1X209256Y214256D1*
G1X209869Y213538D1*
G1X210358Y212740D1*
G1X244642Y212740D1*
G1X245131Y213538D1*
G1X245744Y214256D1*
G1X246462Y214869D1*
G1X247268Y215363D1*
G1X248140Y215724D1*
G1X249059Y215944D1*
G1X250000Y216019D1*
G1X250941Y215944D1*
G1X251860Y215724D1*
G1X252732Y215363D1*
G1X253538Y214869D1*
G1X254256Y214256D1*
G1X254869Y213538D1*
G1X255358Y212740D1*
G1X282740Y212740D1*
G1X298000Y228000D1*
G1X259024Y228000D1*
G1X258928Y227020D1*
G1X258642Y226077D1*
G1X258177Y225209D1*
G1X257553Y224447D1*
G1X256791Y223823D1*
G1X255923Y223358D1*
G1X254980Y223072D1*
G1X254000Y222976D1*
G1X253020Y223072D1*
G1X252077Y223358D1*
G1X251209Y223823D1*
G1X250447Y224447D1*
G1X249823Y225209D1*
G1X249358Y226077D1*
G1X249072Y227020D1*
G1X248976Y228000D1*
G1X239522Y228000D1*
G1X239435Y227118D1*
G1X239178Y226270D1*
G1X238760Y225488D1*
G1X238197Y224803D1*
G1X237512Y224240D1*
G1X236730Y223822D1*
G1X235882Y223565D1*
G1X235000Y223478D1*
G1X234118Y223565D1*
G1X233270Y223822D1*
G1X232488Y224240D1*
G1X231803Y224803D1*
G1X231240Y225488D1*
G1X230822Y226270D1*
G1X230565Y227118D1*
G1X230478Y228000D1*
G1X229522Y228000D1*
G1X229435Y227118D1*
G1X229178Y226270D1*
G1X228760Y225488D1*
G1X228197Y224803D1*
G1X227512Y224240D1*
G1X226730Y223822D1*
G1X225882Y223565D1*
G1X225501Y223528D1*
G1X220487Y218513D1*
G1X219954Y218076D1*
G1X219346Y217751D1*
G1X218686Y217551D1*
G1X218000Y217483D1*
G1X181000Y217483D1*
G1X180314Y217551D1*
G1X179654Y217751D1*
G1X179046Y218076D1*
G1X178513Y218513D1*
G1X175513Y221513D1*
G1X175076Y222046D1*
G1X174751Y222654D1*
G1X174551Y223314D1*
G1X174483Y224000D1*
G1X174483Y224406D1*
G1X174441Y224441D1*
G1X174035Y224936D1*
G1X173733Y225500D1*
G1X173547Y226113D1*
G1X173484Y226750D1*
G1X173484Y228000D1*
G1X162745Y228000D1*
G1X162500Y227976D1*
G1X162255Y228000D1*
G1X145245Y228000D1*
G1X145000Y227976D1*
G1X144755Y228000D1*
G1X138015Y228000D1*
G1X138015Y221249D1*
G1X146523Y212740D1*
G1X156105Y212740D1*
G1X155822Y213270D1*
G1X155565Y214118D1*
G1X155478Y215000D1*
G1X155565Y215882D1*
G1X155822Y216730D1*
G1X156240Y217512D1*
G1X156803Y218197D1*
G1X157488Y218760D1*
G1X158270Y219178D1*
G1X159118Y219435D1*
G1X160000Y219522D1*
G1X160882Y219435D1*
G1X161730Y219178D1*
G1X162512Y218760D1*
G1X163197Y218197D1*
G1X163760Y217512D1*
G1X164178Y216730D1*
G1X164435Y215882D1*
G1X164522Y215000D1*
G1X164435Y214118D1*
G1X164178Y213270D1*
G1X163895Y212740D1*
G37*
G36*
G1X138015Y228000D2*
G1X144755Y228000D1*
G1X144020Y228072D1*
G1X143077Y228358D1*
G1X142209Y228823D1*
G1X141447Y229447D1*
G1X141006Y229985D1*
G1X138994Y229985D1*
G1X138553Y229447D1*
G1X138015Y229006D1*
G1X138015Y228000D1*
G37*
G36*
G1X145245Y228000D2*
G1X162255Y228000D1*
G1X161520Y228072D1*
G1X160577Y228358D1*
G1X159709Y228823D1*
G1X158947Y229447D1*
G1X158323Y230209D1*
G1X157858Y231077D1*
G1X157572Y232020D1*
G1X157476Y233000D1*
G1X150024Y233000D1*
G1X149928Y232020D1*
G1X149642Y231077D1*
G1X149177Y230209D1*
G1X148553Y229447D1*
G1X147791Y228823D1*
G1X146923Y228358D1*
G1X145980Y228072D1*
G1X145245Y228000D1*
G37*
G36*
G1X162745Y228000D2*
G1X173484Y228000D1*
G1X173484Y229250D1*
G1X173547Y229887D1*
G1X173733Y230500D1*
G1X174035Y231064D1*
G1X174441Y231559D1*
G1X174936Y231965D1*
G1X175500Y232267D1*
G1X176113Y232453D1*
G1X176750Y232516D1*
G1X179250Y232516D1*
G1X179887Y232453D1*
G1X180500Y232267D1*
G1X181064Y231965D1*
G1X181559Y231559D1*
G1X181965Y231064D1*
G1X182267Y230500D1*
G1X182453Y229887D1*
G1X182460Y229814D1*
G1X182721Y229721D1*
G1X184500Y231500D1*
G1X185828Y231500D1*
G1X186000Y231517D1*
G1X186172Y231500D1*
G1X187500Y231500D1*
G1X189500Y229500D1*
G1X189500Y228172D1*
G1X189517Y228000D1*
G1X200478Y228000D1*
G1X200565Y228882D1*
G1X200822Y229730D1*
G1X201240Y230512D1*
G1X201803Y231197D1*
G1X202488Y231760D1*
G1X203270Y232178D1*
G1X203453Y232233D1*
G1X203415Y232483D1*
G1X188000Y232483D1*
G1X187314Y232551D1*
G1X186654Y232751D1*
G1X186197Y232995D1*
G1X186000Y232976D1*
G1X185755Y233000D1*
G1X168184Y233000D1*
G1X167452Y232268D1*
G1X167428Y232020D1*
G1X167142Y231077D1*
G1X166677Y230209D1*
G1X166053Y229447D1*
G1X165291Y228823D1*
G1X164423Y228358D1*
G1X163480Y228072D1*
G1X162745Y228000D1*
G37*
G36*
G1X187844Y224517D2*
G1X201780Y224517D1*
G1X201864Y224752D1*
G1X201803Y224803D1*
G1X201240Y225488D1*
G1X200822Y226270D1*
G1X200565Y227118D1*
G1X200478Y228000D1*
G1X189517Y228000D1*
G1X189500Y227828D1*
G1X189500Y226500D1*
G1X187748Y224748D1*
G1X187844Y224517D1*
G37*
G36*
G1X225000Y232522D2*
G1X225882Y232435D1*
G1X226730Y232178D1*
G1X227512Y231760D1*
G1X228197Y231197D1*
G1X228760Y230512D1*
G1X229178Y229730D1*
G1X229435Y228882D1*
G1X229522Y228000D1*
G1X230478Y228000D1*
G1X230565Y228882D1*
G1X230822Y229730D1*
G1X231240Y230512D1*
G1X231803Y231197D1*
G1X232488Y231760D1*
G1X233270Y232178D1*
G1X234118Y232435D1*
G1X235000Y232522D1*
G1X235882Y232435D1*
G1X236730Y232178D1*
G1X237512Y231760D1*
G1X238197Y231197D1*
G1X238760Y230512D1*
G1X239178Y229730D1*
G1X239435Y228882D1*
G1X239522Y228000D1*
G1X248976Y228000D1*
G1X249072Y228980D1*
G1X249358Y229923D1*
G1X249823Y230791D1*
G1X250447Y231553D1*
G1X251209Y232177D1*
G1X252077Y232642D1*
G1X253020Y232928D1*
G1X253755Y233000D1*
G1X224667Y233000D1*
G1X224520Y232726D1*
G1X224678Y232490D1*
G1X225000Y232522D1*
G37*
G36*
G1X254980Y232928D2*
G1X255923Y232642D1*
G1X256791Y232177D1*
G1X257553Y231553D1*
G1X258177Y230791D1*
G1X258642Y229923D1*
G1X258928Y228980D1*
G1X259024Y228000D1*
G1X298000Y228000D1*
G1X303000Y233000D1*
G1X273999Y233000D1*
G1X273965Y232936D1*
G1X273559Y232441D1*
G1X273064Y232035D1*
G1X272500Y231733D1*
G1X271887Y231547D1*
G1X271250Y231484D1*
G1X268750Y231484D1*
G1X268113Y231547D1*
G1X267500Y231733D1*
G1X266936Y232035D1*
G1X266441Y232441D1*
G1X266035Y232936D1*
G1X266001Y233000D1*
G1X254245Y233000D1*
G1X254980Y232928D1*
G37*
G54D34*
G1X115000Y17000D3*
G1X125000Y17000D3*
G54D15*
G1X240000Y185000D3*
G1X245000Y180000D3*
G1X252500Y185000D3*
G1X262500Y130000D3*
G1X262500Y175000D3*
G1X267500Y140000D3*
G1X270000Y170000D3*
G54D34*
G1X275000Y21000D3*
G54D15*
G1X275000Y140000D3*
G54D34*
G1X285000Y21000D3*
G1X285000Y180000D3*
G1X305000Y180000D3*
G54D15*
G1X310000Y27500D3*
G1X320000Y32500D3*
G1X327500Y127500D3*
G1X327500Y165000D3*
G1X327500Y172500D3*
G1X338500Y142500D3*
G1X338500Y172500D3*
G54D34*
G1X340000Y225000D3*
G1X341000Y9500D3*
G54D15*
G1X342500Y115000D3*
G1X344000Y125500D3*
G1X344000Y160000D3*
G1X345000Y267500D3*
G1X346500Y136000D3*
G1X347500Y150000D3*
G1X350000Y37500D3*
G1X350000Y190000D3*
M2*
