*
%LPD*%
%LNBOTTOMOVERLAY*%
%FSLAX25Y25*%
%MOIN*%
%AD*%
%AD*%
%ADD11C,0.002*%
%ADD13C,0.01*%
%ADD14C,0.004*%
%ADD18R,0.05X0.04*%
%ADD19R,0.2X0.015*%
G54D11*
%SRX1Y1I0.0J0.0*%
G1X362500Y39000D2*
G1X362500Y42000D1*
G1X362500Y39000D2*
G1X435000Y39000D1*
G1X362500Y42000D2*
G1X435000Y42000D1*
G1X362500Y49000D2*
G1X362500Y52000D1*
G1X362500Y49000D2*
G1X435000Y49000D1*
G1X362500Y52000D2*
G1X435000Y52000D1*
G1X362500Y59000D2*
G1X362500Y62000D1*
G1X362500Y59000D2*
G1X435000Y59000D1*
G1X362500Y62000D2*
G1X435000Y62000D1*
G1X362500Y69000D2*
G1X362500Y72000D1*
G1X362500Y69000D2*
G1X435000Y69000D1*
G1X362500Y72000D2*
G1X435000Y72000D1*
G1X362500Y89000D2*
G1X362500Y92000D1*
G1X362500Y89000D2*
G1X435000Y89000D1*
G1X362500Y92000D2*
G1X435000Y92000D1*
G1X362500Y99000D2*
G1X362500Y102000D1*
G1X362500Y99000D2*
G1X435000Y99000D1*
G1X362500Y102000D2*
G1X435000Y102000D1*
G1X362500Y109000D2*
G1X362500Y112000D1*
G1X362500Y109000D2*
G1X435000Y109000D1*
G1X362500Y112000D2*
G1X435000Y112000D1*
G1X362500Y119000D2*
G1X362500Y122000D1*
G1X362500Y119000D2*
G1X435000Y119000D1*
G1X362500Y122000D2*
G1X435000Y122000D1*
G1X362500Y129000D2*
G1X362500Y132000D1*
G1X362500Y129000D2*
G1X435000Y129000D1*
G1X362500Y132000D2*
G1X435000Y132000D1*
G1X362500Y139000D2*
G1X362500Y142000D1*
G1X362500Y139000D2*
G1X435000Y139000D1*
G1X362500Y142000D2*
G1X435000Y142000D1*
G1X362500Y149000D2*
G1X362500Y152000D1*
G1X362500Y149000D2*
G1X435000Y149000D1*
G1X362500Y152000D2*
G1X435000Y152000D1*
G1X362500Y159000D2*
G1X362500Y162000D1*
G1X362500Y159000D2*
G1X435000Y159000D1*
G1X362500Y162000D2*
G1X435000Y162000D1*
G1X362500Y169000D2*
G1X362500Y172000D1*
G1X362500Y169000D2*
G1X435000Y169000D1*
G1X362500Y172000D2*
G1X435000Y172000D1*
G1X362500Y179000D2*
G1X362500Y182000D1*
G1X362500Y179000D2*
G1X435000Y179000D1*
G1X362500Y182000D2*
G1X435000Y182000D1*
G1X362500Y189000D2*
G1X362500Y192000D1*
G1X362500Y189000D2*
G1X435000Y189000D1*
G1X362500Y192000D2*
G1X435000Y192000D1*
G1X362500Y199000D2*
G1X362500Y202000D1*
G1X362500Y199000D2*
G1X435000Y199000D1*
G1X362500Y202000D2*
G1X435000Y202000D1*
G1X362500Y209000D2*
G1X362500Y212000D1*
G1X362500Y209000D2*
G1X435000Y209000D1*
G1X362500Y212000D2*
G1X435000Y212000D1*
G1X362500Y219000D2*
G1X362500Y222000D1*
G1X362500Y219000D2*
G1X435000Y219000D1*
G1X362500Y222000D2*
G1X435000Y222000D1*
G1X362500Y229000D2*
G1X362500Y232000D1*
G1X362500Y229000D2*
G1X435000Y229000D1*
G1X362500Y232000D2*
G1X435000Y232000D1*
G1X362500Y239000D2*
G1X362500Y242000D1*
G1X362500Y239000D2*
G1X435000Y239000D1*
G1X362500Y242000D2*
G1X435000Y242000D1*
G1X362500Y249000D2*
G1X362500Y252000D1*
G1X362500Y249000D2*
G1X435000Y249000D1*
G1X362500Y252000D2*
G1X435000Y252000D1*
G1X362500Y259000D2*
G1X362500Y262000D1*
G1X362500Y259000D2*
G1X435000Y259000D1*
G1X362500Y262000D2*
G1X435000Y262000D1*
G1X362500Y269000D2*
G1X362500Y272000D1*
G1X362500Y269000D2*
G1X435000Y269000D1*
G1X362500Y272000D2*
G1X435000Y272000D1*
G1X362500Y279000D2*
G1X362500Y282000D1*
G1X362500Y279000D2*
G1X435000Y279000D1*
G1X362500Y282000D2*
G1X435000Y282000D1*
G1X362500Y289000D2*
G1X362500Y292000D1*
G1X362500Y289000D2*
G1X435000Y289000D1*
G1X362500Y292000D2*
G1X435000Y292000D1*
G1X362500Y299000D2*
G1X362500Y302000D1*
G1X362500Y299000D2*
G1X435000Y299000D1*
G1X362500Y302000D2*
G1X435000Y302000D1*
G1X362500Y309000D2*
G1X362500Y312000D1*
G1X362500Y309000D2*
G1X435000Y309000D1*
G1X362500Y312000D2*
G1X435000Y312000D1*
G1X372500Y39000D2*
G1X372500Y42000D1*
G1X372500Y49000D2*
G1X372500Y52000D1*
G1X372500Y59000D2*
G1X372500Y62000D1*
G1X372500Y69000D2*
G1X372500Y72000D1*
G1X372500Y89000D2*
G1X372500Y92000D1*
G1X372500Y99000D2*
G1X372500Y102000D1*
G1X372500Y109000D2*
G1X372500Y112000D1*
G1X372500Y119000D2*
G1X372500Y122000D1*
G1X372500Y129000D2*
G1X372500Y132000D1*
G1X372500Y139000D2*
G1X372500Y142000D1*
G1X372500Y149000D2*
G1X372500Y152000D1*
G1X372500Y159000D2*
G1X372500Y162000D1*
G1X372500Y169000D2*
G1X372500Y172000D1*
G1X372500Y179000D2*
G1X372500Y182000D1*
G1X372500Y189000D2*
G1X372500Y192000D1*
G1X372500Y199000D2*
G1X372500Y202000D1*
G1X372500Y209000D2*
G1X372500Y212000D1*
G1X372500Y219000D2*
G1X372500Y222000D1*
G1X372500Y229000D2*
G1X372500Y232000D1*
G1X372500Y239000D2*
G1X372500Y242000D1*
G1X372500Y249000D2*
G1X372500Y252000D1*
G1X372500Y259000D2*
G1X372500Y262000D1*
G1X372500Y269000D2*
G1X372500Y272000D1*
G1X372500Y279000D2*
G1X372500Y282000D1*
G1X372500Y289000D2*
G1X372500Y292000D1*
G1X372500Y299000D2*
G1X372500Y302000D1*
G1X372500Y309000D2*
G1X372500Y312000D1*
G1X380000Y33500D2*
G54D14*
G1X380000Y317500D1*
G1X380000Y33500D2*
G1X382500Y33500D1*
G1X380000Y317500D2*
G1X382500Y317500D1*
G1X382500Y33500D2*
G54D13*
G1X382500Y317500D1*
G1X382500Y33500D2*
G1X437500Y33500D1*
G1X382500Y317500D2*
G1X437500Y317500D1*
G1X402500Y33500D2*
G54D14*
G1X402500Y317500D1*
G1X402500Y37500D2*
G1X437500Y37500D1*
G1X402500Y43500D2*
G1X437500Y43500D1*
G1X402500Y47500D2*
G1X437500Y47500D1*
G1X402500Y53500D2*
G1X437500Y53500D1*
G1X402500Y57500D2*
G1X437500Y57500D1*
G1X402500Y63500D2*
G1X437500Y63500D1*
G1X402500Y67500D2*
G1X437500Y67500D1*
G1X402500Y73500D2*
G1X437500Y73500D1*
G1X402500Y77500D2*
G1X437500Y77500D1*
G1X402500Y83500D2*
G1X437500Y83500D1*
G1X402500Y87500D2*
G1X437500Y87500D1*
G1X402500Y93500D2*
G1X437500Y93500D1*
G1X402500Y97500D2*
G1X437500Y97500D1*
G1X402500Y103500D2*
G1X437500Y103500D1*
G1X402500Y107500D2*
G1X437500Y107500D1*
G1X402500Y113500D2*
G1X437500Y113500D1*
G1X402500Y117500D2*
G1X437500Y117500D1*
G1X402500Y123500D2*
G1X437500Y123500D1*
G1X402500Y127500D2*
G1X437500Y127500D1*
G1X402500Y133500D2*
G1X437500Y133500D1*
G1X402500Y137500D2*
G1X437500Y137500D1*
G1X402500Y143500D2*
G1X437500Y143500D1*
G1X402500Y147500D2*
G1X437500Y147500D1*
G1X402500Y153500D2*
G1X437500Y153500D1*
G1X402500Y157500D2*
G1X437500Y157500D1*
G1X402500Y163500D2*
G1X437500Y163500D1*
G1X402500Y167500D2*
G1X437500Y167500D1*
G1X402500Y173500D2*
G1X437500Y173500D1*
G1X402500Y177500D2*
G1X437500Y177500D1*
G1X402500Y183500D2*
G1X437500Y183500D1*
G1X402500Y187500D2*
G1X437500Y187500D1*
G1X402500Y193500D2*
G1X437500Y193500D1*
G1X402500Y197500D2*
G1X437500Y197500D1*
G1X402500Y203500D2*
G1X437500Y203500D1*
G1X402500Y207500D2*
G1X437500Y207500D1*
G1X402500Y213500D2*
G1X437500Y213500D1*
G1X402500Y217500D2*
G1X437500Y217500D1*
G1X402500Y223500D2*
G1X437500Y223500D1*
G1X402500Y227500D2*
G1X437500Y227500D1*
G1X402500Y233500D2*
G1X437500Y233500D1*
G1X402500Y237500D2*
G1X437500Y237500D1*
G1X402500Y243500D2*
G1X437500Y243500D1*
G1X402500Y247500D2*
G1X437500Y247500D1*
G1X402500Y253500D2*
G1X437500Y253500D1*
G1X402500Y257500D2*
G1X437500Y257500D1*
G1X402500Y263500D2*
G1X437500Y263500D1*
G1X402500Y267500D2*
G1X437500Y267500D1*
G1X402500Y273500D2*
G1X437500Y273500D1*
G1X402500Y277500D2*
G1X437500Y277500D1*
G1X402500Y283500D2*
G1X437500Y283500D1*
G1X402500Y287500D2*
G1X437500Y287500D1*
G1X402500Y293500D2*
G1X437500Y293500D1*
G1X402500Y297500D2*
G1X437500Y297500D1*
G1X402500Y303500D2*
G1X437500Y303500D1*
G1X402500Y307500D2*
G1X437500Y307500D1*
G1X402500Y313500D2*
G1X437500Y313500D1*
G1X416000Y39000D2*
G54D11*
G1X416000Y42000D1*
G1X416000Y39000D2*
G1X416000Y42000D1*
G1X416000Y49000D2*
G1X416000Y52000D1*
G1X416000Y49000D2*
G1X416000Y52000D1*
G1X416000Y59000D2*
G1X416000Y62000D1*
G1X416000Y59000D2*
G1X416000Y62000D1*
G1X416000Y69000D2*
G1X416000Y72000D1*
G1X416000Y69000D2*
G1X416000Y72000D1*
G1X416000Y89000D2*
G1X416000Y92000D1*
G1X416000Y89000D2*
G1X416000Y92000D1*
G1X416000Y99000D2*
G1X416000Y102000D1*
G1X416000Y99000D2*
G1X416000Y102000D1*
G1X416000Y109000D2*
G1X416000Y112000D1*
G1X416000Y109000D2*
G1X416000Y112000D1*
G1X416000Y119000D2*
G1X416000Y122000D1*
G1X416000Y119000D2*
G1X416000Y122000D1*
G1X416000Y129000D2*
G1X416000Y132000D1*
G1X416000Y129000D2*
G1X416000Y132000D1*
G1X416000Y139000D2*
G1X416000Y142000D1*
G1X416000Y139000D2*
G1X416000Y142000D1*
G1X416000Y149000D2*
G1X416000Y152000D1*
G1X416000Y149000D2*
G1X416000Y152000D1*
G1X416000Y159000D2*
G1X416000Y162000D1*
G1X416000Y159000D2*
G1X416000Y162000D1*
G1X416000Y169000D2*
G1X416000Y172000D1*
G1X416000Y169000D2*
G1X416000Y172000D1*
G1X416000Y179000D2*
G1X416000Y182000D1*
G1X416000Y179000D2*
G1X416000Y182000D1*
G1X416000Y189000D2*
G1X416000Y192000D1*
G1X416000Y189000D2*
G1X416000Y192000D1*
G1X416000Y199000D2*
G1X416000Y202000D1*
G1X416000Y199000D2*
G1X416000Y202000D1*
G1X416000Y209000D2*
G1X416000Y212000D1*
G1X416000Y209000D2*
G1X416000Y212000D1*
G1X416000Y219000D2*
G1X416000Y222000D1*
G1X416000Y219000D2*
G1X416000Y222000D1*
G1X416000Y229000D2*
G1X416000Y232000D1*
G1X416000Y229000D2*
G1X416000Y232000D1*
G1X416000Y239000D2*
G1X416000Y242000D1*
G1X416000Y239000D2*
G1X416000Y242000D1*
G1X416000Y249000D2*
G1X416000Y252000D1*
G1X416000Y249000D2*
G1X416000Y252000D1*
G1X416000Y259000D2*
G1X416000Y262000D1*
G1X416000Y259000D2*
G1X416000Y262000D1*
G1X416000Y269000D2*
G1X416000Y272000D1*
G1X416000Y269000D2*
G1X416000Y272000D1*
G1X416000Y279000D2*
G1X416000Y282000D1*
G1X416000Y279000D2*
G1X416000Y282000D1*
G1X416000Y289000D2*
G1X416000Y292000D1*
G1X416000Y289000D2*
G1X416000Y292000D1*
G1X416000Y299000D2*
G1X416000Y302000D1*
G1X416000Y299000D2*
G1X416000Y302000D1*
G1X416000Y309000D2*
G1X416000Y312000D1*
G1X435000Y39000D2*
G1X435000Y42000D1*
G1X435000Y39000D2*
G1X435000Y42000D1*
G1X435000Y49000D2*
G1X435000Y52000D1*
G1X435000Y49000D2*
G1X435000Y52000D1*
G1X435000Y59000D2*
G1X435000Y62000D1*
G1X435000Y59000D2*
G1X435000Y62000D1*
G1X435000Y69000D2*
G1X435000Y72000D1*
G1X435000Y69000D2*
G1X435000Y72000D1*
G1X435000Y89000D2*
G1X435000Y92000D1*
G1X435000Y89000D2*
G1X435000Y92000D1*
G1X435000Y99000D2*
G1X435000Y102000D1*
G1X435000Y99000D2*
G1X435000Y102000D1*
G1X435000Y109000D2*
G1X435000Y112000D1*
G1X435000Y109000D2*
G1X435000Y112000D1*
G1X435000Y119000D2*
G1X435000Y122000D1*
G1X435000Y119000D2*
G1X435000Y122000D1*
G1X435000Y129000D2*
G1X435000Y132000D1*
G1X435000Y129000D2*
G1X435000Y132000D1*
G1X435000Y139000D2*
G1X435000Y142000D1*
G1X435000Y139000D2*
G1X435000Y142000D1*
G1X435000Y149000D2*
G1X435000Y152000D1*
G1X435000Y149000D2*
G1X435000Y152000D1*
G1X435000Y159000D2*
G1X435000Y162000D1*
G1X435000Y159000D2*
G1X435000Y162000D1*
G1X435000Y169000D2*
G1X435000Y172000D1*
G1X435000Y169000D2*
G1X435000Y172000D1*
G1X435000Y179000D2*
G1X435000Y182000D1*
G1X435000Y179000D2*
G1X435000Y182000D1*
G1X435000Y189000D2*
G1X435000Y192000D1*
G1X435000Y189000D2*
G1X435000Y192000D1*
G1X435000Y199000D2*
G1X435000Y202000D1*
G1X435000Y199000D2*
G1X435000Y202000D1*
G1X435000Y209000D2*
G1X435000Y212000D1*
G1X435000Y209000D2*
G1X435000Y212000D1*
G1X435000Y219000D2*
G1X435000Y222000D1*
G1X435000Y219000D2*
G1X435000Y222000D1*
G1X435000Y229000D2*
G1X435000Y232000D1*
G1X435000Y229000D2*
G1X435000Y232000D1*
G1X435000Y239000D2*
G1X435000Y242000D1*
G1X435000Y239000D2*
G1X435000Y242000D1*
G1X435000Y249000D2*
G1X435000Y252000D1*
G1X435000Y249000D2*
G1X435000Y252000D1*
G1X435000Y259000D2*
G1X435000Y262000D1*
G1X435000Y259000D2*
G1X435000Y262000D1*
G1X435000Y269000D2*
G1X435000Y272000D1*
G1X435000Y269000D2*
G1X435000Y272000D1*
G1X435000Y279000D2*
G1X435000Y282000D1*
G1X435000Y279000D2*
G1X435000Y282000D1*
G1X435000Y289000D2*
G1X435000Y292000D1*
G1X435000Y289000D2*
G1X435000Y292000D1*
G1X435000Y299000D2*
G1X435000Y302000D1*
G1X435000Y299000D2*
G1X435000Y302000D1*
G1X435000Y309000D2*
G1X435000Y312000D1*
G1X437500Y33500D2*
G54D13*
G1X437500Y317500D1*
G54D18*
G1X418000Y40500D3*
G1X418000Y50500D3*
G1X418000Y60500D3*
G1X418000Y70500D3*
G1X418000Y90500D3*
G1X418000Y100500D3*
G1X418000Y110500D3*
G1X418000Y120500D3*
G1X418000Y130500D3*
G1X418000Y140500D3*
G1X418000Y150500D3*
G1X418000Y160500D3*
G1X418000Y170500D3*
G1X418000Y180500D3*
G1X418000Y190500D3*
G1X418000Y200500D3*
G1X418000Y210500D3*
G1X418000Y220500D3*
G1X418000Y230500D3*
G1X418000Y240500D3*
G1X418000Y250500D3*
G1X418000Y260500D3*
G1X418000Y270500D3*
G1X418000Y280500D3*
G1X418000Y290500D3*
G1X418000Y300500D3*
G1X418000Y310500D3*
G54D19*
G1X425500Y39250D3*
G1X425500Y41750D3*
G1X425500Y49250D3*
G1X425500Y51750D3*
G1X425500Y59250D3*
G1X425500Y61750D3*
G1X425500Y69250D3*
G1X425500Y71750D3*
G1X425500Y89250D3*
G1X425500Y91750D3*
G1X425500Y99250D3*
G1X425500Y101750D3*
G1X425500Y109250D3*
G1X425500Y111750D3*
G1X425500Y119250D3*
G1X425500Y121750D3*
G1X425500Y129250D3*
G1X425500Y131750D3*
G1X425500Y139250D3*
G1X425500Y141750D3*
G1X425500Y149250D3*
G1X425500Y151750D3*
G1X425500Y159250D3*
G1X425500Y161750D3*
G1X425500Y169250D3*
G1X425500Y171750D3*
G1X425500Y179250D3*
G1X425500Y181750D3*
G1X425500Y189250D3*
G1X425500Y191750D3*
G1X425500Y199250D3*
G1X425500Y201750D3*
G1X425500Y209250D3*
G1X425500Y211750D3*
G1X425500Y219250D3*
G1X425500Y221750D3*
G1X425500Y229250D3*
G1X425500Y231750D3*
G1X425500Y239250D3*
G1X425500Y241750D3*
G1X425500Y249250D3*
G1X425500Y251750D3*
G1X425500Y259250D3*
G1X425500Y261750D3*
G1X425500Y269250D3*
G1X425500Y271750D3*
G1X425500Y279250D3*
G1X425500Y281750D3*
G1X425500Y289250D3*
G1X425500Y291750D3*
G1X425500Y299250D3*
G1X425500Y301750D3*
G1X425500Y309250D3*
G1X425500Y311750D3*
G54D18*
G1X433000Y40500D3*
G1X433000Y50500D3*
G1X433000Y60500D3*
G1X433000Y70500D3*
G1X433000Y90500D3*
G1X433000Y100500D3*
G1X433000Y110500D3*
G1X433000Y120500D3*
G1X433000Y130500D3*
G1X433000Y140500D3*
G1X433000Y150500D3*
G1X433000Y160500D3*
G1X433000Y170500D3*
G1X433000Y180500D3*
G1X433000Y190500D3*
G1X433000Y200500D3*
G1X433000Y210500D3*
G1X433000Y220500D3*
G1X433000Y230500D3*
G1X433000Y240500D3*
G1X433000Y250500D3*
G1X433000Y260500D3*
G1X433000Y270500D3*
G1X433000Y280500D3*
G1X433000Y290500D3*
G1X433000Y300500D3*
G1X433000Y310500D3*
M2*
