M48
INCH,TZ
FMAT,2
ICI,OFF
T01C.02
T02C.024
T03C.025
T04C.03
T05C.032
T06C.04
T07C.046
T08C.12
%
T01
G05
X24500Y18000
X24000Y18500
X25250Y18500
X26250Y13000
X27500Y14000
X26750Y14000
X27000Y17000
X26250Y17500
X31000Y2750
X32000Y3250
X32750Y12750
X32750Y16500
X32750Y17250
X33850Y14250
X35000Y3750
X34250Y11500
X34400Y12550
X34650Y13600
X34750Y15000
X34400Y16000
X33850Y17250
X35000Y19000
X34500Y26750
T02
X22800Y27100
X21800Y27100
T03
X2000Y2500
X2000Y3500
X2000Y4500
X2000Y6500
X2000Y7500
X2000Y8500
X2000Y10500
X2000Y11500
X2000Y12500
X2000Y14500
X2000Y15500
X2000Y16500
X2000Y18500
X2000Y19500
X2000Y20500
X2000Y22500
X2000Y23500
X2000Y24500
X2000Y26500
X2000Y27500
X2000Y28500
X2000Y30500
X2000Y31500
X2000Y32500
X10000Y21500
X10000Y20500
X10000Y19500
X10000Y18500
X10000Y17500
X10000Y16500
X10000Y15500
X10000Y14500
X10000Y13500
X10000Y12500
X10000Y11500
X10000Y10500
X10000Y9500
X10000Y8500
X10000Y7500
X10000Y6500
X10000Y5500
X10000Y4500
X10000Y3500
X10000Y2500
X9500Y28000
X10500Y28000
X13500Y28000
X12500Y28000
X17800Y22800
X16000Y21500
X16000Y20500
X16000Y19500
X16000Y18500
X16000Y17500
X16000Y16500
X16000Y15500
X16000Y14500
X16000Y13500
X16000Y12500
X16000Y11500
X16000Y10500
X16000Y9500
X16000Y8500
X16000Y7500
X16000Y6500
X16000Y5500
X16000Y4500
X16000Y3500
X16000Y2500
X18000Y2500
X19000Y2500
X20000Y2500
X19000Y5500
X18000Y5500
X20000Y5500
X19000Y7500
X18000Y7500
X19000Y10500
X18000Y10500
X18600Y22800
X21000Y5500
X21000Y2500
X20000Y7500
X21000Y7500
X20000Y10500
X21000Y10500
X19350Y27850
X19350Y28650
X20500Y25800
X20500Y22800
X23000Y2500
X22000Y2500
X23000Y5500
X22000Y5500
X23000Y7500
X22000Y7500
X23000Y10500
X22000Y10500
X21500Y22800
X23500Y22800
X22500Y22800
X21500Y25800
X22500Y25800
X23500Y25800
X24000Y10500
X24000Y7500
X24000Y5500
X24000Y2500
X27500Y4500
X27500Y5500
X27500Y6500
X27500Y7500
X27500Y8500
X27500Y9500
X27500Y10500
X27000Y23600
X27000Y24400
X30500Y10500
X30500Y9500
X30500Y8500
X30500Y7500
X30500Y6500
X30500Y5500
X30500Y4500
X34000Y2100
X33200Y2100
X34000Y18650
X34000Y19450
T04
X4000Y2500
X4000Y4500
X4000Y6500
X4000Y8500
X4000Y10500
X4000Y12500
X4000Y14500
X4000Y16500
X4000Y18500
X4000Y20500
X4000Y22500
X4000Y24500
X4000Y26500
X4000Y28500
X4000Y30500
X4000Y32500
X7000Y32500
X7000Y30500
X7000Y28500
X7000Y26500
X7000Y24500
X7000Y22500
X7000Y20500
X7000Y18500
X7000Y16500
X7000Y14500
X7000Y12500
X7000Y10500
X7000Y8500
X7000Y6500
X7000Y4500
X7000Y2500
X9500Y23300
X9500Y26300
X12500Y1700
X11500Y1700
X10500Y23300
X11500Y23300
X11500Y26300
X10500Y26300
X13500Y23300
X12500Y23300
X12500Y26300
X14500Y23300
X13500Y26300
X14500Y26300
X15750Y30500
X14750Y30500
X15750Y33500
X14750Y33500
X27500Y2100
X28500Y2100
X28500Y18000
X30500Y18000
X34100Y950
X34000Y22500
T05
X16250Y23300
X16250Y25300
X18600Y25800
X18600Y23800
X20900Y28900
X22900Y28900
X23000Y30800
X23000Y32800
X25400Y24800
X25400Y22800
X25400Y9500
X25400Y7500
X25400Y4500
X25400Y2500
X28500Y11900
X30500Y11900
T06
X20500Y21000
X25000Y21000
X29000Y28250
X29000Y32250
T07
X10500Y30500
X9500Y30500
X12500Y30500
X11500Y32500
X13500Y30500
X17000Y31800
X17000Y33800
X21000Y32800
T08
X1500Y1250
X1500Y33750
X36500Y33750
X36500Y1250
M30
