*
%LPD*%
%LNTOP*%
%FSLAX25Y25*%
%MOIN*%
%AD*%
%AD*%
%ADD13C,0.01*%
%ADD15C,0.04*%
%ADD20R,0.16X0.06*%
%ADD30C,0.02*%
%ADD31C,0.06*%
%ADD32C,0.03*%
%ADD33C,0.12*%
%ADD34C,0.05*%
%AMD35_Rectangle*
20,1,0.025,-0.025,0,0.025,0,0*
20,1,0.025,0,-0.025,0,0.025,0*
1,1,0.025,-0.0125,-0.0125*
1,1,0.025,0.0125,-0.0125*
1,1,0.025,0.0125,0.0125*
1,1,0.025,-0.0125,0.0125*
%
%ADD35D35_Rectangle*%
%ADD36R,0.06X3.41*%
%ADD37R,0.4X0.05*%
%ADD38R,0.31X0.05*%
%ADD39R,0.31X0.13*%
%ADD40R,0.1X3.41*%
%ADD41R,0.815X0.13*%
%AMD42_Rectangle*
20,1,0.045,-0.035,0,0.035,0,0*
20,1,0.035,0,-0.04,0,0.04,0*
1,1,0.035,-0.0175,-0.0225*
1,1,0.035,0.0175,-0.0225*
1,1,0.035,0.0175,0.0225*
1,1,0.035,-0.0175,0.0225*
%
%ADD42D42_Rectangle*%
%AMD43_Rectangle*
20,1,0.04,-0.04,0,0.04,0,0*
20,1,0.04,0,-0.04,0,0.04,0*
1,1,0.04,-0.02,-0.02*
1,1,0.04,0.02,-0.02*
1,1,0.04,0.02,0.02*
1,1,0.04,-0.02,0.02*
%
%ADD43D43_Rectangle*%
%ADD44R,0.16X2.035*%
%ADD45R,0.16X2.135*%
%ADD46R,3.175X0.06*%
%ADD47C,0.08*%
%ADD48R,2.12X0.08*%
%ADD49R,0.16X0.19*%
%ADD50R,0.72X0.1*%
%ADD51R,0.06X0.165*%
%ADD52R,0.04X0.05*%
G54D30*
%SRX1Y1I0.0J0.0*%
G1X63000Y42000D2*
G1X63000Y98000D1*
G1X63000Y42000D2*
G1X70000Y35000D1*
G1X63000Y98000D2*
G1X70000Y105000D1*
G1X70000Y35000D2*
G1X100000Y35000D1*
G1X70000Y45000D2*
G1X77000Y52000D1*
G1X70000Y85000D2*
G1X90000Y105000D1*
G1X70000Y125000D2*
G1X80000Y115000D1*
G1X70000Y155000D2*
G1X70000Y165000D1*
G1X70000Y155000D2*
G1X100000Y125000D1*
G1X70000Y205000D2*
G1X77000Y198000D1*
G1X70000Y245000D2*
G1X77000Y238000D1*
G1X70000Y285000D2*
G1X77000Y278000D1*
G1X70000Y325000D2*
G1X77000Y318000D1*
G1X77000Y52000D2*
G1X77000Y72000D1*
G1X77000Y72000D2*
G1X100000Y95000D1*
G1X77000Y158000D2*
G1X77000Y198000D1*
G1X77000Y158000D2*
G1X100000Y135000D1*
G1X77000Y204000D2*
G1X77000Y238000D1*
G1X77000Y204000D2*
G1X81000Y200000D1*
G1X77000Y244000D2*
G1X77000Y278000D1*
G1X77000Y244000D2*
G1X81000Y240000D1*
G1X77000Y284000D2*
G1X77000Y318000D1*
G1X77000Y284000D2*
G1X81000Y280000D1*
G1X80000Y115000D2*
G1X100000Y115000D1*
G1X81000Y164000D2*
G1X81000Y200000D1*
G1X81000Y164000D2*
G1X100000Y145000D1*
G1X81000Y206000D2*
G1X81000Y240000D1*
G1X81000Y206000D2*
G1X85000Y202000D1*
G1X81000Y246000D2*
G1X81000Y280000D1*
G1X81000Y246000D2*
G1X85000Y242000D1*
G1X85000Y170000D2*
G1X85000Y202000D1*
G1X85000Y170000D2*
G1X100000Y155000D1*
G1X85000Y208000D2*
G1X85000Y242000D1*
G1X85000Y208000D2*
G1X89000Y204000D1*
G1X89000Y176000D2*
G1X89000Y204000D1*
G1X89000Y176000D2*
G1X100000Y165000D1*
G1X90000Y105000D2*
G1X100000Y105000D1*
G1X95000Y220000D2*
G1X95000Y233000D1*
G1X95000Y220000D2*
G1X100000Y215000D1*
G1X95000Y263000D2*
G1X95000Y270000D1*
G1X95000Y263000D2*
G1X102000Y256000D1*
G1X95000Y270000D2*
G1X105000Y280000D1*
G1X95000Y280000D2*
G1X95000Y305000D1*
G1X100000Y215000D2*
G1X100000Y228000D1*
G1X100000Y215000D2*
G54D15*
G1X110000Y225000D1*
G1X100000Y215000D2*
G54D31*
G1X112000Y215000D1*
G1X100000Y228000D2*
G54D30*
G1X105000Y233000D1*
G1X102000Y256000D2*
G1X118000Y256000D1*
G1X105000Y263000D2*
G1X105000Y270000D1*
G1X105000Y263000D2*
G1X115000Y263000D1*
G1X105000Y270000D2*
G1X115000Y280000D1*
G1X105000Y305000D2*
G1X105000Y310000D1*
G1X105000Y310000D2*
G1X112000Y317000D1*
G1X110000Y225000D2*
G54D15*
G1X148000Y225000D1*
G1X112000Y317000D2*
G54D30*
G1X145500Y317000D1*
G1X115000Y263000D2*
G1X122000Y270000D1*
G1X115000Y280000D2*
G1X125000Y280000D1*
G1X118000Y256000D2*
G1X125000Y263000D1*
G1X122000Y270000D2*
G1X138000Y270000D1*
G1X125000Y263000D2*
G1X135000Y263000D1*
G1X125000Y305000D2*
G1X125000Y310000D1*
G1X125000Y310000D2*
G1X128000Y313000D1*
G1X128000Y313000D2*
G1X139500Y313000D1*
G1X135000Y280000D2*
G1X135000Y305000D1*
G1X138000Y270000D2*
G1X145000Y263000D1*
G1X139500Y313000D2*
G1X147500Y305000D1*
G1X145500Y317000D2*
G1X157500Y305000D1*
G1X147500Y335000D2*
G1X154500Y328000D1*
G1X148000Y215000D2*
G54D31*
G1X160000Y215000D1*
G1X148000Y225000D2*
G54D15*
G1X153000Y230000D1*
G1X153000Y230000D2*
G1X153000Y243500D1*
G1X153000Y243500D2*
G1X162500Y253000D1*
G1X153500Y21500D2*
G54D30*
G1X153500Y38500D1*
G1X153500Y21500D2*
G1X157500Y17500D1*
G1X153500Y38500D2*
G1X160000Y45000D1*
G1X154500Y328000D2*
G1X160000Y328000D1*
G1X157500Y17500D2*
G1X257000Y17500D1*
G1X157500Y335000D2*
G1X160500Y338000D1*
G1X160000Y35000D2*
G1X170000Y45000D1*
G1X160000Y85000D2*
G1X170000Y85000D1*
G1X160000Y95000D2*
G1X170000Y95000D1*
G1X160000Y115000D2*
G1X185000Y140000D1*
G1X160000Y125000D2*
G1X180000Y145000D1*
G1X160000Y135000D2*
G1X175000Y150000D1*
G1X160000Y145000D2*
G1X170000Y155000D1*
G1X160000Y155000D2*
G1X165000Y160000D1*
G1X160000Y165000D2*
G1X272500Y165000D1*
G1X160000Y175000D2*
G1X165000Y170000D1*
G1X160000Y185000D2*
G1X170000Y175000D1*
G1X160000Y215000D2*
G54D31*
G1X162500Y217500D1*
G1X160000Y328000D2*
G54D30*
G1X170000Y338000D1*
G1X160500Y338000D2*
G1X170000Y338000D1*
G1X162500Y217500D2*
G54D31*
G1X162500Y233000D1*
G1X162500Y253000D2*
G54D15*
G1X172500Y253000D1*
G1X165000Y160000D2*
G54D30*
G1X344000Y160000D1*
G1X165000Y170000D2*
G1X270000Y170000D1*
G1X170000Y45000D2*
G1X170000Y55000D1*
G1X170000Y55000D2*
G1X180000Y65000D1*
G1X170000Y85000D2*
G1X190000Y105000D1*
G1X170000Y95000D2*
G1X180000Y105000D1*
G1X170000Y155000D2*
G1X352000Y155000D1*
G1X170000Y175000D2*
G1X262500Y175000D1*
G1X170000Y293000D2*
G1X170000Y318000D1*
G1X170000Y293000D2*
G1X205000Y258000D1*
G1X172500Y253000D2*
G54D15*
G1X177500Y248000D1*
G1X175000Y150000D2*
G54D30*
G1X340000Y150000D1*
G1X177500Y248000D2*
G54D15*
G1X195000Y248000D1*
G1X180000Y25000D2*
G54D30*
G1X187422Y32422D1*
G1X180000Y65000D2*
G1X220000Y65000D1*
G1X180000Y145000D2*
G1X322000Y145000D1*
G1X185000Y140000D2*
G1X260000Y140000D1*
G1X186000Y228000D2*
G54D32*
G1X201000Y243000D1*
G1X186000Y258000D2*
G1X205000Y258000D1*
G1X187422Y32422D2*
G54D30*
G1X202578Y32422D1*
G1X190000Y75000D2*
G1X200000Y85000D1*
G1X192500Y120000D2*
G54D13*
G1X195499Y120000D1*
G1X192500Y122249D2*
G1X194000Y122249D1*
G1X192500Y124499D2*
G1X192500Y120000D1*
G1X192500Y127798D2*
G1X195499Y127798D1*
G1X192500Y128548D2*
G1X192500Y127798D1*
G1X192500Y132297D2*
G1X195499Y132297D1*
G1X193500Y286500D2*
G54D32*
G1X197500Y286500D1*
G1X195000Y248000D2*
G54D15*
G1X205000Y258000D1*
G1X195499Y124499D2*
G54D13*
G1X192500Y124499D1*
G1X195499Y131547D2*
G1X192500Y128548D1*
G1X195499Y132297D2*
G1X195499Y131547D1*
G1X196999Y122999D2*
G1X199998Y120000D1*
G1X196999Y128548D2*
G1X196999Y129298D1*
G1X196999Y129298D2*
G1X197748Y130048D1*
G1X196999Y130797D2*
G1X196999Y131547D1*
G1X196999Y131547D2*
G1X197748Y132297D1*
G1X197500Y286500D2*
G54D32*
G1X201000Y283000D1*
G1X197748Y127798D2*
G54D13*
G1X196999Y128548D1*
G1X197748Y130048D2*
G1X196999Y130797D1*
G1X197748Y130048D2*
G1X199248Y130048D1*
G1X197748Y132297D2*
G1X199248Y132297D1*
G1X198498Y121500D2*
G1X199998Y122999D1*
G1X199248Y127798D2*
G1X197748Y127798D1*
G1X199248Y130048D2*
G1X199998Y129298D1*
G1X199248Y132297D2*
G1X199998Y131547D1*
G1X199998Y120000D2*
G1X198498Y121500D1*
G1X199998Y122999D2*
G1X196999Y120000D1*
G1X199998Y128548D2*
G1X199248Y127798D1*
G1X199998Y129298D2*
G1X199998Y128548D1*
G1X199998Y130797D2*
G1X199248Y130048D1*
G1X199998Y131547D2*
G1X199998Y130797D1*
G1X200000Y85000D2*
G54D30*
G1X200000Y105000D1*
G1X200000Y105000D2*
G1X206500Y111500D1*
G1X201000Y243000D2*
G54D32*
G1X205000Y258000D1*
G1X201000Y273000D2*
G1X201000Y283000D1*
G1X201000Y273000D2*
G1X205000Y258000D1*
G1X201497Y122999D2*
G54D13*
G1X202997Y122999D1*
G1X201497Y128548D2*
G1X201497Y131547D1*
G1X201497Y131547D2*
G1X202247Y132297D1*
G1X202247Y120750D2*
G1X202997Y120000D1*
G1X202247Y122999D2*
G1X201497Y122999D1*
G1X202247Y122999D2*
G1X202247Y120750D1*
G1X202247Y123749D2*
G1X202247Y122999D1*
G1X202247Y127798D2*
G1X201497Y128548D1*
G1X202247Y132297D2*
G1X203746Y132297D1*
G1X202578Y32422D2*
G54D30*
G1X210000Y25000D1*
G1X202997Y122999D2*
G54D13*
G1X202247Y122999D1*
G1X203746Y127798D2*
G1X202247Y127798D1*
G1X203746Y132297D2*
G1X204496Y131547D1*
G1X204496Y128548D2*
G1X203746Y127798D1*
G1X204496Y131547D2*
G1X204496Y128548D1*
G1X205000Y210000D2*
G54D32*
G1X205000Y228000D1*
G1X205000Y228000D2*
G1X213000Y236000D1*
G1X205000Y258000D2*
G1X209000Y243000D1*
G1X205000Y258000D2*
G54D30*
G1X209000Y273000D1*
G1X205000Y258000D2*
G54D32*
G1X213000Y250000D1*
G1X205000Y258000D2*
G54D30*
G1X218000Y271000D1*
G1X205246Y120750D2*
G54D13*
G1X205246Y122249D1*
G1X205246Y122249D2*
G1X205996Y122999D1*
G1X205996Y120000D2*
G1X205246Y120750D1*
G1X205996Y122999D2*
G1X207495Y122999D1*
G1X206500Y111500D2*
G54D30*
G1X268500Y111500D1*
G1X207495Y120000D2*
G54D13*
G1X205996Y120000D1*
G1X207495Y122999D2*
G1X208245Y122249D1*
G1X208245Y121500D2*
G1X205246Y121500D1*
G1X208245Y122249D2*
G1X208245Y121500D1*
G1X209000Y243000D2*
G54D32*
G1X249000Y243000D1*
G1X209000Y273000D2*
G54D30*
G1X209000Y289000D1*
G1X209744Y120000D2*
G54D13*
G1X209744Y122999D1*
G1X209744Y122999D2*
G1X211994Y122999D1*
G1X210000Y55000D2*
G54D30*
G1X232500Y32500D1*
G1X210000Y105000D2*
G1X230000Y85000D1*
G1X210000Y328000D2*
G1X230000Y328000D1*
G1X210494Y127798D2*
G54D13*
G1X210494Y130797D1*
G1X210494Y130797D2*
G1X211994Y132297D1*
G1X211994Y122999D2*
G1X212743Y122249D1*
G1X211994Y132297D2*
G1X213493Y130797D1*
G1X212743Y122249D2*
G1X212743Y120000D1*
G1X213000Y236000D2*
G54D32*
G1X270000Y236000D1*
G1X213000Y250000D2*
G1X240000Y250000D1*
G1X213493Y127798D2*
G54D13*
G1X213493Y130048D1*
G1X213493Y130048D2*
G1X210494Y130048D1*
G1X213493Y130797D2*
G1X213493Y127798D1*
G1X214243Y120000D2*
G1X216492Y120000D1*
G1X214243Y122249D2*
G1X214993Y122999D1*
G1X214993Y121500D2*
G1X214243Y122249D1*
G1X214993Y122999D2*
G1X217242Y122999D1*
G1X214993Y131547D2*
G1X216492Y130048D1*
G1X214993Y132297D2*
G1X214993Y131547D1*
G1X215000Y258000D2*
G54D30*
G1X228000Y271000D1*
G1X216492Y120000D2*
G54D13*
G1X217242Y120750D1*
G1X216492Y121500D2*
G1X214993Y121500D1*
G1X216492Y130048D2*
G1X216492Y127798D1*
G1X216492Y130048D2*
G1X217992Y131547D1*
G1X217242Y120750D2*
G1X216492Y121500D1*
G1X217992Y131547D2*
G1X217992Y132297D1*
G1X218742Y120000D2*
G1X220241Y120000D1*
G1X219491Y120000D2*
G1X219491Y122999D1*
G1X219491Y122999D2*
G1X218742Y122999D1*
G1X220000Y65000D2*
G54D30*
G1X230000Y55000D1*
G1X220000Y75000D2*
G1X230000Y65000D1*
G1X220000Y105000D2*
G1X240000Y85000D1*
G1X220241Y120000D2*
G54D13*
G1X219491Y120000D1*
G1X222000Y277000D2*
G54D30*
G1X222000Y300000D1*
G1X222000Y277000D2*
G1X228000Y271000D1*
G1X222000Y300000D2*
G1X230000Y308000D1*
G1X222490Y120750D2*
G54D13*
G1X223240Y120000D1*
G1X222490Y122249D2*
G1X222490Y120750D1*
G1X223240Y120000D2*
G1X224740Y120000D1*
G1X223240Y122999D2*
G1X222490Y122249D1*
G1X223990Y130797D2*
G1X224740Y130048D1*
G1X223990Y131547D2*
G1X223990Y130797D1*
G1X224740Y120000D2*
G1X225489Y120750D1*
G1X224740Y122999D2*
G1X223240Y122999D1*
G1X224740Y127798D2*
G1X223990Y128548D1*
G1X224740Y130048D2*
G1X226239Y130048D1*
G1X224740Y132297D2*
G1X223990Y131547D1*
G1X225000Y258000D2*
G54D30*
G1X235000Y268000D1*
G1X225489Y120750D2*
G54D13*
G1X225489Y122249D1*
G1X225489Y122249D2*
G1X224740Y122999D1*
G1X226239Y127798D2*
G1X224740Y127798D1*
G1X226239Y130048D2*
G1X226989Y129298D1*
G1X226239Y132297D2*
G1X224740Y132297D1*
G1X226989Y120000D2*
G1X226989Y122999D1*
G1X226989Y122999D2*
G1X229238Y122999D1*
G1X226989Y128548D2*
G1X226239Y127798D1*
G1X226989Y129298D2*
G1X226989Y128548D1*
G1X226989Y131547D2*
G1X226239Y132297D1*
G1X228488Y128548D2*
G1X229238Y127798D1*
G1X228488Y130048D2*
G1X228488Y128548D1*
G1X229000Y289000D2*
G54D30*
G1X235000Y283000D1*
G1X229238Y122999D2*
G54D13*
G1X229988Y122249D1*
G1X229238Y127798D2*
G1X230738Y127798D1*
G1X229238Y130797D2*
G1X228488Y130048D1*
G1X229988Y122249D2*
G1X229988Y120000D1*
G1X230000Y65000D2*
G54D30*
G1X240000Y65000D1*
G1X230000Y75000D2*
G1X230000Y85000D1*
G1X230738Y127798D2*
G54D13*
G1X231487Y128548D1*
G1X230738Y130797D2*
G1X229238Y130797D1*
G1X231487Y128548D2*
G1X231487Y130048D1*
G1X231487Y130048D2*
G1X230738Y130797D1*
G1X232500Y32500D2*
G54D30*
G1X320000Y32500D1*
G1X232987Y128548D2*
G54D13*
G1X233737Y127798D1*
G1X232987Y130797D2*
G1X232987Y128548D1*
G1X233737Y127798D2*
G1X235986Y127798D1*
G1X235000Y268000D2*
G54D30*
G1X235000Y283000D1*
G1X235986Y122999D2*
G54D13*
G1X237486Y120000D1*
G1X235986Y127798D2*
G1X235986Y130797D1*
G1X237486Y120000D2*
G1X238985Y122999D1*
G1X237486Y127798D2*
G1X237486Y130797D1*
G1X237486Y130797D2*
G1X239735Y130797D1*
G1X239735Y130797D2*
G1X240485Y130048D1*
G1X240000Y65000D2*
G54D30*
G1X246500Y58500D1*
G1X240000Y85000D2*
G1X255000Y85000D1*
G1X240000Y185000D2*
G1X268500Y213500D1*
G1X240000Y250000D2*
G54D32*
G1X290000Y300000D1*
G1X240485Y120000D2*
G54D13*
G1X241984Y120000D1*
G1X240485Y130048D2*
G1X240485Y127798D1*
G1X241234Y120000D2*
G1X241234Y124499D1*
G1X241234Y124499D2*
G1X240485Y123749D1*
G1X241984Y120000D2*
G1X241234Y120000D1*
G1X241984Y128548D2*
G1X241984Y130048D1*
G1X241984Y130048D2*
G1X242734Y130797D1*
G1X242734Y127798D2*
G1X241984Y128548D1*
G1X242734Y130797D2*
G1X244983Y130797D1*
G1X244983Y127798D2*
G1X242734Y127798D1*
G1X244983Y132297D2*
G1X244983Y127798D1*
G1X245000Y180000D2*
G54D30*
G1X267500Y180000D1*
G1X246500Y42000D2*
G1X246500Y58500D1*
G1X246500Y42000D2*
G1X251000Y37500D1*
G1X249000Y243000D2*
G54D32*
G1X254000Y248000D1*
G1X250000Y210000D2*
G1X250000Y224000D1*
G1X250000Y224000D2*
G1X254000Y228000D1*
G1X251000Y37500D2*
G54D30*
G1X350000Y37500D1*
G1X252500Y185000D2*
G1X275000Y207500D1*
G1X254000Y45000D2*
G54D31*
G1X275000Y45000D1*
G1X255000Y85000D2*
G54D30*
G1X275000Y65000D1*
G1X257000Y17500D2*
G1X267000Y27500D1*
G1X260000Y140000D2*
G1X270000Y130000D1*
G1X262500Y130000D2*
G1X282500Y110000D1*
G1X267000Y27500D2*
G1X310000Y27500D1*
G1X267500Y140000D2*
G1X272500Y135000D1*
G1X267500Y180000D2*
G1X275000Y172500D1*
G1X268500Y111500D2*
G1X275000Y105000D1*
G1X268500Y213500D2*
G1X349500Y213500D1*
G1X270000Y130000D2*
G1X308500Y130000D1*
G1X270000Y244000D2*
G54D32*
G1X270000Y262500D1*
G1X270000Y262500D2*
G1X290000Y282500D1*
G1X272500Y135000D2*
G54D30*
G1X313000Y135000D1*
G1X272500Y165000D2*
G1X275000Y167500D1*
G1X275000Y75000D2*
G1X282500Y82500D1*
G1X275000Y140000D2*
G1X317500Y140000D1*
G1X275000Y167500D2*
G1X325000Y167500D1*
G1X275000Y172500D2*
G1X327500Y172500D1*
G1X275000Y207500D2*
G1X349500Y207500D1*
G1X282500Y82500D2*
G1X282500Y110000D1*
G1X285000Y180000D2*
G54D31*
G1X300500Y195500D1*
G1X290000Y300000D2*
G54D32*
G1X290000Y322500D1*
G1X300500Y195500D2*
G54D31*
G1X339000Y195500D1*
G1X305000Y45000D2*
G54D30*
G1X352000Y45000D1*
G1X305000Y180000D2*
G54D31*
G1X310500Y185500D1*
G1X308500Y130000D2*
G54D30*
G1X313000Y125500D1*
G1X310500Y185500D2*
G54D31*
G1X339000Y185500D1*
G1X313000Y104000D2*
G54D30*
G1X313000Y125500D1*
G1X313000Y104000D2*
G1X356500Y60500D1*
G1X313000Y135000D2*
G1X317500Y130500D1*
G1X317500Y112000D2*
G1X317500Y130500D1*
G1X317500Y112000D2*
G1X339000Y90500D1*
G1X317500Y140000D2*
G1X322000Y135500D1*
G1X322000Y114000D2*
G1X322000Y135500D1*
G1X322000Y114000D2*
G1X335500Y100500D1*
G1X322000Y145000D2*
G1X333000Y134000D1*
G1X325000Y167500D2*
G1X327500Y165000D1*
G1X327500Y115000D2*
G1X327500Y127500D1*
G1X327500Y115000D2*
G1X337500Y105000D1*
G1X333000Y116000D2*
G1X333000Y134000D1*
G1X333000Y116000D2*
G1X339500Y109500D1*
G1X335500Y100500D2*
G1X365500Y100500D1*
G1X337500Y105000D2*
G1X351000Y105000D1*
G1X337704Y275750D2*
G54D13*
G1X338454Y275000D1*
G1X337704Y277249D2*
G1X337704Y275750D1*
G1X337704Y280248D2*
G1X337704Y281748D1*
G1X337704Y281748D2*
G1X338454Y282498D1*
G1X337704Y284747D2*
G1X338454Y283997D1*
G1X337704Y286246D2*
G1X337704Y284747D1*
G1X337704Y288496D2*
G1X339953Y288496D1*
G1X337704Y291495D2*
G1X337704Y288496D1*
G1X337704Y297493D2*
G1X342203Y297493D1*
G1X337704Y312488D2*
G1X339204Y313987D1*
G1X337704Y316237D2*
G1X337704Y315487D1*
G1X337704Y331232D2*
G1X342203Y331232D1*
G1X338454Y277999D2*
G1X337704Y277249D1*
G1X338454Y279499D2*
G1X337704Y280248D1*
G1X338454Y282498D2*
G1X341453Y282498D1*
G1X338454Y286996D2*
G1X337704Y286246D1*
G1X338500Y119000D2*
G54D30*
G1X338500Y142500D1*
G1X338500Y119000D2*
G1X342500Y115000D1*
G1X338500Y172500D2*
G1X350000Y184000D1*
G1X339000Y90500D2*
G1X365500Y90500D1*
G1X339000Y185500D2*
G54D31*
G1X339500Y186000D1*
G1X339000Y195500D2*
G1X339500Y195000D1*
G1X339204Y277999D2*
G54D13*
G1X338454Y277999D1*
G1X339204Y286996D2*
G1X338454Y286996D1*
G1X339204Y289995D2*
G1X339204Y290745D1*
G1X339204Y290745D2*
G1X339953Y291495D1*
G1X339204Y299742D2*
G1X339204Y297493D1*
G1X339204Y301991D2*
G1X341453Y301991D1*
G1X339204Y310988D2*
G1X337704Y312488D1*
G1X339204Y313987D2*
G1X342203Y313987D1*
G1X339204Y319986D2*
G1X339204Y321485D1*
G1X339204Y321485D2*
G1X339953Y322235D1*
G1X339204Y324484D2*
G1X339953Y323734D1*
G1X339204Y325984D2*
G1X339204Y324484D1*
G1X339204Y328983D2*
G1X339204Y331232D1*
G1X339204Y333481D2*
G1X339953Y332731D1*
G1X339204Y334981D2*
G1X339204Y333481D1*
G1X339204Y337230D2*
G1X342203Y337230D1*
G1X339204Y338729D2*
G1X339204Y339479D1*
G1X339500Y109500D2*
G54D30*
G1X345500Y109500D1*
G1X339953Y288496D2*
G54D13*
G1X339204Y289995D1*
G1X339953Y291495D2*
G1X341453Y291495D1*
G1X339953Y300492D2*
G1X339204Y299742D1*
G1X339953Y313987D2*
G1X339953Y310988D1*
G1X339953Y319236D2*
G1X339204Y319986D1*
G1X339953Y322235D2*
G1X340703Y322235D1*
G1X339953Y323734D2*
G1X341453Y323734D1*
G1X339953Y326733D2*
G1X339204Y325984D1*
G1X339953Y328233D2*
G1X339204Y328983D1*
G1X339953Y332731D2*
G1X341453Y332731D1*
G1X339953Y335730D2*
G1X339204Y334981D1*
G1X339953Y337980D2*
G1X339204Y338729D1*
G1X340000Y150000D2*
G54D30*
G1X352000Y138000D1*
G1X340000Y225000D2*
G54D31*
G1X340000Y246000D1*
G1X340000Y246000D2*
G1X354500Y260500D1*
G1X340703Y300492D2*
G54D13*
G1X339953Y300492D1*
G1X340703Y322235D2*
G1X340703Y319236D1*
G1X340703Y337230D2*
G1X339953Y337980D1*
G1X341453Y279499D2*
G1X338454Y279499D1*
G1X341453Y282498D2*
G1X342203Y281748D1*
G1X341453Y291495D2*
G1X342203Y290745D1*
G1X341453Y300492D2*
G1X340703Y300492D1*
G1X341453Y301991D2*
G1X342203Y302741D1*
G1X341453Y319236D2*
G1X339953Y319236D1*
G1X341453Y323734D2*
G1X342203Y324484D1*
G1X341453Y326733D2*
G1X339953Y326733D1*
G1X341453Y328233D2*
G1X339953Y328233D1*
G1X341453Y332731D2*
G1X342203Y333481D1*
G1X341453Y335730D2*
G1X339953Y335730D1*
G1X342203Y275000D2*
G1X339204Y277999D1*
G1X342203Y277999D2*
G1X342203Y275000D1*
G1X342203Y280248D2*
G1X341453Y279499D1*
G1X342203Y281748D2*
G1X342203Y280248D1*
G1X342203Y283997D2*
G1X339204Y286996D1*
G1X342203Y286996D2*
G1X342203Y283997D1*
G1X342203Y289245D2*
G1X341453Y288496D1*
G1X342203Y290745D2*
G1X342203Y289245D1*
G1X342203Y297493D2*
G1X342203Y299742D1*
G1X342203Y299742D2*
G1X341453Y300492D1*
G1X342203Y302741D2*
G1X342203Y304990D1*
G1X342203Y304990D2*
G1X339204Y304990D1*
G1X342203Y304990D2*
G1X342952Y304990D1*
G1X342203Y310988D2*
G1X339204Y310988D1*
G1X342203Y313987D2*
G1X339953Y313987D1*
G1X342203Y315487D2*
G1X342203Y316986D1*
G1X342203Y316237D2*
G1X337704Y316237D1*
G1X342203Y316986D2*
G1X342203Y316237D1*
G1X342203Y319986D2*
G1X341453Y319236D1*
G1X342203Y321485D2*
G1X342203Y319986D1*
G1X342203Y324484D2*
G1X342203Y325984D1*
G1X342203Y325984D2*
G1X341453Y326733D1*
G1X342203Y328983D2*
G1X341453Y328233D1*
G1X342203Y331232D2*
G1X342203Y328983D1*
G1X342203Y333481D2*
G1X342203Y334981D1*
G1X342203Y334981D2*
G1X341453Y335730D1*
G1X342203Y337230D2*
G1X340703Y337230D1*
G1X342952Y304990D2*
G1X343702Y304241D1*
G1X343702Y304241D2*
G1X343702Y303491D1*
G1X344000Y125500D2*
G54D30*
G1X346500Y128000D1*
G1X345000Y267500D2*
G1X348000Y270500D1*
G1X345500Y109500D2*
G1X356500Y120500D1*
G1X346500Y128000D2*
G1X346500Y136000D1*
G1X347002Y301991D2*
G54D13*
G1X347002Y301242D1*
G1X347002Y305740D2*
G1X347002Y304990D1*
G1X347002Y342478D2*
G1X351500Y342478D1*
G1X347500Y149500D2*
G54D30*
G1X347500Y150000D1*
G1X347500Y149500D2*
G1X356500Y140500D1*
G1X347752Y331982D2*
G54D13*
G1X348501Y331982D1*
G1X348000Y270500D2*
G54D30*
G1X365500Y270500D1*
G1X348501Y275000D2*
G54D13*
G1X347002Y276500D1*
G1X348501Y278749D2*
G1X348501Y279499D1*
G1X348501Y279499D2*
G1X349251Y280248D1*
G1X348501Y280998D2*
G1X349251Y281748D1*
G1X348501Y283997D2*
G1X348501Y285497D1*
G1X348501Y285497D2*
G1X349251Y286246D1*
G1X348501Y287746D2*
G1X348501Y289995D1*
G1X348501Y289995D2*
G1X349251Y290745D1*
G1X348501Y292244D2*
G1X350751Y292244D1*
G1X348501Y297493D2*
G1X348501Y298992D1*
G1X348501Y298992D2*
G1X349251Y299742D1*
G1X348501Y308739D2*
G1X350751Y308739D1*
G1X348501Y317736D2*
G1X351500Y317736D1*
G1X348501Y319236D2*
G1X348501Y319985D1*
G1X348501Y322985D2*
G1X349251Y322235D1*
G1X348501Y324484D2*
G1X348501Y322985D1*
G1X348501Y326733D2*
G1X350751Y326733D1*
G1X348501Y331232D2*
G1X348501Y332731D1*
G1X348501Y331982D2*
G1X348501Y331232D1*
G1X348501Y331982D2*
G1X350751Y331982D1*
G1X348501Y332731D2*
G1X348501Y331982D1*
G1X348501Y335730D2*
G1X348501Y337230D1*
G1X348501Y337230D2*
G1X349251Y337980D1*
G1X348501Y340229D2*
G1X348501Y342478D1*
G1X348501Y345477D2*
G1X347002Y343978D1*
G1X349251Y280248D2*
G1X348501Y280998D1*
G1X349251Y280248D2*
G1X351500Y280248D1*
G1X349251Y281748D2*
G1X351500Y281748D1*
G1X349251Y286246D2*
G1X351500Y286246D1*
G1X349251Y290745D2*
G1X351500Y290745D1*
G1X349251Y299742D2*
G1X351500Y299742D1*
G1X349251Y318486D2*
G1X348501Y319236D1*
G1X349251Y322235D2*
G1X350751Y322235D1*
G1X349251Y325234D2*
G1X348501Y324484D1*
G1X349251Y334981D2*
G1X348501Y335730D1*
G1X349251Y337980D2*
G1X350001Y337980D1*
G1X349251Y339479D2*
G1X348501Y340229D1*
G1X349500Y207500D2*
G54D30*
G1X356500Y200500D1*
G1X349500Y213500D2*
G1X356500Y220500D1*
G1X350000Y184000D2*
G1X350000Y190000D1*
G1X350001Y275000D2*
G54D13*
G1X348501Y275000D1*
G1X350001Y283997D2*
G1X350001Y286246D1*
G1X350001Y297493D2*
G1X350001Y299742D1*
G1X350001Y317736D2*
G1X349251Y318486D1*
G1X350001Y337980D2*
G1X350001Y334981D1*
G1X350001Y345477D2*
G1X348501Y345477D1*
G1X350751Y283247D2*
G1X350001Y283997D1*
G1X350751Y292244D2*
G1X351500Y292994D1*
G1X350751Y296743D2*
G1X350001Y297493D1*
G1X350751Y308739D2*
G1X351500Y309489D1*
G1X350751Y322235D2*
G1X351500Y322985D1*
G1X350751Y325234D2*
G1X349251Y325234D1*
G1X350751Y326733D2*
G1X351500Y327483D1*
G1X350751Y331982D2*
G1X351500Y332731D1*
G1X350751Y334981D2*
G1X349251Y334981D1*
G1X350751Y339479D2*
G1X349251Y339479D1*
G1X351000Y105000D2*
G54D30*
G1X356500Y110500D1*
G1X351500Y276500D2*
G54D13*
G1X350001Y275000D1*
G1X351500Y278749D2*
G1X348501Y278749D1*
G1X351500Y280248D2*
G1X349251Y280248D1*
G1X351500Y283997D2*
G1X350751Y283247D1*
G1X351500Y286246D2*
G1X351500Y283997D1*
G1X351500Y287746D2*
G1X348501Y287746D1*
G1X351500Y292994D2*
G1X351500Y295243D1*
G1X351500Y295243D2*
G1X348501Y295243D1*
G1X351500Y297493D2*
G1X350751Y296743D1*
G1X351500Y299742D2*
G1X351500Y297493D1*
G1X351500Y301242D2*
G1X351500Y302741D1*
G1X351500Y301991D2*
G1X347002Y301991D1*
G1X351500Y302741D2*
G1X351500Y301991D1*
G1X351500Y304990D2*
G1X351500Y306490D1*
G1X351500Y305740D2*
G1X347002Y305740D1*
G1X351500Y306490D2*
G1X351500Y305740D1*
G1X351500Y309489D2*
G1X351500Y311738D1*
G1X351500Y311738D2*
G1X348501Y311738D1*
G1X351500Y311738D2*
G1X352250Y311738D1*
G1X351500Y317736D2*
G1X350001Y317736D1*
G1X351500Y322985D2*
G1X351500Y324484D1*
G1X351500Y324484D2*
G1X350751Y325234D1*
G1X351500Y327483D2*
G1X351500Y329732D1*
G1X351500Y329732D2*
G1X348501Y329732D1*
G1X351500Y335730D2*
G1X350751Y334981D1*
G1X351500Y337230D2*
G1X351500Y335730D1*
G1X351500Y340229D2*
G1X350751Y339479D1*
G1X351500Y342478D2*
G1X351500Y340229D1*
G1X351500Y343978D2*
G1X350001Y345477D1*
G1X352000Y45000D2*
G54D30*
G1X356500Y40500D1*
G1X352000Y134000D2*
G1X352000Y138000D1*
G1X352000Y134000D2*
G1X355500Y130500D1*
G1X352000Y155000D2*
G1X356500Y150500D1*
G1X352250Y311738D2*
G54D13*
G1X353000Y310988D1*
G1X353000Y310988D2*
G1X353000Y310239D1*
G1X354500Y260500D2*
G54D31*
G1X365500Y260500D1*
G1X355500Y130500D2*
G54D30*
G1X365500Y130500D1*
G1X356500Y40500D2*
G1X365500Y40500D1*
G1X356500Y60500D2*
G1X365500Y60500D1*
G1X356500Y110500D2*
G1X365500Y110500D1*
G1X356500Y120500D2*
G1X365500Y120500D1*
G1X356500Y140500D2*
G1X365500Y140500D1*
G1X356500Y150500D2*
G1X365500Y150500D1*
G1X356500Y200500D2*
G1X365500Y200500D1*
G1X356500Y220500D2*
G1X365500Y220500D1*
G54D33*
G1X15000Y12500D3*
G1X15000Y337500D3*
G54D34*
G1X20000Y25000D3*
G54D35*
G1X20000Y35000D3*
G54D34*
G1X20000Y45000D3*
G1X20000Y65000D3*
G54D35*
G1X20000Y75000D3*
G54D34*
G1X20000Y85000D3*
G1X20000Y105000D3*
G54D35*
G1X20000Y115000D3*
G54D34*
G1X20000Y125000D3*
G1X20000Y145000D3*
G54D35*
G1X20000Y155000D3*
G54D34*
G1X20000Y165000D3*
G1X20000Y185000D3*
G54D35*
G1X20000Y195000D3*
G54D34*
G1X20000Y205000D3*
G1X20000Y225000D3*
G54D35*
G1X20000Y235000D3*
G54D34*
G1X20000Y245000D3*
G1X20000Y265000D3*
G54D35*
G1X20000Y275000D3*
G54D34*
G1X20000Y285000D3*
G1X20000Y305000D3*
G54D35*
G1X20000Y315000D3*
G54D34*
G1X20000Y325000D3*
G54D36*
G1X29500Y175000D3*
G54D37*
G1X37500Y35000D3*
G1X37500Y75000D3*
G1X37500Y115000D3*
G1X37500Y155000D3*
G1X37500Y195000D3*
G1X37500Y235000D3*
G1X37500Y275000D3*
G1X37500Y315000D3*
G54D31*
G1X40000Y25000D3*
G1X40000Y45000D3*
G1X40000Y65000D3*
G1X40000Y85000D3*
G1X40000Y105000D3*
G1X40000Y125000D3*
G1X40000Y145000D3*
G1X40000Y165000D3*
G1X40000Y185000D3*
G1X40000Y205000D3*
G1X40000Y225000D3*
G1X40000Y245000D3*
G1X40000Y265000D3*
G1X40000Y285000D3*
G1X40000Y305000D3*
G1X40000Y325000D3*
G54D38*
G1X42000Y55000D3*
G1X42000Y95000D3*
G1X42000Y135000D3*
G1X42000Y175000D3*
G1X42000Y215000D3*
G1X42000Y255000D3*
G1X42000Y295000D3*
G54D39*
G1X42000Y339000D3*
G54D40*
G1X52500Y175000D3*
G54D41*
G1X67250Y11000D3*
G54D31*
G1X70000Y25000D3*
G1X70000Y45000D3*
G1X70000Y65000D3*
G1X70000Y85000D3*
G1X70000Y105000D3*
G1X70000Y125000D3*
G1X70000Y145000D3*
G1X70000Y165000D3*
G1X70000Y185000D3*
G1X70000Y205000D3*
G1X70000Y225000D3*
G1X70000Y245000D3*
G1X70000Y265000D3*
G1X70000Y285000D3*
G1X70000Y305000D3*
G1X70000Y325000D3*
G1X95000Y233000D3*
G1X95000Y263000D3*
G54D34*
G1X95000Y280000D3*
G54D42*
G1X95000Y305000D3*
G54D34*
G1X100000Y25000D3*
G1X100000Y35000D3*
G1X100000Y45000D3*
G1X100000Y55000D3*
G1X100000Y65000D3*
G1X100000Y75000D3*
G1X100000Y85000D3*
G1X100000Y95000D3*
G1X100000Y105000D3*
G1X100000Y115000D3*
G1X100000Y125000D3*
G1X100000Y135000D3*
G1X100000Y145000D3*
G1X100000Y155000D3*
G1X100000Y165000D3*
G1X100000Y175000D3*
G1X100000Y185000D3*
G1X100000Y195000D3*
G1X100000Y205000D3*
G54D35*
G1X100000Y215000D3*
G54D31*
G1X105000Y233000D3*
G1X105000Y263000D3*
G54D35*
G1X105000Y280000D3*
G54D42*
G1X105000Y305000D3*
G54D31*
G1X115000Y233000D3*
G1X115000Y263000D3*
G54D43*
G1X115000Y325000D3*
G54D44*
G1X120000Y116250D3*
G54D31*
G1X125000Y233000D3*
G1X125000Y263000D3*
G54D35*
G1X125000Y280000D3*
G54D42*
G1X125000Y305000D3*
G54D31*
G1X135000Y233000D3*
G1X135000Y263000D3*
G54D34*
G1X135000Y280000D3*
G54D42*
G1X135000Y305000D3*
G54D45*
G1X140000Y111250D3*
G54D31*
G1X145000Y233000D3*
G1X145000Y263000D3*
G1X147500Y305000D3*
G1X147500Y335000D3*
G1X157500Y305000D3*
G1X157500Y335000D3*
G54D34*
G1X160000Y25000D3*
G1X160000Y35000D3*
G1X160000Y45000D3*
G1X160000Y55000D3*
G1X160000Y65000D3*
G1X160000Y75000D3*
G1X160000Y85000D3*
G1X160000Y95000D3*
G1X160000Y105000D3*
G1X160000Y115000D3*
G1X160000Y125000D3*
G1X160000Y135000D3*
G1X160000Y145000D3*
G1X160000Y155000D3*
G1X160000Y165000D3*
G1X160000Y175000D3*
G1X160000Y185000D3*
G1X160000Y195000D3*
G1X160000Y205000D3*
G1X160000Y215000D3*
G54D31*
G1X162500Y233000D3*
G1X162500Y253000D3*
G54D43*
G1X170000Y318000D3*
G1X170000Y338000D3*
G54D35*
G1X178000Y228000D3*
G1X180000Y25000D3*
G54D34*
G1X180000Y55000D3*
G54D35*
G1X180000Y75000D3*
G54D34*
G1X180000Y105000D3*
G54D46*
G1X185250Y7500D3*
G54D34*
G1X186000Y228000D3*
G54D31*
G1X186000Y238000D3*
G1X186000Y258000D3*
G54D34*
G1X190000Y25000D3*
G1X190000Y55000D3*
G1X190000Y75000D3*
G1X190000Y105000D3*
G54D35*
G1X193500Y278500D3*
G54D34*
G1X193500Y286500D3*
G1X200000Y25000D3*
G1X200000Y55000D3*
G1X200000Y75000D3*
G1X200000Y105000D3*
G54D47*
G1X205000Y210000D3*
G54D34*
G1X205000Y228000D3*
G1X205000Y258000D3*
G54D31*
G1X209000Y289000D3*
G54D34*
G1X210000Y25000D3*
G1X210000Y55000D3*
G1X210000Y75000D3*
G1X210000Y105000D3*
G54D43*
G1X210000Y328000D3*
G54D34*
G1X215000Y228000D3*
G1X215000Y258000D3*
G1X218000Y271000D3*
G1X220000Y25000D3*
G1X220000Y55000D3*
G1X220000Y75000D3*
G1X220000Y105000D3*
G1X225000Y228000D3*
G1X225000Y258000D3*
G1X228000Y271000D3*
G54D31*
G1X229000Y289000D3*
G54D34*
G1X230000Y25000D3*
G1X230000Y55000D3*
G1X230000Y75000D3*
G1X230000Y105000D3*
G54D31*
G1X230000Y308000D3*
G1X230000Y328000D3*
G54D34*
G1X235000Y228000D3*
G54D35*
G1X235000Y258000D3*
G54D48*
G1X238000Y8500D3*
G54D34*
G1X240000Y25000D3*
G1X240000Y55000D3*
G1X240000Y75000D3*
G1X240000Y105000D3*
G54D47*
G1X250000Y210000D3*
G54D31*
G1X254000Y25000D3*
G1X254000Y45000D3*
G1X254000Y75000D3*
G1X254000Y95000D3*
G1X254000Y228000D3*
G1X254000Y248000D3*
G54D35*
G1X270000Y236000D3*
G54D34*
G1X270000Y244000D3*
G1X275000Y45000D3*
G1X275000Y55000D3*
G1X275000Y65000D3*
G1X275000Y75000D3*
G1X275000Y85000D3*
G1X275000Y95000D3*
G1X275000Y105000D3*
G54D49*
G1X280000Y14000D3*
G54D31*
G1X285000Y119000D3*
G54D43*
G1X290000Y282500D3*
G54D47*
G1X290000Y322500D3*
G54D35*
G1X305000Y45000D3*
G54D34*
G1X305000Y55000D3*
G1X305000Y65000D3*
G1X305000Y75000D3*
G1X305000Y85000D3*
G1X305000Y95000D3*
G1X305000Y105000D3*
G54D31*
G1X305000Y119000D3*
G54D50*
G1X308000Y9500D3*
G54D34*
G1X332000Y21000D3*
G54D35*
G1X340000Y21000D3*
G54D34*
G1X340000Y186500D3*
G54D35*
G1X340000Y194500D3*
G54D51*
G1X341000Y12750D3*
G54D52*
G1X342000Y21000D3*
G54D33*
G1X365000Y12500D3*
G1X365000Y337500D3*
G54D20*
G1X365500Y40500D3*
G1X365500Y50500D3*
G1X365500Y60500D3*
G1X365500Y70500D3*
G1X365500Y90500D3*
G1X365500Y100500D3*
G1X365500Y110500D3*
G1X365500Y120500D3*
G1X365500Y130500D3*
G1X365500Y140500D3*
G1X365500Y150500D3*
G1X365500Y160500D3*
G1X365500Y170500D3*
G1X365500Y180500D3*
G1X365500Y190500D3*
G1X365500Y200500D3*
G1X365500Y210500D3*
G1X365500Y220500D3*
G1X365500Y230500D3*
G1X365500Y240500D3*
G1X365500Y250500D3*
G1X365500Y260500D3*
G1X365500Y270500D3*
G1X365500Y280500D3*
G1X365500Y290500D3*
G1X365500Y300500D3*
G1X365500Y310500D3*
G54D34*
G1X115000Y17000D3*
G1X125000Y17000D3*
G54D15*
G1X240000Y185000D3*
G1X245000Y180000D3*
G1X252500Y185000D3*
G1X262500Y130000D3*
G1X262500Y175000D3*
G1X267500Y140000D3*
G1X270000Y170000D3*
G54D34*
G1X275000Y21000D3*
G54D15*
G1X275000Y140000D3*
G54D34*
G1X285000Y21000D3*
G1X285000Y180000D3*
G1X305000Y180000D3*
G54D15*
G1X310000Y27500D3*
G1X320000Y32500D3*
G1X327500Y127500D3*
G1X327500Y165000D3*
G1X327500Y172500D3*
G1X338500Y142500D3*
G1X338500Y172500D3*
G54D34*
G1X340000Y225000D3*
G1X341000Y9500D3*
G54D15*
G1X342500Y115000D3*
G1X344000Y125500D3*
G1X344000Y160000D3*
G1X345000Y267500D3*
G1X346500Y136000D3*
G1X347500Y150000D3*
G1X350000Y37500D3*
G1X350000Y190000D3*
M2*
