*
%LPD*%
%LNTOPOVERLAY*%
%FSLAX25Y25*%
%MOIN*%
%AD*%
%AD*%
%ADD10C,0.005*%
%ADD11C,0.002*%
%ADD12C,0.008*%
%ADD13C,0.01*%
%ADD14C,0.004*%
%ADD15C,0.04*%
%ADD16R,0.01X0.08*%
%ADD17R,0.08X0.01*%
%ADD18R,0.05X0.04*%
%ADD19R,0.2X0.015*%
G54D10*
%SRX1Y1I0.0J0.0*%
G1X26710Y25052D2*
G75*
G3X13290Y25052I-6710J9949D1*
G1X26710Y65052D2*
G3X13290Y65052I-6710J9949D1*
G1X26710Y105052D2*
G3X13290Y105052I-6710J9949D1*
G1X26710Y145052D2*
G3X13290Y145052I-6710J9949D1*
G1X26710Y185052D2*
G3X13290Y185052I-6710J9949D1*
G1X26710Y225052D2*
G3X13290Y225052I-6710J9949D1*
G1X26710Y265052D2*
G3X13290Y265052I-6710J9949D1*
G1X26710Y305052D2*
G3X13290Y305052I-6710J9949D1*
G1X30000Y35000D2*
G54D11*
G3X30000Y35000I-10000J0D1*
G1X30000Y75000D2*
G3X30000Y75000I-10000J0D1*
G1X30000Y115000D2*
G3X30000Y115000I-10000J0D1*
G1X30000Y155000D2*
G3X30000Y155000I-10000J0D1*
G1X30000Y195000D2*
G3X30000Y195000I-10000J0D1*
G1X30000Y235000D2*
G3X30000Y235000I-10000J0D1*
G1X30000Y275000D2*
G3X30000Y275000I-10000J0D1*
G1X30000Y315000D2*
G3X30000Y315000I-10000J0D1*
G1X110000Y280000D2*
G54D12*
G3X110000Y280000I-10000J0D1*
G1X125000Y220000D2*
G54D13*
G3X135000Y220000I5000J0D1*
G1X140000Y280000D2*
G54D12*
G3X140000Y280000I-10000J0D1*
G1X157500Y231000D2*
G3X159500Y229000I2000J0D1*
G1X159500Y257000D2*
G3X157500Y255000I0J-2000D1*
G1X165500Y229000D2*
G3X167500Y231000I0J2000D1*
G1X167500Y255000D2*
G3X165500Y257000I-2000J0D1*
G1X169518Y212068D2*
G3X169518Y215932I-519J1932D1*
G1X175000Y37500D2*
G54D13*
G3X175000Y42500I0J2500D1*
G1X175000Y87500D2*
G3X175000Y92500I0J2500D1*
G1X177568Y294982D2*
G54D12*
G3X181432Y294982I1932J518D1*
G1X181432Y270018D2*
G3X177568Y270018I-1932J-519D1*
G1X194482Y215932D2*
G3X194482Y212068I518J-1932D1*
G1X195000Y328000D2*
G54D14*
G3X195000Y328000I-5000J0D1*
G1X212500Y328000D2*
G3X212500Y328000I-22500J0D1*
G1X213500Y271000D2*
G54D10*
G3X217500Y267000I4000J0D1*
G1X217500Y275000D2*
G3X213500Y271000I0J-4000D1*
G1X228500Y267000D2*
G3X232500Y271000I0J4000D1*
G1X232500Y271000D2*
G3X228500Y275000I-4000J0D1*
G1X240000Y245500D2*
G54D13*
G3X240000Y240500I0J-2500D1*
G1X249000Y23000D2*
G54D12*
G3X251000Y21000I2000J0D1*
G1X249000Y73000D2*
G3X251000Y71000I2000J0D1*
G1X251000Y49000D2*
G3X249000Y47000I0J-2000D1*
G1X251000Y99000D2*
G3X249000Y97000I0J-2000D1*
G1X257000Y21000D2*
G3X259000Y23000I0J2000D1*
G1X257000Y71000D2*
G3X259000Y73000I0J2000D1*
G1X259000Y47000D2*
G3X257000Y49000I-2000J0D1*
G1X259000Y97000D2*
G3X257000Y99000I-2000J0D1*
G1X273000Y302500D2*
G54D14*
G3X273000Y302500I-3000J0D1*
G1X275500Y292500D2*
G3X275500Y292500I-3000J0D1*
G1X275500Y312500D2*
G3X275500Y312500I-3000J0D1*
G1X281000Y116000D2*
G54D12*
G3X283000Y114000I2000J0D1*
G1X282068Y252482D2*
G3X285932Y252482I1932J518D1*
G1X283000Y124000D2*
G3X281000Y122000I0J-2000D1*
G1X283000Y285000D2*
G54D14*
G3X283000Y285000I-3000J0D1*
G1X283000Y302500D2*
G3X283000Y302500I-3000J0D1*
G1X283000Y320000D2*
G3X283000Y320000I-3000J0D1*
G1X285500Y295000D2*
G3X285500Y295000I-3000J0D1*
G1X285500Y310000D2*
G3X285500Y310000I-3000J0D1*
G1X285932Y227518D2*
G54D12*
G3X282068Y227518I-1932J-519D1*
G1X292500Y40000D2*
G54D13*
G3X287500Y40000I-2500J0D1*
G1X293000Y292500D2*
G54D14*
G3X293000Y292500I-3000J0D1*
G1X293000Y302500D2*
G3X293000Y302500I-3000J0D1*
G1X293000Y312500D2*
G3X293000Y312500I-3000J0D1*
G1X300500Y295000D2*
G3X300500Y295000I-3000J0D1*
G1X300500Y310000D2*
G3X300500Y310000I-3000J0D1*
G1X303000Y285000D2*
G3X303000Y285000I-3000J0D1*
G1X303000Y302500D2*
G3X303000Y302500I-3000J0D1*
G1X303000Y320000D2*
G3X303000Y320000I-3000J0D1*
G1X307000Y114000D2*
G54D12*
G3X309000Y116000I0J2000D1*
G1X309000Y122000D2*
G3X307000Y124000I-2000J0D1*
G1X310500Y292500D2*
G54D14*
G3X310500Y292500I-3000J0D1*
G1X310500Y312500D2*
G3X310500Y312500I-3000J0D1*
G1X313000Y302500D2*
G3X313000Y302500I-3000J0D1*
G1X323518Y33068D2*
G54D12*
G3X323518Y36932I-519J1932D1*
G1X324068Y202982D2*
G3X327932Y202982I1932J518D1*
G1X327932Y178018D2*
G3X324068Y178018I-1932J-519D1*
G1X335000Y302500D2*
G54D13*
G3X335000Y302500I-45000J0D1*
G1X348482Y36932D2*
G54D12*
G3X348482Y33068I518J-1932D1*
G1X13500Y25000D2*
G54D10*
G1X26500Y25000D1*
G1X13500Y65000D2*
G1X26500Y65000D1*
G1X13500Y105000D2*
G1X26500Y105000D1*
G1X13500Y145000D2*
G1X26500Y145000D1*
G1X13500Y185000D2*
G1X26500Y185000D1*
G1X13500Y225000D2*
G1X26500Y225000D1*
G1X13500Y265000D2*
G1X26500Y265000D1*
G1X13500Y305000D2*
G1X26500Y305000D1*
G1X15500Y36000D2*
G54D14*
G1X15500Y34001D1*
G1X15500Y76000D2*
G1X15500Y74001D1*
G1X15500Y116000D2*
G1X15500Y114001D1*
G1X15500Y156000D2*
G1X15500Y154001D1*
G1X15500Y196000D2*
G1X15500Y194001D1*
G1X15500Y236000D2*
G1X15500Y234001D1*
G1X15500Y276000D2*
G1X15500Y274001D1*
G1X15500Y316000D2*
G1X15500Y314001D1*
G1X16499Y35000D2*
G1X14500Y35000D1*
G1X16499Y75000D2*
G1X14500Y75000D1*
G1X16499Y115000D2*
G1X14500Y115000D1*
G1X16499Y155000D2*
G1X14500Y155000D1*
G1X16499Y195000D2*
G1X14500Y195000D1*
G1X16499Y235000D2*
G1X14500Y235000D1*
G1X16499Y275000D2*
G1X14500Y275000D1*
G1X16499Y315000D2*
G1X14500Y315000D1*
G1X18000Y29000D2*
G1X22000Y29000D1*
G1X18000Y31000D2*
G1X20000Y29000D1*
G1X18000Y31000D2*
G1X22000Y31000D1*
G1X18000Y39000D2*
G1X20000Y41000D1*
G1X18000Y39000D2*
G1X22000Y39000D1*
G1X18000Y41000D2*
G1X22000Y41000D1*
G1X18000Y69000D2*
G1X22000Y69000D1*
G1X18000Y71000D2*
G1X20000Y69000D1*
G1X18000Y71000D2*
G1X22000Y71000D1*
G1X18000Y79000D2*
G1X20000Y81000D1*
G1X18000Y79000D2*
G1X22000Y79000D1*
G1X18000Y81000D2*
G1X22000Y81000D1*
G1X18000Y109000D2*
G1X22000Y109000D1*
G1X18000Y111000D2*
G1X20000Y109000D1*
G1X18000Y111000D2*
G1X22000Y111000D1*
G1X18000Y119000D2*
G1X20000Y121000D1*
G1X18000Y119000D2*
G1X22000Y119000D1*
G1X18000Y121000D2*
G1X22000Y121000D1*
G1X18000Y149000D2*
G1X22000Y149000D1*
G1X18000Y151000D2*
G1X20000Y149000D1*
G1X18000Y151000D2*
G1X22000Y151000D1*
G1X18000Y159000D2*
G1X20000Y161000D1*
G1X18000Y159000D2*
G1X22000Y159000D1*
G1X18000Y161000D2*
G1X22000Y161000D1*
G1X18000Y189000D2*
G1X22000Y189000D1*
G1X18000Y191000D2*
G1X20000Y189000D1*
G1X18000Y191000D2*
G1X22000Y191000D1*
G1X18000Y199000D2*
G1X20000Y201000D1*
G1X18000Y199000D2*
G1X22000Y199000D1*
G1X18000Y201000D2*
G1X22000Y201000D1*
G1X18000Y229000D2*
G1X22000Y229000D1*
G1X18000Y231000D2*
G1X20000Y229000D1*
G1X18000Y231000D2*
G1X22000Y231000D1*
G1X18000Y239000D2*
G1X20000Y241000D1*
G1X18000Y239000D2*
G1X22000Y239000D1*
G1X18000Y241000D2*
G1X22000Y241000D1*
G1X18000Y269000D2*
G1X22000Y269000D1*
G1X18000Y271000D2*
G1X20000Y269000D1*
G1X18000Y271000D2*
G1X22000Y271000D1*
G1X18000Y279000D2*
G1X20000Y281000D1*
G1X18000Y279000D2*
G1X22000Y279000D1*
G1X18000Y281000D2*
G1X22000Y281000D1*
G1X18000Y309000D2*
G1X22000Y309000D1*
G1X18000Y311000D2*
G1X20000Y309000D1*
G1X18000Y311000D2*
G1X22000Y311000D1*
G1X18000Y319000D2*
G1X20000Y321000D1*
G1X18000Y319000D2*
G1X22000Y319000D1*
G1X18000Y321000D2*
G1X22000Y321000D1*
G1X20000Y25000D2*
G1X20000Y29000D1*
G1X20000Y29000D2*
G1X22000Y31000D1*
G1X20000Y31000D2*
G1X20000Y39000D1*
G1X20000Y41000D2*
G1X20000Y45000D1*
G1X20000Y41000D2*
G1X22000Y39000D1*
G1X20000Y65000D2*
G1X20000Y69000D1*
G1X20000Y69000D2*
G1X22000Y71000D1*
G1X20000Y71000D2*
G1X20000Y79000D1*
G1X20000Y81000D2*
G1X20000Y85000D1*
G1X20000Y81000D2*
G1X22000Y79000D1*
G1X20000Y105000D2*
G1X20000Y109000D1*
G1X20000Y109000D2*
G1X22000Y111000D1*
G1X20000Y111000D2*
G1X20000Y119000D1*
G1X20000Y121000D2*
G1X20000Y125000D1*
G1X20000Y121000D2*
G1X22000Y119000D1*
G1X20000Y145000D2*
G1X20000Y149000D1*
G1X20000Y149000D2*
G1X22000Y151000D1*
G1X20000Y151000D2*
G1X20000Y159000D1*
G1X20000Y161000D2*
G1X20000Y165000D1*
G1X20000Y161000D2*
G1X22000Y159000D1*
G1X20000Y185000D2*
G1X20000Y189000D1*
G1X20000Y189000D2*
G1X22000Y191000D1*
G1X20000Y191000D2*
G1X20000Y199000D1*
G1X20000Y201000D2*
G1X20000Y205000D1*
G1X20000Y201000D2*
G1X22000Y199000D1*
G1X20000Y225000D2*
G1X20000Y229000D1*
G1X20000Y229000D2*
G1X22000Y231000D1*
G1X20000Y231000D2*
G1X20000Y239000D1*
G1X20000Y241000D2*
G1X20000Y245000D1*
G1X20000Y241000D2*
G1X22000Y239000D1*
G1X20000Y265000D2*
G1X20000Y269000D1*
G1X20000Y269000D2*
G1X22000Y271000D1*
G1X20000Y271000D2*
G1X20000Y279000D1*
G1X20000Y281000D2*
G1X20000Y285000D1*
G1X20000Y281000D2*
G1X22000Y279000D1*
G1X20000Y305000D2*
G1X20000Y309000D1*
G1X20000Y309000D2*
G1X22000Y311000D1*
G1X20000Y311000D2*
G1X20000Y319000D1*
G1X20000Y321000D2*
G1X20000Y325000D1*
G1X20000Y321000D2*
G1X22000Y319000D1*
G1X23100Y90700D2*
G54D12*
G1X25599Y90700D1*
G1X23100Y95698D2*
G1X23100Y90700D1*
G1X23100Y130700D2*
G1X25599Y130700D1*
G1X23100Y135698D2*
G1X23100Y130700D1*
G1X23100Y170700D2*
G1X25599Y170700D1*
G1X23100Y175698D2*
G1X23100Y170700D1*
G1X23100Y210700D2*
G1X25599Y210700D1*
G1X23100Y215698D2*
G1X23100Y210700D1*
G1X23100Y250700D2*
G1X25599Y250700D1*
G1X23100Y255698D2*
G1X23100Y250700D1*
G1X23100Y290700D2*
G1X25599Y290700D1*
G1X23100Y295698D2*
G1X23100Y290700D1*
G1X23100Y330700D2*
G1X25599Y330700D1*
G1X23100Y335698D2*
G1X23100Y330700D1*
G1X24500Y36000D2*
G54D14*
G1X24500Y34001D1*
G1X24500Y76000D2*
G1X24500Y74001D1*
G1X24500Y116000D2*
G1X24500Y114001D1*
G1X24500Y156000D2*
G1X24500Y154001D1*
G1X24500Y196000D2*
G1X24500Y194001D1*
G1X24500Y236000D2*
G1X24500Y234001D1*
G1X24500Y276000D2*
G1X24500Y274001D1*
G1X24500Y316000D2*
G1X24500Y314001D1*
G1X24800Y50700D2*
G54D12*
G1X27299Y50700D1*
G1X24800Y55698D2*
G1X24800Y50700D1*
G1X25499Y35000D2*
G54D14*
G1X23500Y35000D1*
G1X25499Y75000D2*
G1X23500Y75000D1*
G1X25499Y115000D2*
G1X23500Y115000D1*
G1X25499Y155000D2*
G1X23500Y155000D1*
G1X25499Y195000D2*
G1X23500Y195000D1*
G1X25499Y235000D2*
G1X23500Y235000D1*
G1X25499Y275000D2*
G1X23500Y275000D1*
G1X25499Y315000D2*
G1X23500Y315000D1*
G1X25599Y90700D2*
G54D12*
G1X26432Y91533D1*
G1X25599Y95698D2*
G1X23100Y95698D1*
G1X25599Y130700D2*
G1X26432Y131533D1*
G1X25599Y135698D2*
G1X23100Y135698D1*
G1X25599Y170700D2*
G1X26432Y171533D1*
G1X25599Y175698D2*
G1X23100Y175698D1*
G1X25599Y210700D2*
G1X26432Y211533D1*
G1X25599Y215698D2*
G1X23100Y215698D1*
G1X25599Y250700D2*
G1X26432Y251533D1*
G1X25599Y255698D2*
G1X23100Y255698D1*
G1X25599Y290700D2*
G1X26432Y291533D1*
G1X25599Y295698D2*
G1X23100Y295698D1*
G1X25599Y330700D2*
G1X26432Y331533D1*
G1X25599Y335698D2*
G1X23100Y335698D1*
G1X26432Y91533D2*
G1X26432Y94865D1*
G1X26432Y94865D2*
G1X25599Y95698D1*
G1X26432Y131533D2*
G1X26432Y134865D1*
G1X26432Y134865D2*
G1X25599Y135698D1*
G1X26432Y171533D2*
G1X26432Y174865D1*
G1X26432Y174865D2*
G1X25599Y175698D1*
G1X26432Y211533D2*
G1X26432Y214865D1*
G1X26432Y214865D2*
G1X25599Y215698D1*
G1X26432Y251533D2*
G1X26432Y254865D1*
G1X26432Y254865D2*
G1X25599Y255698D1*
G1X26432Y291533D2*
G1X26432Y294865D1*
G1X26432Y294865D2*
G1X25599Y295698D1*
G1X26432Y331533D2*
G1X26432Y334865D1*
G1X26432Y334865D2*
G1X25599Y335698D1*
G1X27299Y50700D2*
G1X28132Y51533D1*
G1X27299Y55698D2*
G1X24800Y55698D1*
G1X28098Y90700D2*
G1X31431Y94032D1*
G1X28098Y134865D2*
G1X28931Y135698D1*
G1X28098Y173199D2*
G1X31431Y173199D1*
G1X28098Y213199D2*
G1X29765Y214032D1*
G1X28098Y215698D2*
G1X28098Y213199D1*
G1X28098Y251533D2*
G1X28931Y250700D1*
G1X28098Y253199D2*
G1X28098Y251533D1*
G1X28098Y291533D2*
G1X28098Y290700D1*
G1X28098Y295698D2*
G1X31431Y295698D1*
G1X28098Y331533D2*
G1X28098Y332366D1*
G1X28098Y332366D2*
G1X28931Y333199D1*
G1X28098Y334032D2*
G1X28098Y334865D1*
G1X28098Y334865D2*
G1X28931Y335698D1*
G1X28132Y51533D2*
G1X28132Y54865D1*
G1X28132Y54865D2*
G1X27299Y55698D1*
G1X28931Y95698D2*
G1X28098Y94865D1*
G1X28931Y130700D2*
G1X28098Y131533D1*
G1X28931Y135698D2*
G1X30598Y135698D1*
G1X28931Y210700D2*
G1X28098Y211533D1*
G1X28931Y250700D2*
G1X30598Y250700D1*
G1X28931Y330700D2*
G1X28098Y331533D1*
G1X28931Y333199D2*
G1X28098Y334032D1*
G1X28931Y333199D2*
G1X30598Y333199D1*
G1X28931Y335698D2*
G1X30598Y335698D1*
G1X29765Y133199D2*
G1X30598Y133199D1*
G1X29765Y214032D2*
G1X30598Y214032D1*
G1X29765Y254865D2*
G1X28098Y253199D1*
G1X29798Y50700D2*
G1X31465Y50700D1*
G1X30598Y95698D2*
G1X28931Y95698D1*
G1X30598Y130700D2*
G1X28931Y130700D1*
G1X30598Y133199D2*
G1X29765Y133199D1*
G1X30598Y133199D2*
G1X31431Y132366D1*
G1X30598Y135698D2*
G1X31431Y134865D1*
G1X30598Y170700D2*
G1X30598Y175698D1*
G1X30598Y175698D2*
G1X28098Y173199D1*
G1X30598Y210700D2*
G1X28931Y210700D1*
G1X30598Y214032D2*
G1X31431Y213199D1*
G1X30598Y250700D2*
G1X31431Y251533D1*
G1X30598Y253199D2*
G1X28098Y253199D1*
G1X30598Y330700D2*
G1X28931Y330700D1*
G1X30598Y333199D2*
G1X31431Y332366D1*
G1X30598Y335698D2*
G1X31431Y334865D1*
G1X30631Y50700D2*
G1X30631Y55698D1*
G1X30631Y55698D2*
G1X29798Y54865D1*
G1X31431Y90700D2*
G1X28098Y90700D1*
G1X31431Y94032D2*
G1X31431Y94865D1*
G1X31431Y94865D2*
G1X30598Y95698D1*
G1X31431Y131533D2*
G1X30598Y130700D1*
G1X31431Y132366D2*
G1X31431Y131533D1*
G1X31431Y134032D2*
G1X30598Y133199D1*
G1X31431Y134865D2*
G1X31431Y134032D1*
G1X31431Y211533D2*
G1X30598Y210700D1*
G1X31431Y213199D2*
G1X31431Y211533D1*
G1X31431Y215698D2*
G1X28098Y215698D1*
G1X31431Y251533D2*
G1X31431Y252366D1*
G1X31431Y252366D2*
G1X30598Y253199D1*
G1X31431Y255698D2*
G1X29765Y254865D1*
G1X31431Y294865D2*
G1X28098Y291533D1*
G1X31431Y295698D2*
G1X31431Y294865D1*
G1X31431Y331533D2*
G1X30598Y330700D1*
G1X31431Y332366D2*
G1X31431Y331533D1*
G1X31431Y334032D2*
G1X30598Y333199D1*
G1X31431Y334865D2*
G1X31431Y334032D1*
G1X31465Y50700D2*
G1X30631Y50700D1*
G1X40000Y25000D2*
G1X43000Y25000D1*
G1X40000Y45000D2*
G1X43000Y45000D1*
G1X40000Y65000D2*
G1X43000Y65000D1*
G1X40000Y85000D2*
G1X43000Y85000D1*
G1X40000Y105000D2*
G1X43000Y105000D1*
G1X40000Y125000D2*
G1X43000Y125000D1*
G1X40000Y145000D2*
G1X43000Y145000D1*
G1X40000Y165000D2*
G1X43000Y165000D1*
G1X40000Y185000D2*
G1X43000Y185000D1*
G1X40000Y205000D2*
G1X43000Y205000D1*
G1X40000Y225000D2*
G1X43000Y225000D1*
G1X40000Y245000D2*
G1X43000Y245000D1*
G1X40000Y265000D2*
G1X43000Y265000D1*
G1X40000Y285000D2*
G1X43000Y285000D1*
G1X40000Y305000D2*
G1X43000Y305000D1*
G1X40000Y325000D2*
G1X43000Y325000D1*
G1X43000Y21000D2*
G1X43000Y29000D1*
G1X43000Y21000D2*
G1X67000Y21000D1*
G1X43000Y29000D2*
G1X67000Y29000D1*
G1X43000Y41000D2*
G1X43000Y49000D1*
G1X43000Y41000D2*
G1X67000Y41000D1*
G1X43000Y49000D2*
G1X67000Y49000D1*
G1X43000Y61000D2*
G1X43000Y69000D1*
G1X43000Y61000D2*
G1X67000Y61000D1*
G1X43000Y69000D2*
G1X67000Y69000D1*
G1X43000Y81000D2*
G1X43000Y89000D1*
G1X43000Y81000D2*
G1X67000Y81000D1*
G1X43000Y89000D2*
G1X67000Y89000D1*
G1X43000Y101000D2*
G1X43000Y109000D1*
G1X43000Y101000D2*
G1X67000Y101000D1*
G1X43000Y109000D2*
G1X67000Y109000D1*
G1X43000Y121000D2*
G1X43000Y129000D1*
G1X43000Y121000D2*
G1X67000Y121000D1*
G1X43000Y129000D2*
G1X67000Y129000D1*
G1X43000Y141000D2*
G1X43000Y149000D1*
G1X43000Y141000D2*
G1X67000Y141000D1*
G1X43000Y149000D2*
G1X67000Y149000D1*
G1X43000Y161000D2*
G1X43000Y169000D1*
G1X43000Y161000D2*
G1X67000Y161000D1*
G1X43000Y169000D2*
G1X67000Y169000D1*
G1X43000Y181000D2*
G1X43000Y189000D1*
G1X43000Y181000D2*
G1X67000Y181000D1*
G1X43000Y189000D2*
G1X67000Y189000D1*
G1X43000Y201000D2*
G1X43000Y209000D1*
G1X43000Y201000D2*
G1X67000Y201000D1*
G1X43000Y209000D2*
G1X67000Y209000D1*
G1X43000Y221000D2*
G1X43000Y229000D1*
G1X43000Y221000D2*
G1X67000Y221000D1*
G1X43000Y229000D2*
G1X67000Y229000D1*
G1X43000Y241000D2*
G1X43000Y249000D1*
G1X43000Y241000D2*
G1X67000Y241000D1*
G1X43000Y249000D2*
G1X67000Y249000D1*
G1X43000Y261000D2*
G1X43000Y269000D1*
G1X43000Y261000D2*
G1X67000Y261000D1*
G1X43000Y269000D2*
G1X67000Y269000D1*
G1X43000Y281000D2*
G1X43000Y289000D1*
G1X43000Y281000D2*
G1X67000Y281000D1*
G1X43000Y289000D2*
G1X67000Y289000D1*
G1X43000Y301000D2*
G1X43000Y309000D1*
G1X43000Y301000D2*
G1X67000Y301000D1*
G1X43000Y309000D2*
G1X67000Y309000D1*
G1X43000Y321000D2*
G1X43000Y329000D1*
G1X43000Y321000D2*
G1X67000Y321000D1*
G1X43000Y329000D2*
G1X67000Y329000D1*
G1X60100Y92200D2*
G1X60100Y97198D1*
G1X60100Y97198D2*
G1X62599Y97198D1*
G1X60100Y172200D2*
G1X60100Y177198D1*
G1X60100Y177198D2*
G1X62599Y177198D1*
G1X60100Y212200D2*
G1X60100Y217198D1*
G1X60100Y217198D2*
G1X62599Y217198D1*
G1X60100Y252200D2*
G1X60100Y257198D1*
G1X60100Y257198D2*
G1X62599Y257198D1*
G1X60100Y292200D2*
G1X60100Y297198D1*
G1X60100Y297198D2*
G1X62599Y297198D1*
G1X60100Y332200D2*
G1X60100Y337198D1*
G1X60100Y337198D2*
G1X62599Y337198D1*
G1X61766Y93866D2*
G1X63432Y92200D1*
G1X61766Y173866D2*
G1X63432Y172200D1*
G1X61766Y213866D2*
G1X63432Y212200D1*
G1X61766Y253866D2*
G1X63432Y252200D1*
G1X61766Y293866D2*
G1X63432Y292200D1*
G1X61766Y333866D2*
G1X63432Y332200D1*
G1X61800Y132200D2*
G1X61800Y137198D1*
G1X61800Y137198D2*
G1X64299Y137198D1*
G1X62599Y93866D2*
G1X60100Y93866D1*
G1X62599Y97198D2*
G1X63432Y96365D1*
G1X62599Y173866D2*
G1X60100Y173866D1*
G1X62599Y177198D2*
G1X63432Y176365D1*
G1X62599Y213866D2*
G1X60100Y213866D1*
G1X62599Y217198D2*
G1X63432Y216365D1*
G1X62599Y253866D2*
G1X60100Y253866D1*
G1X62599Y257198D2*
G1X63432Y256365D1*
G1X62599Y293866D2*
G1X60100Y293866D1*
G1X62599Y297198D2*
G1X63432Y296365D1*
G1X62599Y333866D2*
G1X60100Y333866D1*
G1X62599Y337198D2*
G1X63432Y336365D1*
G1X63432Y94699D2*
G1X62599Y93866D1*
G1X63432Y96365D2*
G1X63432Y94699D1*
G1X63432Y174699D2*
G1X62599Y173866D1*
G1X63432Y176365D2*
G1X63432Y174699D1*
G1X63432Y214699D2*
G1X62599Y213866D1*
G1X63432Y216365D2*
G1X63432Y214699D1*
G1X63432Y254699D2*
G1X62599Y253866D1*
G1X63432Y256365D2*
G1X63432Y254699D1*
G1X63432Y294699D2*
G1X62599Y293866D1*
G1X63432Y296365D2*
G1X63432Y294699D1*
G1X63432Y334699D2*
G1X62599Y333866D1*
G1X63432Y336365D2*
G1X63432Y334699D1*
G1X63466Y133866D2*
G1X65132Y132200D1*
G1X64299Y133866D2*
G1X61800Y133866D1*
G1X64299Y137198D2*
G1X65132Y136365D1*
G1X64300Y52200D2*
G1X64300Y57198D1*
G1X64300Y57198D2*
G1X66799Y57198D1*
G1X64300Y72200D2*
G1X64300Y77198D1*
G1X64300Y77198D2*
G1X66799Y77198D1*
G1X64300Y112200D2*
G1X64300Y117198D1*
G1X64300Y117198D2*
G1X66799Y117198D1*
G1X64300Y152200D2*
G1X64300Y157198D1*
G1X64300Y157198D2*
G1X66799Y157198D1*
G1X64300Y192200D2*
G1X64300Y197198D1*
G1X64300Y197198D2*
G1X66799Y197198D1*
G1X64300Y232200D2*
G1X64300Y237198D1*
G1X64300Y237198D2*
G1X66799Y237198D1*
G1X64300Y272200D2*
G1X64300Y277198D1*
G1X64300Y277198D2*
G1X66799Y277198D1*
G1X64300Y312200D2*
G1X64300Y317198D1*
G1X64300Y317198D2*
G1X66799Y317198D1*
G1X65098Y92200D2*
G1X66765Y92200D1*
G1X65098Y172200D2*
G1X66765Y172200D1*
G1X65098Y212200D2*
G1X66765Y212200D1*
G1X65098Y252200D2*
G1X66765Y252200D1*
G1X65098Y292200D2*
G1X66765Y292200D1*
G1X65098Y332200D2*
G1X66765Y332200D1*
G1X65132Y134699D2*
G1X64299Y133866D1*
G1X65132Y136365D2*
G1X65132Y134699D1*
G1X65900Y32200D2*
G1X65900Y37198D1*
G1X65900Y37198D2*
G1X68399Y37198D1*
G1X65931Y92200D2*
G1X65931Y97198D1*
G1X65931Y97198D2*
G1X65098Y96365D1*
G1X65931Y172200D2*
G1X65931Y177198D1*
G1X65931Y177198D2*
G1X65098Y176365D1*
G1X65931Y212200D2*
G1X65931Y217198D1*
G1X65931Y217198D2*
G1X65098Y216365D1*
G1X65931Y252200D2*
G1X65931Y257198D1*
G1X65931Y257198D2*
G1X65098Y256365D1*
G1X65931Y292200D2*
G1X65931Y297198D1*
G1X65931Y297198D2*
G1X65098Y296365D1*
G1X65931Y332200D2*
G1X65931Y337198D1*
G1X65931Y337198D2*
G1X65098Y336365D1*
G1X65966Y53866D2*
G1X67632Y52200D1*
G1X65966Y73866D2*
G1X67632Y72200D1*
G1X65966Y113866D2*
G1X67632Y112200D1*
G1X65966Y153866D2*
G1X67632Y152200D1*
G1X65966Y193866D2*
G1X67632Y192200D1*
G1X65966Y233866D2*
G1X67632Y232200D1*
G1X65966Y273866D2*
G1X67632Y272200D1*
G1X65966Y313866D2*
G1X67632Y312200D1*
G1X66765Y92200D2*
G1X65931Y92200D1*
G1X66765Y172200D2*
G1X65931Y172200D1*
G1X66765Y212200D2*
G1X65931Y212200D1*
G1X66765Y252200D2*
G1X65931Y252200D1*
G1X66765Y292200D2*
G1X65931Y292200D1*
G1X66765Y332200D2*
G1X65931Y332200D1*
G1X66798Y132200D2*
G1X68465Y132200D1*
G1X66799Y53866D2*
G1X64300Y53866D1*
G1X66799Y57198D2*
G1X67632Y56365D1*
G1X66799Y73866D2*
G1X64300Y73866D1*
G1X66799Y77198D2*
G1X67632Y76365D1*
G1X66799Y113866D2*
G1X64300Y113866D1*
G1X66799Y117198D2*
G1X67632Y116365D1*
G1X66799Y153866D2*
G1X64300Y153866D1*
G1X66799Y157198D2*
G1X67632Y156365D1*
G1X66799Y193866D2*
G1X64300Y193866D1*
G1X66799Y197198D2*
G1X67632Y196365D1*
G1X66799Y233866D2*
G1X64300Y233866D1*
G1X66799Y237198D2*
G1X67632Y236365D1*
G1X66799Y273866D2*
G1X64300Y273866D1*
G1X66799Y277198D2*
G1X67632Y276365D1*
G1X66799Y313866D2*
G1X64300Y313866D1*
G1X66799Y317198D2*
G1X67632Y316365D1*
G1X67000Y21000D2*
G1X67000Y29000D1*
G1X67000Y25000D2*
G1X70000Y25000D1*
G1X67000Y41000D2*
G1X67000Y49000D1*
G1X67000Y45000D2*
G1X70000Y45000D1*
G1X67000Y61000D2*
G1X67000Y69000D1*
G1X67000Y65000D2*
G1X70000Y65000D1*
G1X67000Y81000D2*
G1X67000Y89000D1*
G1X67000Y85000D2*
G1X70000Y85000D1*
G1X67000Y101000D2*
G1X67000Y109000D1*
G1X67000Y105000D2*
G1X70000Y105000D1*
G1X67000Y121000D2*
G1X67000Y129000D1*
G1X67000Y125000D2*
G1X70000Y125000D1*
G1X67000Y141000D2*
G1X67000Y149000D1*
G1X67000Y145000D2*
G1X70000Y145000D1*
G1X67000Y161000D2*
G1X67000Y169000D1*
G1X67000Y165000D2*
G1X70000Y165000D1*
G1X67000Y181000D2*
G1X67000Y189000D1*
G1X67000Y185000D2*
G1X70000Y185000D1*
G1X67000Y201000D2*
G1X67000Y209000D1*
G1X67000Y205000D2*
G1X70000Y205000D1*
G1X67000Y221000D2*
G1X67000Y229000D1*
G1X67000Y225000D2*
G1X70000Y225000D1*
G1X67000Y241000D2*
G1X67000Y249000D1*
G1X67000Y245000D2*
G1X70000Y245000D1*
G1X67000Y261000D2*
G1X67000Y269000D1*
G1X67000Y265000D2*
G1X70000Y265000D1*
G1X67000Y281000D2*
G1X67000Y289000D1*
G1X67000Y285000D2*
G1X70000Y285000D1*
G1X67000Y301000D2*
G1X67000Y309000D1*
G1X67000Y305000D2*
G1X70000Y305000D1*
G1X67000Y321000D2*
G1X67000Y329000D1*
G1X67000Y325000D2*
G1X70000Y325000D1*
G1X67566Y33866D2*
G1X69232Y32200D1*
G1X67631Y132200D2*
G1X67631Y137198D1*
G1X67631Y137198D2*
G1X66798Y136365D1*
G1X67632Y54699D2*
G1X66799Y53866D1*
G1X67632Y56365D2*
G1X67632Y54699D1*
G1X67632Y74699D2*
G1X66799Y73866D1*
G1X67632Y76365D2*
G1X67632Y74699D1*
G1X67632Y114699D2*
G1X66799Y113866D1*
G1X67632Y116365D2*
G1X67632Y114699D1*
G1X67632Y154699D2*
G1X66799Y153866D1*
G1X67632Y156365D2*
G1X67632Y154699D1*
G1X67632Y194699D2*
G1X66799Y193866D1*
G1X67632Y196365D2*
G1X67632Y194699D1*
G1X67632Y234699D2*
G1X66799Y233866D1*
G1X67632Y236365D2*
G1X67632Y234699D1*
G1X67632Y274699D2*
G1X66799Y273866D1*
G1X67632Y276365D2*
G1X67632Y274699D1*
G1X67632Y314699D2*
G1X66799Y313866D1*
G1X67632Y316365D2*
G1X67632Y314699D1*
G1X68399Y33866D2*
G1X65900Y33866D1*
G1X68399Y37198D2*
G1X69232Y36365D1*
G1X68465Y132200D2*
G1X67631Y132200D1*
G1X69232Y34699D2*
G1X68399Y33866D1*
G1X69232Y36365D2*
G1X69232Y34699D1*
G1X69264Y93033D2*
G1X69264Y96365D1*
G1X69264Y96365D2*
G1X70097Y97198D1*
G1X69264Y172200D2*
G1X72596Y175532D1*
G1X69264Y216365D2*
G1X70097Y217198D1*
G1X69264Y254699D2*
G1X72596Y254699D1*
G1X69264Y294699D2*
G1X70930Y295532D1*
G1X69264Y297198D2*
G1X69264Y294699D1*
G1X69264Y333033D2*
G1X70097Y332200D1*
G1X69264Y334699D2*
G1X69264Y333033D1*
G1X69298Y53033D2*
G1X70131Y52200D1*
G1X69298Y55532D2*
G1X70131Y54699D1*
G1X69298Y56365D2*
G1X69298Y55532D1*
G1X69298Y72200D2*
G1X72631Y75532D1*
G1X69298Y116365D2*
G1X70131Y117198D1*
G1X69298Y154699D2*
G1X72631Y154699D1*
G1X69298Y194699D2*
G1X70965Y195532D1*
G1X69298Y197198D2*
G1X69298Y194699D1*
G1X69298Y233033D2*
G1X70131Y232200D1*
G1X69298Y234699D2*
G1X69298Y233033D1*
G1X69298Y273033D2*
G1X69298Y272200D1*
G1X69298Y277198D2*
G1X72631Y277198D1*
G1X69298Y313033D2*
G1X69298Y313866D1*
G1X69298Y313866D2*
G1X70131Y314699D1*
G1X69298Y315532D2*
G1X69298Y316365D1*
G1X69298Y316365D2*
G1X70131Y317198D1*
G1X70097Y92200D2*
G1X69264Y93033D1*
G1X70097Y97198D2*
G1X71763Y97198D1*
G1X70097Y177198D2*
G1X69264Y176365D1*
G1X70097Y212200D2*
G1X69264Y213033D1*
G1X70097Y217198D2*
G1X71763Y217198D1*
G1X70097Y292200D2*
G1X69264Y293033D1*
G1X70097Y332200D2*
G1X71763Y332200D1*
G1X70131Y52200D2*
G1X71798Y52200D1*
G1X70131Y54699D2*
G1X72631Y54699D1*
G1X70131Y57198D2*
G1X69298Y56365D1*
G1X70131Y77198D2*
G1X69298Y76365D1*
G1X70131Y112200D2*
G1X69298Y113033D1*
G1X70131Y117198D2*
G1X71798Y117198D1*
G1X70131Y192200D2*
G1X69298Y193033D1*
G1X70131Y232200D2*
G1X71798Y232200D1*
G1X70131Y312200D2*
G1X69298Y313033D1*
G1X70131Y314699D2*
G1X69298Y315532D1*
G1X70131Y314699D2*
G1X71798Y314699D1*
G1X70131Y317198D2*
G1X71798Y317198D1*
G1X70898Y32200D2*
G1X72565Y32200D1*
G1X70930Y214699D2*
G1X71763Y214699D1*
G1X70930Y295532D2*
G1X71763Y295532D1*
G1X70930Y336365D2*
G1X69264Y334699D1*
G1X70964Y132200D2*
G1X72630Y132200D1*
G1X70965Y114699D2*
G1X71798Y114699D1*
G1X70965Y195532D2*
G1X71798Y195532D1*
G1X70965Y236365D2*
G1X69298Y234699D1*
G1X71731Y32200D2*
G1X71731Y37198D1*
G1X71731Y37198D2*
G1X70898Y36365D1*
G1X71763Y92200D2*
G1X70097Y92200D1*
G1X71763Y97198D2*
G1X72596Y96365D1*
G1X71763Y177198D2*
G1X70097Y177198D1*
G1X71763Y212200D2*
G1X70097Y212200D1*
G1X71763Y214699D2*
G1X70930Y214699D1*
G1X71763Y214699D2*
G1X72596Y213866D1*
G1X71763Y217198D2*
G1X72596Y216365D1*
G1X71763Y252200D2*
G1X71763Y257198D1*
G1X71763Y257198D2*
G1X69264Y254699D1*
G1X71763Y292200D2*
G1X70097Y292200D1*
G1X71763Y295532D2*
G1X72596Y294699D1*
G1X71763Y332200D2*
G1X72596Y333033D1*
G1X71763Y334699D2*
G1X69264Y334699D1*
G1X71797Y132200D2*
G1X71797Y137198D1*
G1X71797Y137198D2*
G1X70964Y136365D1*
G1X71798Y52200D2*
G1X72631Y53033D1*
G1X71798Y57198D2*
G1X70131Y57198D1*
G1X71798Y77198D2*
G1X70131Y77198D1*
G1X71798Y112200D2*
G1X70131Y112200D1*
G1X71798Y114699D2*
G1X70965Y114699D1*
G1X71798Y114699D2*
G1X72631Y113866D1*
G1X71798Y117198D2*
G1X72631Y116365D1*
G1X71798Y152200D2*
G1X71798Y157198D1*
G1X71798Y157198D2*
G1X69298Y154699D1*
G1X71798Y192200D2*
G1X70131Y192200D1*
G1X71798Y195532D2*
G1X72631Y194699D1*
G1X71798Y232200D2*
G1X72631Y233033D1*
G1X71798Y234699D2*
G1X69298Y234699D1*
G1X71798Y312200D2*
G1X70131Y312200D1*
G1X71798Y314699D2*
G1X72631Y313866D1*
G1X71798Y317198D2*
G1X72631Y316365D1*
G1X72565Y32200D2*
G1X71731Y32200D1*
G1X72596Y93033D2*
G1X71763Y92200D1*
G1X72596Y96365D2*
G1X72596Y93033D1*
G1X72596Y172200D2*
G1X69264Y172200D1*
G1X72596Y175532D2*
G1X72596Y176365D1*
G1X72596Y176365D2*
G1X71763Y177198D1*
G1X72596Y213033D2*
G1X71763Y212200D1*
G1X72596Y213866D2*
G1X72596Y213033D1*
G1X72596Y215532D2*
G1X71763Y214699D1*
G1X72596Y216365D2*
G1X72596Y215532D1*
G1X72596Y293033D2*
G1X71763Y292200D1*
G1X72596Y294699D2*
G1X72596Y293033D1*
G1X72596Y297198D2*
G1X69264Y297198D1*
G1X72596Y333033D2*
G1X72596Y333866D1*
G1X72596Y333866D2*
G1X71763Y334699D1*
G1X72596Y337198D2*
G1X70930Y336365D1*
G1X72630Y132200D2*
G1X71797Y132200D1*
G1X72631Y53033D2*
G1X72631Y56365D1*
G1X72631Y56365D2*
G1X71798Y57198D1*
G1X72631Y72200D2*
G1X69298Y72200D1*
G1X72631Y75532D2*
G1X72631Y76365D1*
G1X72631Y76365D2*
G1X71798Y77198D1*
G1X72631Y113033D2*
G1X71798Y112200D1*
G1X72631Y113866D2*
G1X72631Y113033D1*
G1X72631Y115532D2*
G1X71798Y114699D1*
G1X72631Y116365D2*
G1X72631Y115532D1*
G1X72631Y193033D2*
G1X71798Y192200D1*
G1X72631Y194699D2*
G1X72631Y193033D1*
G1X72631Y197198D2*
G1X69298Y197198D1*
G1X72631Y233033D2*
G1X72631Y233866D1*
G1X72631Y233866D2*
G1X71798Y234699D1*
G1X72631Y237198D2*
G1X70965Y236365D1*
G1X72631Y276365D2*
G1X69298Y273033D1*
G1X72631Y277198D2*
G1X72631Y276365D1*
G1X72631Y313033D2*
G1X71798Y312200D1*
G1X72631Y313866D2*
G1X72631Y313033D1*
G1X72631Y315532D2*
G1X71798Y314699D1*
G1X72631Y316365D2*
G1X72631Y315532D1*
G1X76100Y245500D2*
G1X76100Y250498D1*
G1X76100Y250498D2*
G1X78599Y250498D1*
G1X77766Y247166D2*
G1X79432Y245500D1*
G1X78599Y247166D2*
G1X76100Y247166D1*
G1X78599Y250498D2*
G1X79432Y249665D1*
G1X79432Y247999D2*
G1X78599Y247166D1*
G1X79432Y249665D2*
G1X79432Y247999D1*
G1X80233Y320300D2*
G1X79400Y321133D1*
G1X81066Y320300D2*
G1X80233Y320300D1*
G1X81066Y325298D2*
G1X81899Y325298D1*
G1X81098Y245500D2*
G1X84431Y248832D1*
G1X81500Y285833D2*
G1X82333Y285000D1*
G1X81500Y289165D2*
G1X81500Y285833D1*
G1X81899Y321133D2*
G1X81066Y320300D1*
G1X81899Y325298D2*
G1X81899Y321133D1*
G1X81931Y250498D2*
G1X81098Y249665D1*
G1X82333Y285000D2*
G1X83999Y285000D1*
G1X82333Y289998D2*
G1X81500Y289165D1*
G1X82732Y325298D2*
G1X81066Y325298D1*
G1X83598Y250498D2*
G1X81931Y250498D1*
G1X83999Y285000D2*
G1X84832Y285833D1*
G1X83999Y289998D2*
G1X82333Y289998D1*
G1X84398Y320300D2*
G1X87731Y323632D1*
G1X84431Y245500D2*
G1X81098Y245500D1*
G1X84431Y248832D2*
G1X84431Y249665D1*
G1X84431Y249665D2*
G1X83598Y250498D1*
G1X84832Y289165D2*
G1X83999Y289998D1*
G1X85231Y325298D2*
G1X84398Y324465D1*
G1X86097Y245500D2*
G1X87763Y245500D1*
G1X86498Y285833D2*
G1X86498Y285000D1*
G1X86498Y289998D2*
G1X89831Y289998D1*
G1X86898Y325298D2*
G1X85231Y325298D1*
G1X86930Y245500D2*
G1X86930Y250498D1*
G1X86930Y250498D2*
G1X86097Y249665D1*
G1X87731Y320300D2*
G1X84398Y320300D1*
G1X87731Y323632D2*
G1X87731Y324465D1*
G1X87731Y324465D2*
G1X86898Y325298D1*
G1X87763Y245500D2*
G1X86930Y245500D1*
G1X89831Y289165D2*
G1X86498Y285833D1*
G1X89831Y289998D2*
G1X89831Y289165D1*
G1X91000Y236000D2*
G1X91000Y260000D1*
G1X91000Y236000D2*
G1X99000Y236000D1*
G1X91000Y260000D2*
G1X99000Y260000D1*
G1X91000Y295000D2*
G54D13*
G1X91000Y338500D1*
G1X91000Y295000D2*
G1X139000Y295000D1*
G1X91000Y338500D2*
G1X97000Y338500D1*
G1X95000Y20000D2*
G1X95000Y220000D1*
G1X95000Y20000D2*
G1X165000Y20000D1*
G1X95000Y220000D2*
G1X125000Y220000D1*
G1X95000Y222500D2*
G54D12*
G1X95000Y227498D1*
G1X95000Y227498D2*
G1X97499Y227498D1*
G1X95000Y233000D2*
G1X95000Y236000D1*
G1X95000Y260000D2*
G1X95000Y263000D1*
G1X95000Y280000D2*
G54D10*
G1X98500Y280000D1*
G1X95300Y11700D2*
G54D12*
G1X96966Y11700D1*
G1X95300Y16698D2*
G1X96966Y16698D1*
G1X96133Y11700D2*
G1X95300Y11700D1*
G1X96133Y16698D2*
G1X96133Y11700D1*
G1X96666Y224166D2*
G1X98332Y222500D1*
G1X96966Y16698D2*
G1X96133Y16698D1*
G1X97000Y338500D2*
G54D13*
G1X97000Y343000D1*
G1X97000Y343000D2*
G1X103000Y343000D1*
G1X97499Y224166D2*
G54D12*
G1X95000Y224166D1*
G1X97499Y227498D2*
G1X98332Y226665D1*
G1X97500Y338500D2*
G54D14*
G1X133500Y338500D1*
G1X98332Y224999D2*
G54D12*
G1X97499Y224166D1*
G1X98332Y226665D2*
G1X98332Y224999D1*
G1X98500Y276000D2*
G54D10*
G1X98500Y284000D1*
G1X99000Y236000D2*
G54D12*
G1X99000Y260000D1*
G1X99465Y12533D2*
G1X100298Y11700D1*
G1X99465Y15865D2*
G1X99465Y12533D1*
G1X99998Y222500D2*
G1X103331Y225832D1*
G1X100298Y11700D2*
G1X101965Y11700D1*
G1X100298Y16698D2*
G1X99465Y15865D1*
G1X100500Y276000D2*
G54D10*
G1X100500Y284000D1*
G1X100500Y276000D2*
G1X101500Y276000D1*
G1X100500Y284000D2*
G1X101500Y284000D1*
G1X100831Y227498D2*
G54D12*
G1X99998Y226665D1*
G1X101000Y236000D2*
G1X101000Y260000D1*
G1X101000Y236000D2*
G1X109000Y236000D1*
G1X101000Y260000D2*
G1X109000Y260000D1*
G1X101500Y276000D2*
G54D10*
G1X101500Y284000D1*
G1X101500Y280000D2*
G1X105000Y280000D1*
G1X101965Y11700D2*
G54D12*
G1X102798Y12533D1*
G1X101965Y16698D2*
G1X100298Y16698D1*
G1X102498Y227498D2*
G1X100831Y227498D1*
G1X102798Y15865D2*
G1X101965Y16698D1*
G1X103000Y343000D2*
G54D13*
G1X103000Y350500D1*
G1X103000Y350500D2*
G1X127000Y350500D1*
G1X103331Y222500D2*
G54D12*
G1X99998Y222500D1*
G1X103331Y225832D2*
G1X103331Y226665D1*
G1X103331Y226665D2*
G1X102498Y227498D1*
G1X103500Y346500D2*
G54D14*
G1X127000Y346500D1*
G1X104464Y11700D2*
G54D12*
G1X106130Y11700D1*
G1X104997Y222500D2*
G1X108329Y225832D1*
G1X105000Y233000D2*
G1X105000Y236000D1*
G1X105000Y260000D2*
G1X105000Y263000D1*
G1X105000Y274001D2*
G54D10*
G1X105000Y276000D1*
G1X105000Y284001D2*
G1X105000Y286000D1*
G1X105297Y11700D2*
G54D12*
G1X105297Y16698D1*
G1X105297Y16698D2*
G1X104464Y15865D1*
G1X105830Y227498D2*
G1X104997Y226665D1*
G1X106000Y275000D2*
G54D10*
G1X104001Y275000D1*
G1X106000Y285000D2*
G1X104001Y285000D1*
G1X106130Y11700D2*
G54D12*
G1X105297Y11700D1*
G1X107000Y32000D2*
G54D13*
G1X107000Y114000D1*
G1X107000Y32000D2*
G1X153000Y32000D1*
G1X107000Y114000D2*
G1X153000Y114000D1*
G1X107000Y126000D2*
G1X107000Y208000D1*
G1X107000Y126000D2*
G1X153000Y126000D1*
G1X107000Y208000D2*
G1X153000Y208000D1*
G1X107496Y227498D2*
G54D12*
G1X105830Y227498D1*
G1X108329Y222500D2*
G1X104997Y222500D1*
G1X108329Y225832D2*
G1X108329Y226665D1*
G1X108329Y226665D2*
G1X107496Y227498D1*
G1X109000Y236000D2*
G1X109000Y260000D1*
G1X109000Y267500D2*
G1X109000Y272498D1*
G1X109000Y272498D2*
G1X111499Y272498D1*
G1X110666Y269166D2*
G1X112332Y267500D1*
G1X111000Y236000D2*
G1X111000Y260000D1*
G1X111000Y236000D2*
G1X119000Y236000D1*
G1X111000Y260000D2*
G1X119000Y260000D1*
G1X111499Y269166D2*
G1X109000Y269166D1*
G1X111499Y272498D2*
G1X112332Y271665D1*
G1X111500Y222500D2*
G1X111500Y227498D1*
G1X111500Y227498D2*
G1X113999Y227498D1*
G1X111500Y285833D2*
G1X112333Y285000D1*
G1X111500Y289165D2*
G1X111500Y285833D1*
G1X112332Y269999D2*
G1X111499Y269166D1*
G1X112332Y271665D2*
G1X112332Y269999D1*
G1X112333Y285000D2*
G1X113999Y285000D1*
G1X112333Y289998D2*
G1X111500Y289165D1*
G1X113166Y224166D2*
G1X114832Y222500D1*
G1X113998Y267500D2*
G1X115665Y267500D1*
G1X113999Y224166D2*
G1X111500Y224166D1*
G1X113999Y227498D2*
G1X114832Y226665D1*
G1X113999Y285000D2*
G1X114832Y285833D1*
G1X113999Y289998D2*
G1X112333Y289998D1*
G1X114831Y267500D2*
G1X114831Y272498D1*
G1X114831Y272498D2*
G1X113998Y271665D1*
G1X114832Y224999D2*
G1X113999Y224166D1*
G1X114832Y226665D2*
G1X114832Y224999D1*
G1X114832Y289165D2*
G1X113999Y289998D1*
G1X115000Y233000D2*
G1X115000Y236000D1*
G1X115000Y260000D2*
G1X115000Y263000D1*
G1X115665Y267500D2*
G1X114831Y267500D1*
G1X116498Y222500D2*
G1X118165Y222500D1*
G1X116498Y285833D2*
G1X116498Y286666D1*
G1X116498Y286666D2*
G1X117331Y287499D1*
G1X116498Y288332D2*
G1X116498Y289165D1*
G1X116498Y289165D2*
G1X117331Y289998D1*
G1X117331Y222500D2*
G1X117331Y227498D1*
G1X117331Y227498D2*
G1X116498Y226665D1*
G1X117331Y285000D2*
G1X116498Y285833D1*
G1X117331Y287499D2*
G1X116498Y288332D1*
G1X117331Y287499D2*
G1X118998Y287499D1*
G1X117331Y289998D2*
G1X118998Y289998D1*
G1X118164Y268333D2*
G1X118164Y269166D1*
G1X118164Y269166D2*
G1X118997Y269999D1*
G1X118164Y270832D2*
G1X118164Y271665D1*
G1X118164Y271665D2*
G1X118997Y272498D1*
G1X118165Y222500D2*
G1X117331Y222500D1*
G1X118997Y267500D2*
G1X118164Y268333D1*
G1X118997Y269999D2*
G1X118164Y270832D1*
G1X118997Y269999D2*
G1X120663Y269999D1*
G1X118997Y272498D2*
G1X120663Y272498D1*
G1X118998Y285000D2*
G1X117331Y285000D1*
G1X118998Y287499D2*
G1X119831Y286666D1*
G1X118998Y289998D2*
G1X119831Y289165D1*
G1X119000Y236000D2*
G1X119000Y260000D1*
G1X119831Y285833D2*
G1X118998Y285000D1*
G1X119831Y286666D2*
G1X119831Y285833D1*
G1X119831Y288332D2*
G1X118998Y287499D1*
G1X119831Y289165D2*
G1X119831Y288332D1*
G1X120663Y267500D2*
G1X118997Y267500D1*
G1X120663Y269999D2*
G1X121496Y269166D1*
G1X120663Y272498D2*
G1X121496Y271665D1*
G1X120664Y223333D2*
G1X120664Y222500D1*
G1X120664Y227498D2*
G1X123996Y227498D1*
G1X121000Y236000D2*
G1X121000Y260000D1*
G1X121000Y236000D2*
G1X129000Y236000D1*
G1X121000Y260000D2*
G1X129000Y260000D1*
G1X121496Y268333D2*
G1X120663Y267500D1*
G1X121496Y269166D2*
G1X121496Y268333D1*
G1X121496Y270832D2*
G1X120663Y269999D1*
G1X121496Y271665D2*
G1X121496Y270832D1*
G1X123996Y226665D2*
G1X120664Y223333D1*
G1X123996Y227498D2*
G1X123996Y226665D1*
G1X124000Y275000D2*
G54D10*
G1X125999Y275000D1*
G1X124000Y285000D2*
G1X125999Y285000D1*
G1X125000Y275999D2*
G1X125000Y274000D1*
G1X125000Y285999D2*
G1X125000Y284000D1*
G1X125000Y233000D2*
G54D12*
G1X125000Y236000D1*
G1X125000Y260000D2*
G1X125000Y263000D1*
G1X125000Y280000D2*
G54D10*
G1X128500Y280000D1*
G1X126000Y222500D2*
G54D12*
G1X126000Y227498D1*
G1X126000Y227498D2*
G1X128499Y227498D1*
G1X127000Y343000D2*
G54D13*
G1X127000Y350500D1*
G1X127000Y343000D2*
G1X133000Y343000D1*
G1X127666Y224166D2*
G54D12*
G1X129332Y222500D1*
G1X128499Y224166D2*
G1X126000Y224166D1*
G1X128499Y227498D2*
G1X129332Y226665D1*
G1X128500Y276000D2*
G54D10*
G1X128500Y284000D1*
G1X128500Y276000D2*
G1X129500Y276000D1*
G1X128500Y284000D2*
G1X129500Y284000D1*
G1X129000Y236000D2*
G54D12*
G1X129000Y260000D1*
G1X129332Y224999D2*
G1X128499Y224166D1*
G1X129332Y226665D2*
G1X129332Y224999D1*
G1X129500Y276000D2*
G54D10*
G1X129500Y284000D1*
G1X130998Y222500D2*
G54D12*
G1X132665Y222500D1*
G1X131000Y236000D2*
G1X131000Y260000D1*
G1X131000Y236000D2*
G1X139000Y236000D1*
G1X131000Y260000D2*
G1X139000Y260000D1*
G1X131500Y276000D2*
G54D10*
G1X131500Y284000D1*
G1X131500Y280000D2*
G1X135000Y280000D1*
G1X131831Y222500D2*
G54D12*
G1X131831Y227498D1*
G1X131831Y227498D2*
G1X130998Y226665D1*
G1X132665Y222500D2*
G1X131831Y222500D1*
G1X133000Y338500D2*
G54D13*
G1X133000Y343000D1*
G1X133000Y338500D2*
G1X139000Y338500D1*
G1X135000Y220000D2*
G1X165000Y220000D1*
G1X135000Y233000D2*
G54D12*
G1X135000Y236000D1*
G1X135000Y260000D2*
G1X135000Y263000D1*
G1X135164Y223333D2*
G1X135997Y222500D1*
G1X135164Y225832D2*
G1X135997Y224999D1*
G1X135164Y226665D2*
G1X135164Y225832D1*
G1X135997Y222500D2*
G1X137663Y222500D1*
G1X135997Y224999D2*
G1X138496Y224999D1*
G1X135997Y227498D2*
G1X135164Y226665D1*
G1X137500Y341000D2*
G1X137500Y345998D1*
G1X137500Y345998D2*
G1X139999Y345998D1*
G1X137663Y222500D2*
G1X138496Y223333D1*
G1X137663Y227498D2*
G1X135997Y227498D1*
G1X138496Y223333D2*
G1X138496Y226665D1*
G1X138496Y226665D2*
G1X137663Y227498D1*
G1X139000Y236000D2*
G1X139000Y260000D1*
G1X139000Y295000D2*
G54D13*
G1X139000Y338500D1*
G1X139166Y342666D2*
G54D12*
G1X140832Y341000D1*
G1X139999Y342666D2*
G1X137500Y342666D1*
G1X139999Y345998D2*
G1X140832Y345165D1*
G1X140832Y343499D2*
G1X139999Y342666D1*
G1X140832Y345165D2*
G1X140832Y343499D1*
G1X141000Y236000D2*
G1X141000Y260000D1*
G1X141000Y236000D2*
G1X149000Y236000D1*
G1X141000Y260000D2*
G1X149000Y260000D1*
G1X141500Y222500D2*
G1X141500Y227498D1*
G1X141500Y227498D2*
G1X143999Y227498D1*
G1X142498Y341000D2*
G1X145831Y344332D1*
G1X143166Y224166D2*
G1X144832Y222500D1*
G1X143331Y345998D2*
G1X142498Y345165D1*
G1X143500Y270000D2*
G1X143500Y295000D1*
G1X143500Y270000D2*
G1X177500Y270000D1*
G1X143500Y295000D2*
G1X177500Y295000D1*
G1X143500Y308000D2*
G1X143500Y332000D1*
G1X143500Y308000D2*
G1X151500Y308000D1*
G1X143500Y332000D2*
G1X151500Y332000D1*
G1X143999Y224166D2*
G1X141500Y224166D1*
G1X143999Y227498D2*
G1X144832Y226665D1*
G1X144832Y224999D2*
G1X143999Y224166D1*
G1X144832Y226665D2*
G1X144832Y224999D1*
G1X144998Y345998D2*
G1X143331Y345998D1*
G1X145000Y233000D2*
G1X145000Y236000D1*
G1X145000Y260000D2*
G1X145000Y263000D1*
G1X145831Y341000D2*
G1X142498Y341000D1*
G1X145831Y344332D2*
G1X145831Y345165D1*
G1X145831Y345165D2*
G1X144998Y345998D1*
G1X146498Y222500D2*
G1X149831Y225832D1*
G1X147331Y227498D2*
G1X146498Y226665D1*
G1X147497Y343499D2*
G1X150829Y343499D1*
G1X147500Y305000D2*
G1X147500Y308000D1*
G1X147500Y332000D2*
G1X147500Y335000D1*
G1X148998Y227498D2*
G1X147331Y227498D1*
G1X149000Y236000D2*
G1X149000Y260000D1*
G1X149831Y222500D2*
G1X146498Y222500D1*
G1X149831Y225832D2*
G1X149831Y226665D1*
G1X149831Y226665D2*
G1X148998Y227498D1*
G1X149996Y341000D2*
G1X149996Y345998D1*
G1X149996Y345998D2*
G1X147497Y343499D1*
G1X151497Y223333D2*
G1X151497Y226665D1*
G1X151497Y226665D2*
G1X152330Y227498D1*
G1X151500Y308000D2*
G1X151500Y332000D1*
G1X152330Y222500D2*
G1X151497Y223333D1*
G1X152330Y227498D2*
G1X153996Y227498D1*
G1X152500Y341000D2*
G1X152500Y345998D1*
G1X152500Y345998D2*
G1X154999Y345998D1*
G1X153000Y32000D2*
G54D13*
G1X153000Y114000D1*
G1X153000Y126000D2*
G1X153000Y208000D1*
G1X153499Y290500D2*
G54D12*
G1X153499Y286501D1*
G1X153500Y308000D2*
G1X153500Y332000D1*
G1X153500Y308000D2*
G1X161500Y308000D1*
G1X153500Y332000D2*
G1X161500Y332000D1*
G1X153996Y222500D2*
G1X152330Y222500D1*
G1X153996Y227498D2*
G1X154829Y226665D1*
G1X154166Y342666D2*
G1X155832Y341000D1*
G1X154829Y223333D2*
G1X153996Y222500D1*
G1X154829Y226665D2*
G1X154829Y223333D1*
G1X154999Y342666D2*
G1X152500Y342666D1*
G1X154999Y345998D2*
G1X155832Y345165D1*
G1X155832Y343499D2*
G1X154999Y342666D1*
G1X155832Y345165D2*
G1X155832Y343499D1*
G1X157498Y341000D2*
G1X160831Y344332D1*
G1X157500Y231000D2*
G1X157500Y255000D1*
G1X157500Y305000D2*
G1X157500Y308000D1*
G1X157500Y332000D2*
G1X157500Y335000D1*
G1X158300Y261033D2*
G1X159133Y260200D1*
G1X158300Y264365D2*
G1X158300Y261033D1*
G1X158331Y345998D2*
G1X157498Y345165D1*
G1X159133Y260200D2*
G1X160799Y260200D1*
G1X159133Y265198D2*
G1X158300Y264365D1*
G1X159500Y229000D2*
G1X165500Y229000D1*
G1X159500Y242000D2*
G1X165500Y242000D1*
G1X159500Y244000D2*
G1X165500Y244000D1*
G1X159500Y257000D2*
G1X165500Y257000D1*
G1X159998Y345998D2*
G1X158331Y345998D1*
G1X160799Y260200D2*
G1X161632Y261033D1*
G1X160799Y265198D2*
G1X159133Y265198D1*
G1X160831Y341000D2*
G1X157498Y341000D1*
G1X160831Y344332D2*
G1X160831Y345165D1*
G1X160831Y345165D2*
G1X159998Y345998D1*
G1X161499Y290500D2*
G1X161499Y286501D1*
G1X161500Y308000D2*
G1X161500Y332000D1*
G1X161632Y264365D2*
G1X160799Y265198D1*
G1X162497Y345165D2*
G1X163330Y345998D1*
G1X162500Y233000D2*
G1X162500Y242000D1*
G1X162500Y244000D2*
G1X162500Y253000D1*
G1X163298Y264365D2*
G1X164131Y265198D1*
G1X163330Y341000D2*
G1X162497Y341833D1*
G1X163330Y345998D2*
G1X164996Y345998D1*
G1X164131Y260200D2*
G1X163298Y261033D1*
G1X164131Y265198D2*
G1X165798Y265198D1*
G1X164163Y343499D2*
G1X164996Y343499D1*
G1X164965Y262699D2*
G1X165798Y262699D1*
G1X164996Y341000D2*
G1X163330Y341000D1*
G1X164996Y343499D2*
G1X164163Y343499D1*
G1X164996Y343499D2*
G1X165829Y342666D1*
G1X164996Y345998D2*
G1X165829Y345165D1*
G1X165000Y20000D2*
G54D13*
G1X165000Y220000D1*
G1X165798Y260200D2*
G54D12*
G1X164131Y260200D1*
G1X165798Y262699D2*
G1X164965Y262699D1*
G1X165798Y262699D2*
G1X166631Y261866D1*
G1X165798Y265198D2*
G1X166631Y264365D1*
G1X165829Y341833D2*
G1X164996Y341000D1*
G1X165829Y342666D2*
G1X165829Y341833D1*
G1X165829Y344332D2*
G1X164996Y343499D1*
G1X165829Y345165D2*
G1X165829Y344332D1*
G1X166631Y261033D2*
G1X165798Y260200D1*
G1X166631Y261866D2*
G1X166631Y261033D1*
G1X166631Y263532D2*
G1X165798Y262699D1*
G1X166631Y264365D2*
G1X166631Y263532D1*
G1X167500Y231000D2*
G1X167500Y255000D1*
G1X169499Y290500D2*
G1X169499Y286501D1*
G1X169500Y178000D2*
G1X169500Y212000D1*
G1X169500Y178000D2*
G1X194500Y178000D1*
G1X169500Y216000D2*
G1X169500Y224000D1*
G1X169500Y224000D2*
G1X194500Y224000D1*
G1X170000Y308000D2*
G54D13*
G1X170000Y348000D1*
G1X170000Y308000D2*
G1X210000Y308000D1*
G1X170000Y348000D2*
G1X210000Y348000D1*
G1X174000Y211999D2*
G54D12*
G1X177999Y211999D1*
G1X175000Y20000D2*
G54D13*
G1X175000Y37500D1*
G1X175000Y20000D2*
G1X245000Y20000D1*
G1X175000Y42500D2*
G1X175000Y60000D1*
G1X175000Y60000D2*
G1X245000Y60000D1*
G1X175000Y70000D2*
G1X175000Y87500D1*
G1X175000Y70000D2*
G1X245000Y70000D1*
G1X175000Y92500D2*
G1X175000Y110000D1*
G1X175000Y110000D2*
G1X245000Y110000D1*
G1X175300Y11700D2*
G54D12*
G1X176966Y11700D1*
G1X175300Y16698D2*
G1X176966Y16698D1*
G1X175300Y113300D2*
G1X176966Y113300D1*
G1X175300Y118298D2*
G1X176966Y118298D1*
G1X175999Y213998D2*
G1X175999Y210000D1*
G1X176000Y233000D2*
G1X176000Y263000D1*
G1X176000Y233000D2*
G1X196000Y233000D1*
G1X176000Y263000D2*
G1X196000Y263000D1*
G1X176133Y11700D2*
G1X175300Y11700D1*
G1X176133Y16698D2*
G1X176133Y11700D1*
G1X176133Y113300D2*
G1X175300Y113300D1*
G1X176133Y118298D2*
G1X176133Y113300D1*
G1X176966Y16698D2*
G1X176133Y16698D1*
G1X176966Y118298D2*
G1X176133Y118298D1*
G1X177499Y278500D2*
G1X177499Y274501D1*
G1X177499Y290500D2*
G1X177499Y286501D1*
G1X178000Y218000D2*
G1X178000Y228000D1*
G1X178000Y218000D2*
G1X180500Y218000D1*
G1X179465Y12533D2*
G1X180298Y11700D1*
G1X179465Y15865D2*
G1X179465Y12533D1*
G1X179465Y114133D2*
G1X180298Y113300D1*
G1X179465Y117465D2*
G1X179465Y114133D1*
G1X179498Y276501D2*
G1X175500Y276501D1*
G1X179500Y281000D2*
G1X179500Y282000D1*
G1X179500Y281000D2*
G1X187500Y281000D1*
G1X179500Y282000D2*
G1X187500Y282000D1*
G1X179500Y284000D2*
G1X187500Y284000D1*
G1X180298Y11700D2*
G1X181965Y11700D1*
G1X180298Y16698D2*
G1X179465Y15865D1*
G1X180298Y113300D2*
G1X181965Y113300D1*
G1X180298Y118298D2*
G1X179465Y117465D1*
G1X180500Y214000D2*
G1X180500Y222000D1*
G1X180500Y214000D2*
G1X181500Y214000D1*
G1X180500Y222000D2*
G1X181500Y222000D1*
G1X181500Y214000D2*
G1X181500Y222000D1*
G1X181500Y270000D2*
G1X189500Y270000D1*
G1X181500Y295000D2*
G1X189500Y295000D1*
G1X181600Y170633D2*
G1X182433Y169800D1*
G1X181600Y173965D2*
G1X181600Y170633D1*
G1X181965Y11700D2*
G1X182798Y12533D1*
G1X181965Y16698D2*
G1X180298Y16698D1*
G1X181965Y113300D2*
G1X182798Y114133D1*
G1X181965Y118298D2*
G1X180298Y118298D1*
G1X182433Y169800D2*
G1X184099Y169800D1*
G1X182433Y174798D2*
G1X181600Y173965D1*
G1X182798Y15865D2*
G1X181965Y16698D1*
G1X182798Y117465D2*
G1X181965Y118298D1*
G1X183000Y247000D2*
G1X189000Y247000D1*
G1X183000Y249000D2*
G1X189000Y249000D1*
G1X183100Y299033D2*
G1X183933Y298200D1*
G1X183100Y302365D2*
G1X183100Y299033D1*
G1X183500Y214000D2*
G1X183500Y222000D1*
G1X183500Y218000D2*
G1X186000Y218000D1*
G1X183500Y278500D2*
G1X183500Y281000D1*
G1X183500Y278500D2*
G1X193500Y278500D1*
G1X183500Y284000D2*
G1X183500Y286500D1*
G1X183500Y286500D2*
G1X193500Y286500D1*
G1X183933Y298200D2*
G1X185599Y298200D1*
G1X183933Y303198D2*
G1X183100Y302365D1*
G1X184099Y169800D2*
G1X184932Y170633D1*
G1X184099Y174798D2*
G1X182433Y174798D1*
G1X184464Y14199D2*
G1X187796Y14199D1*
G1X184464Y113300D2*
G1X187796Y116632D1*
G1X184932Y173965D2*
G1X184099Y174798D1*
G1X185000Y328000D2*
G54D14*
G1X195000Y328000D1*
G1X185297Y118298D2*
G54D12*
G1X184464Y117465D1*
G1X185599Y298200D2*
G1X186432Y299033D1*
G1X185599Y303198D2*
G1X183933Y303198D1*
G1X186000Y187999D2*
G1X189999Y187999D1*
G1X186000Y195999D2*
G1X189999Y195999D1*
G1X186000Y203999D2*
G1X189999Y203999D1*
G1X186000Y211999D2*
G1X189999Y211999D1*
G1X186000Y218000D2*
G1X186000Y228000D1*
G1X186000Y238000D2*
G1X186000Y247000D1*
G1X186000Y249000D2*
G1X186000Y258000D1*
G1X186432Y302365D2*
G1X185599Y303198D1*
G1X186500Y313500D2*
G1X186500Y318498D1*
G1X186500Y318498D2*
G1X188999Y318498D1*
G1X186598Y169800D2*
G1X188265Y169800D1*
G1X186963Y11700D2*
G1X186963Y16698D1*
G1X186963Y16698D2*
G1X184464Y14199D1*
G1X186963Y118298D2*
G1X185297Y118298D1*
G1X187000Y32000D2*
G54D13*
G1X187000Y48000D1*
G1X187000Y32000D2*
G1X233000Y32000D1*
G1X187000Y48000D2*
G1X233000Y48000D1*
G1X187000Y82000D2*
G1X187000Y98000D1*
G1X187000Y82000D2*
G1X233000Y82000D1*
G1X187000Y98000D2*
G1X233000Y98000D1*
G1X187431Y169800D2*
G54D12*
G1X187431Y174798D1*
G1X187431Y174798D2*
G1X186598Y173965D1*
G1X187500Y281000D2*
G1X187500Y282000D1*
G1X187796Y113300D2*
G1X184464Y113300D1*
G1X187796Y116632D2*
G1X187796Y117465D1*
G1X187796Y117465D2*
G1X186963Y118298D1*
G1X188098Y298200D2*
G1X189765Y298200D1*
G1X188265Y169800D2*
G1X187431Y169800D1*
G1X188931Y298200D2*
G1X188931Y303198D1*
G1X188931Y303198D2*
G1X188098Y302365D1*
G1X188999Y315166D2*
G1X186500Y315166D1*
G1X188999Y318498D2*
G1X189832Y317665D1*
G1X189500Y270000D2*
G1X189500Y295000D1*
G1X189765Y298200D2*
G1X188931Y298200D1*
G1X189832Y315999D2*
G1X188999Y315166D1*
G1X189832Y317665D2*
G1X189832Y315999D1*
G1X190764Y169800D2*
G1X194096Y173132D1*
G1X191498Y313500D2*
G1X193165Y313500D1*
G1X191597Y174798D2*
G1X190764Y173965D1*
G1X192000Y265833D2*
G1X192833Y265000D1*
G1X192000Y269165D2*
G1X192000Y265833D1*
G1X192264Y299033D2*
G1X193097Y298200D1*
G1X192264Y300699D2*
G1X192264Y299033D1*
G1X192331Y313500D2*
G1X192331Y318498D1*
G1X192331Y318498D2*
G1X191498Y317665D1*
G1X192833Y265000D2*
G1X194499Y265000D1*
G1X192833Y269998D2*
G1X192000Y269165D1*
G1X193097Y298200D2*
G1X194763Y298200D1*
G1X193165Y313500D2*
G1X192331Y313500D1*
G1X193263Y174798D2*
G1X191597Y174798D1*
G1X193930Y302365D2*
G1X192264Y300699D1*
G1X194096Y169800D2*
G1X190764Y169800D1*
G1X194096Y173132D2*
G1X194096Y173965D1*
G1X194096Y173965D2*
G1X193263Y174798D1*
G1X194499Y265000D2*
G1X195332Y265833D1*
G1X194499Y269998D2*
G1X192833Y269998D1*
G1X194500Y178000D2*
G1X194500Y212000D1*
G1X194500Y216000D2*
G1X194500Y224000D1*
G1X194763Y298200D2*
G1X195596Y299033D1*
G1X194763Y300699D2*
G1X192264Y300699D1*
G1X195332Y269165D2*
G1X194499Y269998D1*
G1X195596Y299033D2*
G1X195596Y299866D1*
G1X195596Y299866D2*
G1X194763Y300699D1*
G1X195596Y303198D2*
G1X193930Y302365D1*
G1X196000Y233000D2*
G1X196000Y263000D1*
G1X196998Y265000D2*
G1X198665Y265000D1*
G1X197831Y265000D2*
G1X197831Y269998D1*
G1X197831Y269998D2*
G1X196998Y269165D1*
G1X198665Y265000D2*
G1X197831Y265000D1*
G1X200000Y223000D2*
G54D13*
G1X200000Y263000D1*
G1X200000Y223000D2*
G1X240000Y223000D1*
G1X200000Y263000D2*
G1X240000Y263000D1*
G1X201164Y267499D2*
G54D12*
G1X202830Y268332D1*
G1X201164Y269998D2*
G1X201164Y267499D1*
G1X201997Y265000D2*
G1X201164Y265833D1*
G1X202830Y268332D2*
G1X203663Y268332D1*
G1X203663Y265000D2*
G1X201997Y265000D1*
G1X203663Y268332D2*
G1X204496Y267499D1*
G1X204000Y279000D2*
G1X204000Y299000D1*
G1X204000Y279000D2*
G1X234000Y279000D1*
G1X204000Y299000D2*
G1X234000Y299000D1*
G1X204496Y265833D2*
G1X203663Y265000D1*
G1X204496Y267499D2*
G1X204496Y265833D1*
G1X204496Y269998D2*
G1X201164Y269998D1*
G1X205000Y210000D2*
G1X209000Y210000D1*
G1X209000Y203000D2*
G54D13*
G1X209000Y217000D1*
G1X209000Y203000D2*
G1X246000Y203000D1*
G1X209000Y217000D2*
G1X246000Y217000D1*
G1X209000Y289000D2*
G54D12*
G1X218000Y289000D1*
G1X210000Y308000D2*
G54D13*
G1X210000Y348000D1*
G1X212000Y235000D2*
G1X212000Y251000D1*
G1X212000Y235000D2*
G1X228000Y235000D1*
G1X212000Y251000D2*
G1X228000Y251000D1*
G1X214000Y240500D2*
G54D12*
G1X215666Y240500D1*
G1X214000Y245498D2*
G1X215666Y245498D1*
G1X214833Y240500D2*
G1X214000Y240500D1*
G1X214833Y245498D2*
G1X214833Y240500D1*
G1X215666Y245498D2*
G1X214833Y245498D1*
G1X217500Y267000D2*
G54D10*
G1X228500Y267000D1*
G1X217500Y275000D2*
G1X228500Y275000D1*
G1X218000Y271000D2*
G54D14*
G1X222000Y271000D1*
G1X218000Y286000D2*
G54D12*
G1X218000Y292000D1*
G1X218165Y241333D2*
G1X218998Y240500D1*
G1X218165Y244665D2*
G1X218165Y241333D1*
G1X218998Y240500D2*
G1X220665Y240500D1*
G1X218998Y245498D2*
G1X218165Y244665D1*
G1X220000Y286000D2*
G1X220000Y292000D1*
G1X220000Y289000D2*
G1X229000Y289000D1*
G1X220000Y303000D2*
G1X220000Y333000D1*
G1X220000Y303000D2*
G1X240000Y303000D1*
G1X220000Y333000D2*
G1X240000Y333000D1*
G1X220665Y240500D2*
G1X221498Y241333D1*
G1X220665Y245498D2*
G1X218998Y245498D1*
G1X220800Y194700D2*
G1X220800Y199698D1*
G1X220800Y199698D2*
G1X223299Y199698D1*
G1X221498Y244665D2*
G1X220665Y245498D1*
G1X222000Y268000D2*
G54D14*
G1X222000Y274000D1*
G1X222466Y196366D2*
G54D12*
G1X224132Y194700D1*
G1X223164Y242999D2*
G1X224830Y243832D1*
G1X223164Y245498D2*
G1X223164Y242999D1*
G1X223299Y196366D2*
G1X220800Y196366D1*
G1X223299Y199698D2*
G1X224132Y198865D1*
G1X223997Y240500D2*
G1X223164Y241333D1*
G1X224000Y268000D2*
G54D14*
G1X224000Y274000D1*
G1X224000Y271000D2*
G1X228000Y271000D1*
G1X224132Y197199D2*
G54D12*
G1X223299Y196366D1*
G1X224132Y198865D2*
G1X224132Y197199D1*
G1X224830Y243832D2*
G1X225663Y243832D1*
G1X225663Y240500D2*
G1X223997Y240500D1*
G1X225663Y243832D2*
G1X226496Y242999D1*
G1X225798Y194700D2*
G1X229131Y198032D1*
G1X225800Y337033D2*
G1X226633Y336200D1*
G1X225800Y340365D2*
G1X225800Y337033D1*
G1X226496Y241333D2*
G1X225663Y240500D1*
G1X226496Y242999D2*
G1X226496Y241333D1*
G1X226496Y245498D2*
G1X223164Y245498D1*
G1X226631Y199698D2*
G1X225798Y198865D1*
G1X226633Y336200D2*
G1X228299Y336200D1*
G1X226633Y341198D2*
G1X225800Y340365D1*
G1X227000Y317000D2*
G1X233000Y317000D1*
G1X227000Y319000D2*
G1X233000Y319000D1*
G1X228000Y235000D2*
G54D13*
G1X228000Y251000D1*
G1X228298Y199698D2*
G54D12*
G1X226631Y199698D1*
G1X228299Y336200D2*
G1X229132Y337033D1*
G1X228299Y341198D2*
G1X226633Y341198D1*
G1X229131Y194700D2*
G1X225798Y194700D1*
G1X229131Y198032D2*
G1X229131Y198865D1*
G1X229131Y198865D2*
G1X228298Y199698D1*
G1X229132Y340365D2*
G1X228299Y341198D1*
G1X230000Y308000D2*
G1X230000Y317000D1*
G1X230000Y319000D2*
G1X230000Y328000D1*
G1X230797Y197199D2*
G1X232463Y198032D1*
G1X230797Y199698D2*
G1X230797Y197199D1*
G1X230798Y337033D2*
G1X231631Y336200D1*
G1X230798Y339532D2*
G1X231631Y338699D1*
G1X230798Y340365D2*
G1X230798Y339532D1*
G1X231630Y194700D2*
G1X230797Y195533D1*
G1X231631Y336200D2*
G1X233298Y336200D1*
G1X231631Y338699D2*
G1X234131Y338699D1*
G1X231631Y341198D2*
G1X230798Y340365D1*
G1X232463Y198032D2*
G1X233296Y198032D1*
G1X233000Y32000D2*
G54D13*
G1X233000Y48000D1*
G1X233000Y82000D2*
G1X233000Y98000D1*
G1X233296Y194700D2*
G54D12*
G1X231630Y194700D1*
G1X233296Y198032D2*
G1X234129Y197199D1*
G1X233298Y336200D2*
G1X234131Y337033D1*
G1X233298Y341198D2*
G1X231631Y341198D1*
G1X234000Y279000D2*
G1X234000Y299000D1*
G1X234129Y195533D2*
G1X233296Y194700D1*
G1X234129Y197199D2*
G1X234129Y195533D1*
G1X234129Y199698D2*
G1X230797Y199698D1*
G1X234131Y337033D2*
G1X234131Y340365D1*
G1X234131Y340365D2*
G1X233298Y341198D1*
G1X235500Y269333D2*
G1X236333Y268500D1*
G1X235500Y272665D2*
G1X235500Y269333D1*
G1X235500Y279333D2*
G1X236333Y278500D1*
G1X235500Y282665D2*
G1X235500Y279333D1*
G1X236333Y268500D2*
G1X237999Y268500D1*
G1X236333Y273498D2*
G1X235500Y272665D1*
G1X236333Y278500D2*
G1X237999Y278500D1*
G1X236333Y283498D2*
G1X235500Y282665D1*
G1X237999Y268500D2*
G1X238832Y269333D1*
G1X237999Y273498D2*
G1X236333Y273498D1*
G1X237999Y278500D2*
G1X238832Y279333D1*
G1X237999Y283498D2*
G1X236333Y283498D1*
G1X238832Y272665D2*
G1X237999Y273498D1*
G1X238832Y282665D2*
G1X237999Y283498D1*
G1X240000Y223000D2*
G54D13*
G1X240000Y240500D1*
G1X240000Y245500D2*
G1X240000Y263000D1*
G1X240000Y303000D2*
G54D12*
G1X240000Y333000D1*
G1X240498Y268500D2*
G1X242165Y268500D1*
G1X240498Y278500D2*
G1X242165Y278500D1*
G1X241331Y268500D2*
G1X241331Y273498D1*
G1X241331Y273498D2*
G1X240498Y272665D1*
G1X241331Y278500D2*
G1X241331Y283498D1*
G1X241331Y283498D2*
G1X240498Y282665D1*
G1X242165Y268500D2*
G1X241331Y268500D1*
G1X242165Y278500D2*
G1X241331Y278500D1*
G1X244000Y223000D2*
G1X244000Y253000D1*
G1X244000Y223000D2*
G1X264000Y223000D1*
G1X244000Y253000D2*
G1X264000Y253000D1*
G1X244664Y268500D2*
G1X246330Y268500D1*
G1X244664Y279333D2*
G1X244664Y282665D1*
G1X244664Y282665D2*
G1X245497Y283498D1*
G1X245000Y20000D2*
G54D13*
G1X245000Y60000D1*
G1X245000Y70000D2*
G1X245000Y110000D1*
G1X245497Y268500D2*
G54D12*
G1X245497Y273498D1*
G1X245497Y273498D2*
G1X244664Y272665D1*
G1X245497Y278500D2*
G1X244664Y279333D1*
G1X245497Y283498D2*
G1X247163Y283498D1*
G1X246000Y203000D2*
G54D13*
G1X246000Y217000D1*
G1X246000Y210000D2*
G54D12*
G1X250000Y210000D1*
G1X246330Y268500D2*
G1X245497Y268500D1*
G1X247163Y278500D2*
G1X245497Y278500D1*
G1X247163Y283498D2*
G1X247996Y282665D1*
G1X247800Y257033D2*
G1X248633Y256200D1*
G1X247800Y260365D2*
G1X247800Y257033D1*
G1X247996Y279333D2*
G1X247163Y278500D1*
G1X247996Y282665D2*
G1X247996Y279333D1*
G1X248633Y256200D2*
G1X250299Y256200D1*
G1X248633Y261198D2*
G1X247800Y260365D1*
G1X249000Y23000D2*
G1X249000Y47000D1*
G1X249000Y73000D2*
G1X249000Y97000D1*
G1X249800Y53033D2*
G1X250633Y52200D1*
G1X249800Y56365D2*
G1X249800Y53033D1*
G1X249800Y103033D2*
G1X250633Y102200D1*
G1X249800Y106365D2*
G1X249800Y103033D1*
G1X250299Y256200D2*
G1X251132Y257033D1*
G1X250299Y261198D2*
G1X248633Y261198D1*
G1X250633Y52200D2*
G1X252299Y52200D1*
G1X250633Y57198D2*
G1X249800Y56365D1*
G1X250633Y102200D2*
G1X252299Y102200D1*
G1X250633Y107198D2*
G1X249800Y106365D1*
G1X251000Y21000D2*
G1X257000Y21000D1*
G1X251000Y34000D2*
G1X257000Y34000D1*
G1X251000Y36000D2*
G1X257000Y36000D1*
G1X251000Y49000D2*
G1X257000Y49000D1*
G1X251000Y71000D2*
G1X257000Y71000D1*
G1X251000Y84000D2*
G1X257000Y84000D1*
G1X251000Y86000D2*
G1X257000Y86000D1*
G1X251000Y99000D2*
G1X257000Y99000D1*
G1X251000Y237000D2*
G1X257000Y237000D1*
G1X251000Y239000D2*
G1X257000Y239000D1*
G1X251132Y260365D2*
G1X250299Y261198D1*
G1X252299Y52200D2*
G1X253132Y53033D1*
G1X252299Y57198D2*
G1X250633Y57198D1*
G1X252299Y102200D2*
G1X253132Y103033D1*
G1X252299Y107198D2*
G1X250633Y107198D1*
G1X252798Y256200D2*
G1X254465Y256200D1*
G1X253132Y56365D2*
G1X252299Y57198D1*
G1X253132Y106365D2*
G1X252299Y107198D1*
G1X253631Y256200D2*
G1X253631Y261198D1*
G1X253631Y261198D2*
G1X252798Y260365D1*
G1X254000Y25000D2*
G1X254000Y34000D1*
G1X254000Y36000D2*
G1X254000Y45000D1*
G1X254000Y75000D2*
G1X254000Y84000D1*
G1X254000Y86000D2*
G1X254000Y95000D1*
G1X254000Y228000D2*
G1X254000Y237000D1*
G1X254000Y239000D2*
G1X254000Y248000D1*
G1X254465Y256200D2*
G1X253631Y256200D1*
G1X254798Y53033D2*
G1X255631Y52200D1*
G1X254798Y54699D2*
G1X254798Y53033D1*
G1X254798Y104699D2*
G1X258131Y104699D1*
G1X255631Y52200D2*
G1X257298Y52200D1*
G1X256465Y56365D2*
G1X254798Y54699D1*
G1X256964Y260365D2*
G1X257797Y261198D1*
G1X257298Y52200D2*
G1X258131Y53033D1*
G1X257298Y54699D2*
G1X254798Y54699D1*
G1X257298Y102200D2*
G1X257298Y107198D1*
G1X257298Y107198D2*
G1X254798Y104699D1*
G1X257797Y256200D2*
G1X256964Y257033D1*
G1X257797Y261198D2*
G1X259463Y261198D1*
G1X258131Y53033D2*
G1X258131Y53866D1*
G1X258131Y53866D2*
G1X257298Y54699D1*
G1X258131Y57198D2*
G1X256465Y56365D1*
G1X258630Y258699D2*
G1X259463Y258699D1*
G1X259000Y23000D2*
G1X259000Y47000D1*
G1X259000Y73000D2*
G1X259000Y97000D1*
G1X259463Y256200D2*
G1X257797Y256200D1*
G1X259463Y258699D2*
G1X258630Y258699D1*
G1X259463Y258699D2*
G1X260296Y257866D1*
G1X259463Y261198D2*
G1X260296Y260365D1*
G1X260296Y257033D2*
G1X259463Y256200D1*
G1X260296Y257866D2*
G1X260296Y257033D1*
G1X260296Y259532D2*
G1X259463Y258699D1*
G1X260296Y260365D2*
G1X260296Y259532D1*
G1X264000Y223000D2*
G1X264000Y253000D1*
G1X270000Y40000D2*
G54D13*
G1X270000Y110000D1*
G1X270000Y40000D2*
G1X287500Y40000D1*
G1X270000Y110000D2*
G1X310000Y110000D1*
G1X270000Y236000D2*
G54D12*
G1X280000Y236000D1*
G1X270000Y244000D2*
G1X280000Y244000D1*
G1X274000Y227500D2*
G1X274000Y252500D1*
G1X274000Y227500D2*
G1X282000Y227500D1*
G1X274000Y252500D2*
G1X282000Y252500D1*
G1X276000Y238500D2*
G1X276000Y239500D1*
G1X276000Y238500D2*
G1X284000Y238500D1*
G1X276000Y239500D2*
G1X284000Y239500D1*
G1X276000Y241500D2*
G1X284000Y241500D1*
G1X280000Y236000D2*
G1X280000Y238500D1*
G1X280000Y241500D2*
G1X280000Y244000D1*
G1X281000Y116000D2*
G1X281000Y122000D1*
G1X282000Y52000D2*
G54D13*
G1X282000Y98000D1*
G1X282000Y52000D2*
G1X298000Y52000D1*
G1X282000Y98000D2*
G1X298000Y98000D1*
G1X283000Y114000D2*
G54D12*
G1X307000Y114000D1*
G1X283000Y124000D2*
G1X307000Y124000D1*
G1X283800Y31700D2*
G1X285466Y31700D1*
G1X283800Y36698D2*
G1X285466Y36698D1*
G1X284000Y238500D2*
G1X284000Y239500D1*
G1X284002Y233999D2*
G1X288000Y233999D1*
G1X284633Y31700D2*
G1X283800Y31700D1*
G1X284633Y36698D2*
G1X284633Y31700D1*
G1X285000Y119000D2*
G1X294000Y119000D1*
G1X285466Y36698D2*
G1X284633Y36698D1*
G1X286000Y227500D2*
G1X320000Y227500D1*
G1X286000Y252500D2*
G1X320000Y252500D1*
G1X286001Y232000D2*
G1X286001Y235999D1*
G1X286001Y244000D2*
G1X286001Y247999D1*
G1X287500Y220133D2*
G1X288333Y219300D1*
G1X287500Y223465D2*
G1X287500Y220133D1*
G1X287965Y32533D2*
G1X288798Y31700D1*
G1X287965Y35865D2*
G1X287965Y32533D1*
G1X288002Y274999D2*
G1X292000Y274999D1*
G1X288333Y219300D2*
G1X289999Y219300D1*
G1X288333Y224298D2*
G1X287500Y223465D1*
G1X288798Y31700D2*
G1X290465Y31700D1*
G1X288798Y36698D2*
G1X287965Y35865D1*
G1X289999Y219300D2*
G1X290832Y220133D1*
G1X289999Y224298D2*
G1X288333Y224298D1*
G1X290000Y178000D2*
G1X290000Y203000D1*
G1X290000Y178000D2*
G1X324000Y178000D1*
G1X290000Y203000D2*
G1X324000Y203000D1*
G1X290001Y273000D2*
G1X290001Y276999D1*
G1X290001Y328000D2*
G1X290001Y331999D1*
G1X290400Y207033D2*
G1X291233Y206200D1*
G1X290400Y210365D2*
G1X290400Y207033D1*
G1X290465Y31700D2*
G1X291298Y32533D1*
G1X290465Y36698D2*
G1X288798Y36698D1*
G1X290800Y128033D2*
G1X291633Y127200D1*
G1X290800Y131365D2*
G1X290800Y128033D1*
G1X290832Y223465D2*
G1X289999Y224298D1*
G1X291233Y206200D2*
G1X292899Y206200D1*
G1X291233Y211198D2*
G1X290400Y210365D1*
G1X291298Y35865D2*
G1X290465Y36698D1*
G1X291633Y127200D2*
G1X293299Y127200D1*
G1X291633Y132198D2*
G1X290800Y131365D1*
G1X292498Y219300D2*
G1X294165Y219300D1*
G1X292500Y40000D2*
G54D13*
G1X310000Y40000D1*
G1X292899Y206200D2*
G54D12*
G1X293732Y207033D1*
G1X292899Y211198D2*
G1X291233Y211198D1*
G1X292964Y35865D2*
G1X293797Y36698D1*
G1X293299Y127200D2*
G1X294132Y128033D1*
G1X293299Y132198D2*
G1X291633Y132198D1*
G1X293331Y219300D2*
G1X293331Y224298D1*
G1X293331Y224298D2*
G1X292498Y223465D1*
G1X293732Y210365D2*
G1X292899Y211198D1*
G1X293797Y31700D2*
G1X292964Y32533D1*
G1X293797Y36698D2*
G1X295463Y36698D1*
G1X294000Y116000D2*
G1X294000Y122000D1*
G1X294001Y244000D2*
G1X294001Y247999D1*
G1X294132Y131365D2*
G1X293299Y132198D1*
G1X294165Y219300D2*
G1X293331Y219300D1*
G1X294630Y34199D2*
G1X295463Y34199D1*
G1X295398Y206200D2*
G1X298731Y209532D1*
G1X295463Y31700D2*
G1X293797Y31700D1*
G1X295463Y34199D2*
G1X294630Y34199D1*
G1X295463Y34199D2*
G1X296296Y33366D1*
G1X295463Y36698D2*
G1X296296Y35865D1*
G1X295798Y129699D2*
G1X297465Y130532D1*
G1X295798Y132198D2*
G1X295798Y129699D1*
G1X296000Y116000D2*
G1X296000Y122000D1*
G1X296000Y119000D2*
G1X305000Y119000D1*
G1X296231Y211198D2*
G1X295398Y210365D1*
G1X296296Y32533D2*
G1X295463Y31700D1*
G1X296296Y33366D2*
G1X296296Y32533D1*
G1X296296Y35032D2*
G1X295463Y34199D1*
G1X296296Y35865D2*
G1X296296Y35032D1*
G1X296631Y127200D2*
G1X295798Y128033D1*
G1X296664Y221799D2*
G1X299996Y221799D1*
G1X297465Y130532D2*
G1X298298Y130532D1*
G1X297898Y211198D2*
G1X296231Y211198D1*
G1X298000Y52000D2*
G54D13*
G1X298000Y98000D1*
G1X298298Y127200D2*
G54D12*
G1X296631Y127200D1*
G1X298298Y130532D2*
G1X299131Y129699D1*
G1X298731Y206200D2*
G1X295398Y206200D1*
G1X298731Y209532D2*
G1X298731Y210365D1*
G1X298731Y210365D2*
G1X297898Y211198D1*
G1X299131Y128033D2*
G1X298298Y127200D1*
G1X299131Y129699D2*
G1X299131Y128033D1*
G1X299131Y132198D2*
G1X295798Y132198D1*
G1X299163Y219300D2*
G1X299163Y224298D1*
G1X299163Y224298D2*
G1X296664Y221799D1*
G1X299999Y186500D2*
G1X299999Y182501D1*
G1X302001Y244000D2*
G1X302001Y247999D1*
G1X307999Y186500D2*
G1X307999Y182501D1*
G1X309000Y116000D2*
G1X309000Y122000D1*
G1X310000Y40000D2*
G54D13*
G1X310000Y110000D1*
G1X310001Y244000D2*
G54D12*
G1X310001Y247999D1*
G1X315999Y186500D2*
G1X315999Y182501D1*
G1X318000Y303332D2*
G1X318833Y302499D1*
G1X318000Y304165D2*
G1X318000Y303332D1*
G1X318833Y300000D2*
G1X318000Y300833D1*
G1X318833Y302499D2*
G1X320499Y302499D1*
G1X318833Y304998D2*
G1X318000Y304165D1*
G1X320000Y227500D2*
G1X320000Y252500D1*
G1X320499Y300000D2*
G1X318833Y300000D1*
G1X320499Y302499D2*
G1X321332Y301666D1*
G1X320499Y304998D2*
G1X318833Y304998D1*
G1X321332Y300833D2*
G1X320499Y300000D1*
G1X321332Y301666D2*
G1X321332Y300833D1*
G1X321332Y304165D2*
G1X320499Y304998D1*
G1X322998Y300000D2*
G1X322998Y304998D1*
G1X322998Y304998D2*
G1X325498Y304998D1*
G1X323500Y25000D2*
G1X323500Y33000D1*
G1X323500Y25000D2*
G1X348500Y25000D1*
G1X323500Y37000D2*
G1X323500Y71000D1*
G1X323500Y71000D2*
G1X348500Y71000D1*
G1X323900Y75033D2*
G1X324733Y74200D1*
G1X323900Y78365D2*
G1X323900Y75033D1*
G1X323999Y186500D2*
G1X323999Y182501D1*
G1X323999Y198500D2*
G1X323999Y194501D1*
G1X324733Y74200D2*
G1X326399Y74200D1*
G1X324733Y79198D2*
G1X323900Y78365D1*
G1X325498Y301666D2*
G1X322998Y301666D1*
G1X325498Y304998D2*
G1X326331Y304165D1*
G1X325998Y196501D2*
G1X322000Y196501D1*
G1X326000Y189000D2*
G1X334000Y189000D1*
G1X326000Y191000D2*
G1X326000Y192000D1*
G1X326000Y191000D2*
G1X334000Y191000D1*
G1X326000Y192000D2*
G1X334000Y192000D1*
G1X326331Y302499D2*
G1X325498Y301666D1*
G1X326331Y304165D2*
G1X326331Y302499D1*
G1X326399Y74200D2*
G1X327232Y75033D1*
G1X326399Y79198D2*
G1X324733Y79198D1*
G1X327232Y78365D2*
G1X326399Y79198D1*
G1X327997Y300000D2*
G1X329663Y300000D1*
G1X328000Y178000D2*
G1X336000Y178000D1*
G1X328000Y203000D2*
G1X336000Y203000D1*
G1X328830Y300000D2*
G1X328830Y304998D1*
G1X328830Y304998D2*
G1X327997Y304165D1*
G1X328898Y74200D2*
G1X330565Y74200D1*
G1X329663Y300000D2*
G1X328830Y300000D1*
G1X329731Y74200D2*
G1X329731Y79198D1*
G1X329731Y79198D2*
G1X328898Y78365D1*
G1X330000Y186500D2*
G1X330000Y189000D1*
G1X330000Y186500D2*
G1X340000Y186500D1*
G1X330000Y192000D2*
G1X330000Y194500D1*
G1X330000Y194500D2*
G1X340000Y194500D1*
G1X330565Y74200D2*
G1X329731Y74200D1*
G1X332000Y21000D2*
G1X332000Y31000D1*
G1X332000Y31000D2*
G1X334500Y31000D1*
G1X332000Y37001D2*
G1X328001Y37001D1*
G1X332000Y45001D2*
G1X328001Y45001D1*
G1X332000Y53001D2*
G1X328001Y53001D1*
G1X332000Y61001D2*
G1X328001Y61001D1*
G1X334000Y191000D2*
G1X334000Y192000D1*
G1X334500Y27000D2*
G1X334500Y35000D1*
G1X336000Y178000D2*
G1X336000Y203000D1*
G1X336500Y27000D2*
G1X336500Y35000D1*
G1X336500Y27000D2*
G1X337500Y27000D1*
G1X336500Y35000D2*
G1X337500Y35000D1*
G1X337500Y27000D2*
G1X337500Y35000D1*
G1X337500Y31000D2*
G1X340000Y31000D1*
G1X340000Y21000D2*
G1X340000Y31000D1*
G1X342001Y35002D2*
G1X342001Y39000D1*
G1X344000Y37001D2*
G1X340001Y37001D1*
G1X348500Y25000D2*
G1X348500Y33000D1*
G1X348500Y37000D2*
G1X348500Y71000D1*
G1X362500Y39000D2*
G54D11*
G1X362500Y42000D1*
G1X362500Y39000D2*
G1X435000Y39000D1*
G1X362500Y42000D2*
G1X435000Y42000D1*
G1X362500Y49000D2*
G1X362500Y52000D1*
G1X362500Y49000D2*
G1X435000Y49000D1*
G1X362500Y52000D2*
G1X435000Y52000D1*
G1X362500Y59000D2*
G1X362500Y62000D1*
G1X362500Y59000D2*
G1X435000Y59000D1*
G1X362500Y62000D2*
G1X435000Y62000D1*
G1X362500Y69000D2*
G1X362500Y72000D1*
G1X362500Y69000D2*
G1X435000Y69000D1*
G1X362500Y72000D2*
G1X435000Y72000D1*
G1X362500Y89000D2*
G1X362500Y92000D1*
G1X362500Y89000D2*
G1X435000Y89000D1*
G1X362500Y92000D2*
G1X435000Y92000D1*
G1X362500Y99000D2*
G1X362500Y102000D1*
G1X362500Y99000D2*
G1X435000Y99000D1*
G1X362500Y102000D2*
G1X435000Y102000D1*
G1X362500Y109000D2*
G1X362500Y112000D1*
G1X362500Y109000D2*
G1X435000Y109000D1*
G1X362500Y112000D2*
G1X435000Y112000D1*
G1X362500Y119000D2*
G1X362500Y122000D1*
G1X362500Y119000D2*
G1X435000Y119000D1*
G1X362500Y122000D2*
G1X435000Y122000D1*
G1X362500Y129000D2*
G1X362500Y132000D1*
G1X362500Y129000D2*
G1X435000Y129000D1*
G1X362500Y132000D2*
G1X435000Y132000D1*
G1X362500Y139000D2*
G1X362500Y142000D1*
G1X362500Y139000D2*
G1X435000Y139000D1*
G1X362500Y142000D2*
G1X435000Y142000D1*
G1X362500Y149000D2*
G1X362500Y152000D1*
G1X362500Y149000D2*
G1X435000Y149000D1*
G1X362500Y152000D2*
G1X435000Y152000D1*
G1X362500Y159000D2*
G1X362500Y162000D1*
G1X362500Y159000D2*
G1X435000Y159000D1*
G1X362500Y162000D2*
G1X435000Y162000D1*
G1X362500Y169000D2*
G1X362500Y172000D1*
G1X362500Y169000D2*
G1X435000Y169000D1*
G1X362500Y172000D2*
G1X435000Y172000D1*
G1X362500Y179000D2*
G1X362500Y182000D1*
G1X362500Y179000D2*
G1X435000Y179000D1*
G1X362500Y182000D2*
G1X435000Y182000D1*
G1X362500Y189000D2*
G1X362500Y192000D1*
G1X362500Y189000D2*
G1X435000Y189000D1*
G1X362500Y192000D2*
G1X435000Y192000D1*
G1X362500Y199000D2*
G1X362500Y202000D1*
G1X362500Y199000D2*
G1X435000Y199000D1*
G1X362500Y202000D2*
G1X435000Y202000D1*
G1X362500Y209000D2*
G1X362500Y212000D1*
G1X362500Y209000D2*
G1X435000Y209000D1*
G1X362500Y212000D2*
G1X435000Y212000D1*
G1X362500Y219000D2*
G1X362500Y222000D1*
G1X362500Y219000D2*
G1X435000Y219000D1*
G1X362500Y222000D2*
G1X435000Y222000D1*
G1X362500Y229000D2*
G1X362500Y232000D1*
G1X362500Y229000D2*
G1X435000Y229000D1*
G1X362500Y232000D2*
G1X435000Y232000D1*
G1X362500Y239000D2*
G1X362500Y242000D1*
G1X362500Y239000D2*
G1X435000Y239000D1*
G1X362500Y242000D2*
G1X435000Y242000D1*
G1X362500Y249000D2*
G1X362500Y252000D1*
G1X362500Y249000D2*
G1X435000Y249000D1*
G1X362500Y252000D2*
G1X435000Y252000D1*
G1X362500Y259000D2*
G1X362500Y262000D1*
G1X362500Y259000D2*
G1X435000Y259000D1*
G1X362500Y262000D2*
G1X435000Y262000D1*
G1X362500Y269000D2*
G1X362500Y272000D1*
G1X362500Y269000D2*
G1X435000Y269000D1*
G1X362500Y272000D2*
G1X435000Y272000D1*
G1X362500Y279000D2*
G1X362500Y282000D1*
G1X362500Y279000D2*
G1X435000Y279000D1*
G1X362500Y282000D2*
G1X435000Y282000D1*
G1X362500Y289000D2*
G1X362500Y292000D1*
G1X362500Y289000D2*
G1X435000Y289000D1*
G1X362500Y292000D2*
G1X435000Y292000D1*
G1X362500Y299000D2*
G1X362500Y302000D1*
G1X362500Y299000D2*
G1X435000Y299000D1*
G1X362500Y302000D2*
G1X435000Y302000D1*
G1X362500Y309000D2*
G1X362500Y312000D1*
G1X362500Y309000D2*
G1X435000Y309000D1*
G1X362500Y312000D2*
G1X435000Y312000D1*
G1X363833Y77500D2*
G54D12*
G1X363000Y78333D1*
G1X364666Y77500D2*
G1X363833Y77500D1*
G1X364666Y82498D2*
G1X365499Y82498D1*
G1X365499Y78333D2*
G1X364666Y77500D1*
G1X365499Y82498D2*
G1X365499Y78333D1*
G1X366332Y82498D2*
G1X364666Y82498D1*
G1X367998Y77500D2*
G1X369665Y77500D1*
G1X368831Y77500D2*
G1X368831Y82498D1*
G1X368831Y82498D2*
G1X367998Y81665D1*
G1X369665Y77500D2*
G1X368831Y77500D1*
G1X372500Y39000D2*
G54D11*
G1X372500Y42000D1*
G1X372500Y49000D2*
G1X372500Y52000D1*
G1X372500Y59000D2*
G1X372500Y62000D1*
G1X372500Y69000D2*
G1X372500Y72000D1*
G1X372500Y89000D2*
G1X372500Y92000D1*
G1X372500Y99000D2*
G1X372500Y102000D1*
G1X372500Y109000D2*
G1X372500Y112000D1*
G1X372500Y119000D2*
G1X372500Y122000D1*
G1X372500Y129000D2*
G1X372500Y132000D1*
G1X372500Y139000D2*
G1X372500Y142000D1*
G1X372500Y149000D2*
G1X372500Y152000D1*
G1X372500Y159000D2*
G1X372500Y162000D1*
G1X372500Y169000D2*
G1X372500Y172000D1*
G1X372500Y179000D2*
G1X372500Y182000D1*
G1X372500Y189000D2*
G1X372500Y192000D1*
G1X372500Y199000D2*
G1X372500Y202000D1*
G1X372500Y209000D2*
G1X372500Y212000D1*
G1X372500Y219000D2*
G1X372500Y222000D1*
G1X372500Y229000D2*
G1X372500Y232000D1*
G1X372500Y239000D2*
G1X372500Y242000D1*
G1X372500Y249000D2*
G1X372500Y252000D1*
G1X372500Y259000D2*
G1X372500Y262000D1*
G1X372500Y269000D2*
G1X372500Y272000D1*
G1X372500Y279000D2*
G1X372500Y282000D1*
G1X372500Y289000D2*
G1X372500Y292000D1*
G1X372500Y299000D2*
G1X372500Y302000D1*
G1X372500Y309000D2*
G1X372500Y312000D1*
G1X380000Y33500D2*
G54D14*
G1X380000Y317500D1*
G1X380000Y33500D2*
G1X382500Y33500D1*
G1X380000Y317500D2*
G1X382500Y317500D1*
G1X382500Y33500D2*
G54D13*
G1X382500Y317500D1*
G1X382500Y33500D2*
G1X437500Y33500D1*
G1X382500Y317500D2*
G1X437500Y317500D1*
G1X402500Y33500D2*
G54D14*
G1X402500Y317500D1*
G1X402500Y37500D2*
G1X437500Y37500D1*
G1X402500Y43500D2*
G1X437500Y43500D1*
G1X402500Y47500D2*
G1X437500Y47500D1*
G1X402500Y53500D2*
G1X437500Y53500D1*
G1X402500Y57500D2*
G1X437500Y57500D1*
G1X402500Y63500D2*
G1X437500Y63500D1*
G1X402500Y67500D2*
G1X437500Y67500D1*
G1X402500Y73500D2*
G1X437500Y73500D1*
G1X402500Y77500D2*
G1X437500Y77500D1*
G1X402500Y83500D2*
G1X437500Y83500D1*
G1X402500Y87500D2*
G1X437500Y87500D1*
G1X402500Y93500D2*
G1X437500Y93500D1*
G1X402500Y97500D2*
G1X437500Y97500D1*
G1X402500Y103500D2*
G1X437500Y103500D1*
G1X402500Y107500D2*
G1X437500Y107500D1*
G1X402500Y113500D2*
G1X437500Y113500D1*
G1X402500Y117500D2*
G1X437500Y117500D1*
G1X402500Y123500D2*
G1X437500Y123500D1*
G1X402500Y127500D2*
G1X437500Y127500D1*
G1X402500Y133500D2*
G1X437500Y133500D1*
G1X402500Y137500D2*
G1X437500Y137500D1*
G1X402500Y143500D2*
G1X437500Y143500D1*
G1X402500Y147500D2*
G1X437500Y147500D1*
G1X402500Y153500D2*
G1X437500Y153500D1*
G1X402500Y157500D2*
G1X437500Y157500D1*
G1X402500Y163500D2*
G1X437500Y163500D1*
G1X402500Y167500D2*
G1X437500Y167500D1*
G1X402500Y173500D2*
G1X437500Y173500D1*
G1X402500Y177500D2*
G1X437500Y177500D1*
G1X402500Y183500D2*
G1X437500Y183500D1*
G1X402500Y187500D2*
G1X437500Y187500D1*
G1X402500Y193500D2*
G1X437500Y193500D1*
G1X402500Y197500D2*
G1X437500Y197500D1*
G1X402500Y203500D2*
G1X437500Y203500D1*
G1X402500Y207500D2*
G1X437500Y207500D1*
G1X402500Y213500D2*
G1X437500Y213500D1*
G1X402500Y217500D2*
G1X437500Y217500D1*
G1X402500Y223500D2*
G1X437500Y223500D1*
G1X402500Y227500D2*
G1X437500Y227500D1*
G1X402500Y233500D2*
G1X437500Y233500D1*
G1X402500Y237500D2*
G1X437500Y237500D1*
G1X402500Y243500D2*
G1X437500Y243500D1*
G1X402500Y247500D2*
G1X437500Y247500D1*
G1X402500Y253500D2*
G1X437500Y253500D1*
G1X402500Y257500D2*
G1X437500Y257500D1*
G1X402500Y263500D2*
G1X437500Y263500D1*
G1X402500Y267500D2*
G1X437500Y267500D1*
G1X402500Y273500D2*
G1X437500Y273500D1*
G1X402500Y277500D2*
G1X437500Y277500D1*
G1X402500Y283500D2*
G1X437500Y283500D1*
G1X402500Y287500D2*
G1X437500Y287500D1*
G1X402500Y293500D2*
G1X437500Y293500D1*
G1X402500Y297500D2*
G1X437500Y297500D1*
G1X402500Y303500D2*
G1X437500Y303500D1*
G1X402500Y307500D2*
G1X437500Y307500D1*
G1X402500Y313500D2*
G1X437500Y313500D1*
G1X416000Y39000D2*
G54D11*
G1X416000Y42000D1*
G1X416000Y39000D2*
G1X416000Y42000D1*
G1X416000Y49000D2*
G1X416000Y52000D1*
G1X416000Y49000D2*
G1X416000Y52000D1*
G1X416000Y59000D2*
G1X416000Y62000D1*
G1X416000Y59000D2*
G1X416000Y62000D1*
G1X416000Y69000D2*
G1X416000Y72000D1*
G1X416000Y69000D2*
G1X416000Y72000D1*
G1X416000Y89000D2*
G1X416000Y92000D1*
G1X416000Y89000D2*
G1X416000Y92000D1*
G1X416000Y99000D2*
G1X416000Y102000D1*
G1X416000Y99000D2*
G1X416000Y102000D1*
G1X416000Y109000D2*
G1X416000Y112000D1*
G1X416000Y109000D2*
G1X416000Y112000D1*
G1X416000Y119000D2*
G1X416000Y122000D1*
G1X416000Y119000D2*
G1X416000Y122000D1*
G1X416000Y129000D2*
G1X416000Y132000D1*
G1X416000Y129000D2*
G1X416000Y132000D1*
G1X416000Y139000D2*
G1X416000Y142000D1*
G1X416000Y139000D2*
G1X416000Y142000D1*
G1X416000Y149000D2*
G1X416000Y152000D1*
G1X416000Y149000D2*
G1X416000Y152000D1*
G1X416000Y159000D2*
G1X416000Y162000D1*
G1X416000Y159000D2*
G1X416000Y162000D1*
G1X416000Y169000D2*
G1X416000Y172000D1*
G1X416000Y169000D2*
G1X416000Y172000D1*
G1X416000Y179000D2*
G1X416000Y182000D1*
G1X416000Y179000D2*
G1X416000Y182000D1*
G1X416000Y189000D2*
G1X416000Y192000D1*
G1X416000Y189000D2*
G1X416000Y192000D1*
G1X416000Y199000D2*
G1X416000Y202000D1*
G1X416000Y199000D2*
G1X416000Y202000D1*
G1X416000Y209000D2*
G1X416000Y212000D1*
G1X416000Y209000D2*
G1X416000Y212000D1*
G1X416000Y219000D2*
G1X416000Y222000D1*
G1X416000Y219000D2*
G1X416000Y222000D1*
G1X416000Y229000D2*
G1X416000Y232000D1*
G1X416000Y229000D2*
G1X416000Y232000D1*
G1X416000Y239000D2*
G1X416000Y242000D1*
G1X416000Y239000D2*
G1X416000Y242000D1*
G1X416000Y249000D2*
G1X416000Y252000D1*
G1X416000Y249000D2*
G1X416000Y252000D1*
G1X416000Y259000D2*
G1X416000Y262000D1*
G1X416000Y259000D2*
G1X416000Y262000D1*
G1X416000Y269000D2*
G1X416000Y272000D1*
G1X416000Y269000D2*
G1X416000Y272000D1*
G1X416000Y279000D2*
G1X416000Y282000D1*
G1X416000Y279000D2*
G1X416000Y282000D1*
G1X416000Y289000D2*
G1X416000Y292000D1*
G1X416000Y289000D2*
G1X416000Y292000D1*
G1X416000Y299000D2*
G1X416000Y302000D1*
G1X416000Y299000D2*
G1X416000Y302000D1*
G1X416000Y309000D2*
G1X416000Y312000D1*
G1X435000Y39000D2*
G1X435000Y42000D1*
G1X435000Y39000D2*
G1X435000Y42000D1*
G1X435000Y49000D2*
G1X435000Y52000D1*
G1X435000Y49000D2*
G1X435000Y52000D1*
G1X435000Y59000D2*
G1X435000Y62000D1*
G1X435000Y59000D2*
G1X435000Y62000D1*
G1X435000Y69000D2*
G1X435000Y72000D1*
G1X435000Y69000D2*
G1X435000Y72000D1*
G1X435000Y89000D2*
G1X435000Y92000D1*
G1X435000Y89000D2*
G1X435000Y92000D1*
G1X435000Y99000D2*
G1X435000Y102000D1*
G1X435000Y99000D2*
G1X435000Y102000D1*
G1X435000Y109000D2*
G1X435000Y112000D1*
G1X435000Y109000D2*
G1X435000Y112000D1*
G1X435000Y119000D2*
G1X435000Y122000D1*
G1X435000Y119000D2*
G1X435000Y122000D1*
G1X435000Y129000D2*
G1X435000Y132000D1*
G1X435000Y129000D2*
G1X435000Y132000D1*
G1X435000Y139000D2*
G1X435000Y142000D1*
G1X435000Y139000D2*
G1X435000Y142000D1*
G1X435000Y149000D2*
G1X435000Y152000D1*
G1X435000Y149000D2*
G1X435000Y152000D1*
G1X435000Y159000D2*
G1X435000Y162000D1*
G1X435000Y159000D2*
G1X435000Y162000D1*
G1X435000Y169000D2*
G1X435000Y172000D1*
G1X435000Y169000D2*
G1X435000Y172000D1*
G1X435000Y179000D2*
G1X435000Y182000D1*
G1X435000Y179000D2*
G1X435000Y182000D1*
G1X435000Y189000D2*
G1X435000Y192000D1*
G1X435000Y189000D2*
G1X435000Y192000D1*
G1X435000Y199000D2*
G1X435000Y202000D1*
G1X435000Y199000D2*
G1X435000Y202000D1*
G1X435000Y209000D2*
G1X435000Y212000D1*
G1X435000Y209000D2*
G1X435000Y212000D1*
G1X435000Y219000D2*
G1X435000Y222000D1*
G1X435000Y219000D2*
G1X435000Y222000D1*
G1X435000Y229000D2*
G1X435000Y232000D1*
G1X435000Y229000D2*
G1X435000Y232000D1*
G1X435000Y239000D2*
G1X435000Y242000D1*
G1X435000Y239000D2*
G1X435000Y242000D1*
G1X435000Y249000D2*
G1X435000Y252000D1*
G1X435000Y249000D2*
G1X435000Y252000D1*
G1X435000Y259000D2*
G1X435000Y262000D1*
G1X435000Y259000D2*
G1X435000Y262000D1*
G1X435000Y269000D2*
G1X435000Y272000D1*
G1X435000Y269000D2*
G1X435000Y272000D1*
G1X435000Y279000D2*
G1X435000Y282000D1*
G1X435000Y279000D2*
G1X435000Y282000D1*
G1X435000Y289000D2*
G1X435000Y292000D1*
G1X435000Y289000D2*
G1X435000Y292000D1*
G1X435000Y299000D2*
G1X435000Y302000D1*
G1X435000Y299000D2*
G1X435000Y302000D1*
G1X435000Y309000D2*
G1X435000Y312000D1*
G1X437500Y33500D2*
G54D13*
G1X437500Y317500D1*
G74*
G54D15*
G1X95000Y325000D3*
G1X95000Y335000D3*
G54D16*
G1X101000Y280000D3*
G54D15*
G1X115000Y305000D3*
G54D16*
G1X129000Y280000D3*
G54D15*
G1X135000Y325000D3*
G1X135000Y335000D3*
G54D16*
G1X181000Y218000D3*
G54D17*
G1X183500Y281500D3*
G1X280000Y239000D3*
G1X330000Y191500D3*
G54D16*
G1X337000Y31000D3*
G54D18*
G1X418000Y40500D3*
G1X418000Y50500D3*
G1X418000Y60500D3*
G1X418000Y70500D3*
G1X418000Y90500D3*
G1X418000Y100500D3*
G1X418000Y110500D3*
G1X418000Y120500D3*
G1X418000Y130500D3*
G1X418000Y140500D3*
G1X418000Y150500D3*
G1X418000Y160500D3*
G1X418000Y170500D3*
G1X418000Y180500D3*
G1X418000Y190500D3*
G1X418000Y200500D3*
G1X418000Y210500D3*
G1X418000Y220500D3*
G1X418000Y230500D3*
G1X418000Y240500D3*
G1X418000Y250500D3*
G1X418000Y260500D3*
G1X418000Y270500D3*
G1X418000Y280500D3*
G1X418000Y290500D3*
G1X418000Y300500D3*
G1X418000Y310500D3*
G54D19*
G1X425500Y39250D3*
G1X425500Y41750D3*
G1X425500Y49250D3*
G1X425500Y51750D3*
G1X425500Y59250D3*
G1X425500Y61750D3*
G1X425500Y69250D3*
G1X425500Y71750D3*
G1X425500Y89250D3*
G1X425500Y91750D3*
G1X425500Y99250D3*
G1X425500Y101750D3*
G1X425500Y109250D3*
G1X425500Y111750D3*
G1X425500Y119250D3*
G1X425500Y121750D3*
G1X425500Y129250D3*
G1X425500Y131750D3*
G1X425500Y139250D3*
G1X425500Y141750D3*
G1X425500Y149250D3*
G1X425500Y151750D3*
G1X425500Y159250D3*
G1X425500Y161750D3*
G1X425500Y169250D3*
G1X425500Y171750D3*
G1X425500Y179250D3*
G1X425500Y181750D3*
G1X425500Y189250D3*
G1X425500Y191750D3*
G1X425500Y199250D3*
G1X425500Y201750D3*
G1X425500Y209250D3*
G1X425500Y211750D3*
G1X425500Y219250D3*
G1X425500Y221750D3*
G1X425500Y229250D3*
G1X425500Y231750D3*
G1X425500Y239250D3*
G1X425500Y241750D3*
G1X425500Y249250D3*
G1X425500Y251750D3*
G1X425500Y259250D3*
G1X425500Y261750D3*
G1X425500Y269250D3*
G1X425500Y271750D3*
G1X425500Y279250D3*
G1X425500Y281750D3*
G1X425500Y289250D3*
G1X425500Y291750D3*
G1X425500Y299250D3*
G1X425500Y301750D3*
G1X425500Y309250D3*
G1X425500Y311750D3*
G54D18*
G1X433000Y40500D3*
G1X433000Y50500D3*
G1X433000Y60500D3*
G1X433000Y70500D3*
G1X433000Y90500D3*
G1X433000Y100500D3*
G1X433000Y110500D3*
G1X433000Y120500D3*
G1X433000Y130500D3*
G1X433000Y140500D3*
G1X433000Y150500D3*
G1X433000Y160500D3*
G1X433000Y170500D3*
G1X433000Y180500D3*
G1X433000Y190500D3*
G1X433000Y200500D3*
G1X433000Y210500D3*
G1X433000Y220500D3*
G1X433000Y230500D3*
G1X433000Y240500D3*
G1X433000Y250500D3*
G1X433000Y260500D3*
G1X433000Y270500D3*
G1X433000Y280500D3*
G1X433000Y290500D3*
G1X433000Y300500D3*
G1X433000Y310500D3*
M2*
