*
%LPD*%
%LNTOPSOLDER*%
%FSLAX25Y25*%
%MOIN*%
%AD*%
%AD*%
%ADD21C,0.128*%
%ADD22C,0.058*%
%AMD23_Rectangle*
20,1,0.025,-0.029,0,0.029,0,0*
20,1,0.025,0,-0.029,0,0.029,0*
1,1,0.033,-0.0125,-0.0125*
1,1,0.033,0.0125,-0.0125*
1,1,0.033,0.0125,0.0125*
1,1,0.033,-0.0125,0.0125*
%
%ADD23D23_Rectangle*%
%ADD24C,0.068*%
%AMD25_Rectangle*
20,1,0.045,-0.039,0,0.039,0,0*
20,1,0.035,0,-0.044,0,0.044,0*
1,1,0.043,-0.0175,-0.0225*
1,1,0.043,0.0175,-0.0225*
1,1,0.043,0.0175,0.0225*
1,1,0.043,-0.0175,0.0225*
%
%ADD25D25_Rectangle*%
%AMD26_Rectangle*
20,1,0.04,-0.044,0,0.044,0,0*
20,1,0.04,0,-0.044,0,0.044,0*
1,1,0.048,-0.02,-0.02*
1,1,0.048,0.02,-0.02*
1,1,0.048,0.02,0.02*
1,1,0.048,-0.02,0.02*
%
%ADD26D26_Rectangle*%
%ADD27C,0.088*%
%ADD28R,0.168X0.068*%
%ADD29C,0.048*%
G54D21*
%SRX1Y1I0.0J0.0*%
G1X15000Y12500D3*
G1X15000Y337500D3*
G54D22*
G1X20000Y25000D3*
G54D23*
G1X20000Y35000D3*
G54D22*
G1X20000Y45000D3*
G1X20000Y65000D3*
G54D23*
G1X20000Y75000D3*
G54D22*
G1X20000Y85000D3*
G1X20000Y105000D3*
G54D23*
G1X20000Y115000D3*
G54D22*
G1X20000Y125000D3*
G1X20000Y145000D3*
G54D23*
G1X20000Y155000D3*
G54D22*
G1X20000Y165000D3*
G1X20000Y185000D3*
G54D23*
G1X20000Y195000D3*
G54D22*
G1X20000Y205000D3*
G1X20000Y225000D3*
G54D23*
G1X20000Y235000D3*
G54D22*
G1X20000Y245000D3*
G1X20000Y265000D3*
G54D23*
G1X20000Y275000D3*
G54D22*
G1X20000Y285000D3*
G1X20000Y305000D3*
G54D23*
G1X20000Y315000D3*
G54D22*
G1X20000Y325000D3*
G54D24*
G1X40000Y25000D3*
G1X40000Y45000D3*
G1X40000Y65000D3*
G1X40000Y85000D3*
G1X40000Y105000D3*
G1X40000Y125000D3*
G1X40000Y145000D3*
G1X40000Y165000D3*
G1X40000Y185000D3*
G1X40000Y205000D3*
G1X40000Y225000D3*
G1X40000Y245000D3*
G1X40000Y265000D3*
G1X40000Y285000D3*
G1X40000Y305000D3*
G1X40000Y325000D3*
G1X70000Y25000D3*
G1X70000Y45000D3*
G1X70000Y65000D3*
G1X70000Y85000D3*
G1X70000Y105000D3*
G1X70000Y125000D3*
G1X70000Y145000D3*
G1X70000Y165000D3*
G1X70000Y185000D3*
G1X70000Y205000D3*
G1X70000Y225000D3*
G1X70000Y245000D3*
G1X70000Y265000D3*
G1X70000Y285000D3*
G1X70000Y305000D3*
G1X70000Y325000D3*
G1X95000Y233000D3*
G1X95000Y263000D3*
G54D22*
G1X95000Y280000D3*
G54D25*
G1X95000Y305000D3*
G54D22*
G1X100000Y25000D3*
G1X100000Y35000D3*
G1X100000Y45000D3*
G1X100000Y55000D3*
G1X100000Y65000D3*
G1X100000Y75000D3*
G1X100000Y85000D3*
G1X100000Y95000D3*
G1X100000Y105000D3*
G1X100000Y115000D3*
G1X100000Y125000D3*
G1X100000Y135000D3*
G1X100000Y145000D3*
G1X100000Y155000D3*
G1X100000Y165000D3*
G1X100000Y175000D3*
G1X100000Y185000D3*
G1X100000Y195000D3*
G1X100000Y205000D3*
G54D23*
G1X100000Y215000D3*
G54D24*
G1X105000Y233000D3*
G1X105000Y263000D3*
G54D23*
G1X105000Y280000D3*
G54D25*
G1X105000Y305000D3*
G54D24*
G1X115000Y233000D3*
G1X115000Y263000D3*
G54D26*
G1X115000Y325000D3*
G54D24*
G1X125000Y233000D3*
G1X125000Y263000D3*
G54D23*
G1X125000Y280000D3*
G54D25*
G1X125000Y305000D3*
G54D24*
G1X135000Y233000D3*
G1X135000Y263000D3*
G54D22*
G1X135000Y280000D3*
G54D25*
G1X135000Y305000D3*
G54D24*
G1X145000Y233000D3*
G1X145000Y263000D3*
G1X147500Y305000D3*
G1X147500Y335000D3*
G1X157500Y305000D3*
G1X157500Y335000D3*
G54D22*
G1X160000Y25000D3*
G1X160000Y35000D3*
G1X160000Y45000D3*
G1X160000Y55000D3*
G1X160000Y65000D3*
G1X160000Y75000D3*
G1X160000Y85000D3*
G1X160000Y95000D3*
G1X160000Y105000D3*
G1X160000Y115000D3*
G1X160000Y125000D3*
G1X160000Y135000D3*
G1X160000Y145000D3*
G1X160000Y155000D3*
G1X160000Y165000D3*
G1X160000Y175000D3*
G1X160000Y185000D3*
G1X160000Y195000D3*
G1X160000Y205000D3*
G1X160000Y215000D3*
G54D24*
G1X162500Y233000D3*
G1X162500Y253000D3*
G54D26*
G1X170000Y318000D3*
G1X170000Y338000D3*
G54D23*
G1X178000Y228000D3*
G1X180000Y25000D3*
G54D22*
G1X180000Y55000D3*
G54D23*
G1X180000Y75000D3*
G54D22*
G1X180000Y105000D3*
G1X186000Y228000D3*
G54D24*
G1X186000Y238000D3*
G1X186000Y258000D3*
G54D22*
G1X190000Y25000D3*
G1X190000Y55000D3*
G1X190000Y75000D3*
G1X190000Y105000D3*
G54D23*
G1X193500Y278500D3*
G54D22*
G1X193500Y286500D3*
G1X200000Y25000D3*
G1X200000Y55000D3*
G1X200000Y75000D3*
G1X200000Y105000D3*
G54D27*
G1X205000Y210000D3*
G54D22*
G1X205000Y228000D3*
G1X205000Y258000D3*
G54D24*
G1X209000Y289000D3*
G54D22*
G1X210000Y25000D3*
G1X210000Y55000D3*
G1X210000Y75000D3*
G1X210000Y105000D3*
G54D26*
G1X210000Y328000D3*
G54D22*
G1X215000Y228000D3*
G1X215000Y258000D3*
G1X218000Y271000D3*
G1X220000Y25000D3*
G1X220000Y55000D3*
G1X220000Y75000D3*
G1X220000Y105000D3*
G1X225000Y228000D3*
G1X225000Y258000D3*
G1X228000Y271000D3*
G54D24*
G1X229000Y289000D3*
G54D22*
G1X230000Y25000D3*
G1X230000Y55000D3*
G1X230000Y75000D3*
G1X230000Y105000D3*
G54D24*
G1X230000Y308000D3*
G1X230000Y328000D3*
G54D22*
G1X235000Y228000D3*
G54D23*
G1X235000Y258000D3*
G54D22*
G1X240000Y25000D3*
G1X240000Y55000D3*
G1X240000Y75000D3*
G1X240000Y105000D3*
G54D27*
G1X250000Y210000D3*
G54D24*
G1X254000Y25000D3*
G1X254000Y45000D3*
G1X254000Y75000D3*
G1X254000Y95000D3*
G1X254000Y228000D3*
G1X254000Y248000D3*
G54D23*
G1X270000Y236000D3*
G54D22*
G1X270000Y244000D3*
G1X275000Y45000D3*
G1X275000Y55000D3*
G1X275000Y65000D3*
G1X275000Y75000D3*
G1X275000Y85000D3*
G1X275000Y95000D3*
G1X275000Y105000D3*
G54D24*
G1X285000Y119000D3*
G54D26*
G1X290000Y282500D3*
G54D27*
G1X290000Y322500D3*
G54D23*
G1X305000Y45000D3*
G54D22*
G1X305000Y55000D3*
G1X305000Y65000D3*
G1X305000Y75000D3*
G1X305000Y85000D3*
G1X305000Y95000D3*
G1X305000Y105000D3*
G54D24*
G1X305000Y119000D3*
G54D22*
G1X332000Y21000D3*
G54D23*
G1X340000Y21000D3*
G54D22*
G1X340000Y186500D3*
G54D23*
G1X340000Y194500D3*
G54D21*
G1X365000Y12500D3*
G1X365000Y337500D3*
G54D28*
G1X365500Y40500D3*
G1X365500Y50500D3*
G1X365500Y60500D3*
G1X365500Y70500D3*
G1X365500Y90500D3*
G1X365500Y100500D3*
G1X365500Y110500D3*
G1X365500Y120500D3*
G1X365500Y130500D3*
G1X365500Y140500D3*
G1X365500Y150500D3*
G1X365500Y160500D3*
G1X365500Y170500D3*
G1X365500Y180500D3*
G1X365500Y190500D3*
G1X365500Y200500D3*
G1X365500Y210500D3*
G1X365500Y220500D3*
G1X365500Y230500D3*
G1X365500Y240500D3*
G1X365500Y250500D3*
G1X365500Y260500D3*
G1X365500Y270500D3*
G1X365500Y280500D3*
G1X365500Y290500D3*
G1X365500Y300500D3*
G1X365500Y310500D3*
G54D22*
G1X115000Y17000D3*
G1X125000Y17000D3*
G54D29*
G1X240000Y185000D3*
G1X245000Y180000D3*
G1X252500Y185000D3*
G1X262500Y130000D3*
G1X262500Y175000D3*
G1X267500Y140000D3*
G1X270000Y170000D3*
G54D22*
G1X275000Y21000D3*
G54D29*
G1X275000Y140000D3*
G54D22*
G1X285000Y21000D3*
G1X285000Y180000D3*
G1X305000Y180000D3*
G54D29*
G1X310000Y27500D3*
G1X320000Y32500D3*
G1X327500Y127500D3*
G1X327500Y165000D3*
G1X327500Y172500D3*
G1X338500Y142500D3*
G1X338500Y172500D3*
G54D22*
G1X340000Y225000D3*
G1X341000Y9500D3*
G54D29*
G1X342500Y115000D3*
G1X344000Y125500D3*
G1X344000Y160000D3*
G1X345000Y267500D3*
G1X346500Y136000D3*
G1X347500Y150000D3*
G1X350000Y37500D3*
G1X350000Y190000D3*
M2*
